<svg width="66" height="59" viewBox="0 0 66 59" fill="none" xmlns="http://www.w3.org/2000/svg">
<path d="M4.9506 21.6397C-0.141345 29.215 -2.00953 39.6722 2.74067 47.464C6.04417 52.8862 12.0246 56.2353 18.1988 57.7276C24.3729 59.2199 30.7976 59.0604 37.1426 58.9009C46.4494 58.6617 57.1687 57.7162 62.534 50.1068C67.4665 43.1238 65.6325 33.5437 62.9327 25.4444C60.2102 17.2882 56.5194 8.9611 49.6504 3.78942C34.591 -7.545 13.4714 8.96111 4.96199 21.6283L4.9506 21.6397Z" fill="white"/>
<path d="M36.2571 46.5842V31.4565H41.3035L42.2604 25.2026H36.2571V21.1359C36.2571 19.4272 37.1001 17.7526 39.7884 17.7526H42.5224V12.4215C42.5224 12.4215 40.0504 12 37.681 12C32.7372 12 29.502 14.9959 29.502 20.4182V25.1912H24V31.4451H29.502V46.5728H36.2685L36.2571 46.5842Z" fill="#F58436"/>
</svg>
