<svg width="66" height="59" viewBox="0 0 66 59" fill="none" xmlns="http://www.w3.org/2000/svg">
<path d="M4.95059 21.6397C-0.141353 29.215 -2.00952 39.6722 2.74068 47.464C6.04418 52.8862 12.0246 56.2353 18.1988 57.7276C24.3729 59.2199 30.7976 59.0604 37.1426 58.9009C46.4494 58.6617 57.1687 57.7162 62.534 50.1068C67.4665 43.1238 65.6325 33.5437 62.9327 25.4444C60.2102 17.2882 56.5194 8.9611 49.6504 3.78942C34.591 -7.545 13.4714 8.96111 4.96199 21.6283L4.95059 21.6397Z" fill="white"/>
<path d="M40.5981 21.0352C39.6867 21.0352 38.9463 21.7756 38.9463 22.6869C38.9463 23.5982 39.6867 24.3386 40.5981 24.3386C41.5094 24.3386 42.2498 23.5982 42.2498 22.6869C42.2498 21.7756 41.5094 21.0352 40.5981 21.0352Z" fill="#F58436"/>
<path d="M33.2392 23.165C29.4004 23.165 26.2791 26.2863 26.2791 30.1252C26.2791 33.9641 29.4004 37.0853 33.2392 37.0853C37.0781 37.0853 40.1994 33.9641 40.1994 30.1252C40.1994 26.2863 37.0781 23.165 33.2392 23.165ZM33.2392 34.5792C30.7787 34.5792 28.7852 32.5743 28.7852 30.1252C28.7852 27.676 30.7901 25.6711 33.2392 25.6711C35.6884 25.6711 37.6933 27.676 37.6933 30.1252C37.6933 32.5743 35.6884 34.5792 33.2392 34.5792Z" fill="#F58436"/>
<path d="M38.764 44.2506H27.4866C22.8047 44.2506 19 40.4459 19 35.764V24.4866C19 19.8047 22.8047 16 27.4866 16H38.764C43.4459 16 47.2506 19.8047 47.2506 24.4866V35.764C47.2506 40.4459 43.4459 44.2506 38.764 44.2506ZM27.4752 18.6542C24.2628 18.6542 21.6428 21.2742 21.6428 24.4866V35.764C21.6428 38.9764 24.2628 41.5964 27.4752 41.5964H38.7526C41.965 41.5964 44.585 38.9764 44.585 35.764V24.4866C44.585 21.2742 41.965 18.6542 38.7526 18.6542H27.4752Z" fill="#F58436"/>
</svg>
