<svg width="66" height="59" viewBox="0 0 66 59" fill="none" xmlns="http://www.w3.org/2000/svg">
<path d="M4.9506 21.6397C-0.141342 29.215 -2.00953 39.6722 2.74067 47.464C6.04417 52.8862 12.0246 56.2353 18.1988 57.7276C24.3729 59.2199 30.7976 59.0604 37.1426 58.9009C46.4494 58.6617 57.1687 57.7162 62.534 50.1068C67.4665 43.1238 65.6325 33.5437 62.9327 25.4444C60.2102 17.2882 56.5194 8.9611 49.6504 3.78942C34.591 -7.545 13.4713 8.96111 4.96199 21.6283L4.9506 21.6397Z" fill="white"/>
<path d="M22.3759 25.45H27.0464V40.441H22.3759V25.45ZM24.7112 18C26.2034 18 27.4109 19.2075 27.4109 20.6998C27.4109 22.192 26.2034 23.3995 24.7112 23.3995C23.2189 23.3995 22 22.192 22 20.6998C22 19.2075 23.2075 18 24.7112 18Z" fill="#F58436"/>
<path d="M29.9626 25.4501H34.428V27.5006H34.4849C35.1115 26.3159 36.6265 25.0742 38.8934 25.0742C43.6094 25.0742 44.4866 28.1727 44.4866 32.2166V40.4412H39.8275V33.1507C39.8275 31.4078 39.7933 29.1751 37.4011 29.1751C35.0089 29.1751 34.6102 31.0661 34.6102 33.0254V40.4412H29.9512V25.4501H29.9626Z" fill="#F58436"/>
</svg>
