<svg width="66" height="59" viewBox="0 0 66 59" fill="none" xmlns="http://www.w3.org/2000/svg">
<path d="M4.9506 21.6397C-0.141342 29.215 -2.00953 39.6722 2.74067 47.464C6.04417 52.8862 12.0247 56.2353 18.1988 57.7276C24.3729 59.2199 30.7976 59.0604 37.1426 58.9009C46.4494 58.6617 57.1687 57.7162 62.534 50.1068C67.4665 43.1238 65.6324 33.5437 62.9327 25.4444C60.2102 17.2882 56.5193 8.9611 49.6503 3.78942C34.5909 -7.545 13.4713 8.96111 4.96197 21.6283L4.9506 21.6397Z" fill="white"/>
<path d="M40.0408 20.3867C38.9948 19.1726 38.4182 17.6137 38.4184 16H33.6888V35.2889C33.6531 36.333 33.2197 37.3221 32.4801 38.0477C31.7404 38.7732 30.7524 39.1784 29.7245 39.1778C27.551 39.1778 25.7449 37.3733 25.7449 35.1333C25.7449 32.4578 28.2857 30.4511 30.9031 31.2756V26.36C25.6224 25.6444 21 29.8133 21 35.1333C21 40.3133 25.2245 44 29.7092 44C34.5153 44 38.4184 40.0333 38.4184 35.1333V25.3489C40.3362 26.7487 42.6388 27.4997 45 27.4956V22.6889C45 22.6889 42.1224 22.8289 40.0408 20.3867Z" fill="#F58436"/>
</svg>
