<svg width="66" height="59" viewBox="0 0 66 59" fill="none" xmlns="http://www.w3.org/2000/svg">
<path d="M4.9506 21.6397C-0.141342 29.215 -2.00953 39.6722 2.74067 47.464C6.04417 52.8862 12.0247 56.2353 18.1988 57.7276C24.3729 59.2199 30.7976 59.0604 37.1426 58.9009C46.4494 58.6617 57.1687 57.7162 62.534 50.1068C67.4665 43.1238 65.6324 33.5437 62.9327 25.4444C60.2102 17.2882 56.5193 8.9611 49.6503 3.78942C34.5909 -7.545 13.4713 8.96111 4.96197 21.6283L4.9506 21.6397Z" fill="white"/>
<path d="M46.371 27.7868C46.371 24.5858 43.7852 22 40.5842 22H25.7868C22.5858 22 20 24.5858 20 27.7868V34.6672C20 37.8682 22.5858 40.454 25.7868 40.454H40.5842C43.7852 40.454 46.371 37.8682 46.371 34.6672V27.7868ZM37.668 31.7396L31.0382 35.0203C30.7762 35.157 29.8991 34.9748 29.8991 34.6786V27.9349C29.8991 27.6387 30.7876 27.4451 31.0496 27.5932L37.406 31.0448C37.668 31.1928 37.9528 31.5801 37.6794 31.7282L37.668 31.7396Z" fill="#F58436"/>
</svg>
