<svg width="1108" height="90" viewBox="0 0 1108 90" fill="none" xmlns="http://www.w3.org/2000/svg">
<rect x="1" y="1" width="1106" height="88" rx="14" fill="white" stroke="#F58436" stroke-width="2"/>
<text fill="#414042" xml:space="preserve" style="white-space: pre" font-family="Oxygen" font-size="20" font-weight="bold" letter-spacing="0.04em"><tspan x="314.519" y="52.9102">Clique para ler a &#xed;ntegra do Relat&#xf3;rio Anual 2024</tspan></text>
<path d="M295 52.11L289.944 47.0557L290.956 46.0271L294.286 49.3571V37H295.714V49.3571L299.043 46.0286L300.056 47.0557L295 52.11ZM287.309 57C286.65 57 286.101 56.78 285.661 56.34C285.221 55.9 285.001 55.3505 285 54.6914V51.23H286.429V54.6914C286.429 54.9114 286.52 55.1133 286.703 55.2971C286.886 55.481 287.087 55.5724 287.307 55.5714H302.693C302.912 55.5714 303.113 55.48 303.297 55.2971C303.481 55.1143 303.572 54.9124 303.571 54.6914V51.23H305V54.6914C305 55.3495 304.78 55.8986 304.34 56.3386C303.9 56.7786 303.35 56.999 302.691 57H287.309Z" fill="#414042"/>
</svg>
