<svg width="348" height="90" viewBox="0 0 348 90" fill="none" xmlns="http://www.w3.org/2000/svg">
<rect x="1" y="1" width="346" height="88" rx="14" fill="#F58436" stroke="#F58436" stroke-width="2"/>
<path d="M87.6139 38.2051C85.524 38.2051 83.8671 37.5475 82.6432 36.2324C81.4192 34.9173 80.8073 33.1009 80.8073 30.7832C80.8073 28.5827 81.4453 26.8184 82.7213 25.4902C84.0039 24.1556 85.6803 23.4883 87.7506 23.4883C89.4238 23.4883 90.8398 23.8757 91.9987 24.6504L91.1686 26.6523C90.0553 25.9688 88.9355 25.627 87.8092 25.627C86.4941 25.627 85.4524 26.1022 84.6842 27.0527C83.9225 27.9967 83.5416 29.2663 83.5416 30.8613C83.5416 32.515 83.9095 33.7943 84.6451 34.6992C85.3873 35.6042 86.442 36.0566 87.8092 36.0566C89.0071 36.0566 90.1953 35.7572 91.3737 35.1582L91.7252 37.2285C90.6315 37.8796 89.261 38.2051 87.6139 38.2051ZM98.4041 38.1465C97.6684 38.1465 97.0565 38.0618 96.5682 37.8926C96.0864 37.7168 95.7056 37.4401 95.4256 37.0625C95.1457 36.6849 94.9504 36.2357 94.8397 35.7148C94.729 35.194 94.6737 34.5462 94.6737 33.7715V23.3125L97.2323 23.1465V33.7227C97.2323 34.6862 97.3462 35.3405 97.574 35.6855C97.8019 36.0241 98.2446 36.1934 98.9022 36.1934C99.2277 36.1934 99.6411 36.1576 100.142 36.0859L100.211 37.9121C100.204 37.9121 100.123 37.9284 99.9666 37.9609C99.8169 37.9935 99.6704 38.0195 99.5272 38.0391C99.3905 38.0651 99.2147 38.0879 98.9998 38.1074C98.785 38.1335 98.5864 38.1465 98.4041 38.1465ZM102.339 38V27.2676H104.897V38H102.339ZM102.339 25.7051V23.5176H104.907V25.7051H102.339ZM115.492 42.4629V37.9219C115.492 37.4727 115.515 37.0104 115.561 36.5352C114.884 37.6549 113.862 38.2148 112.494 38.2148C111.108 38.2148 109.991 37.694 109.145 36.6523C108.298 35.6107 107.875 34.2533 107.875 32.5801C107.875 30.9199 108.276 29.5755 109.076 28.5469C109.877 27.5182 110.997 27.0039 112.436 27.0039C113.849 27.0039 114.906 27.5475 115.61 28.6348L115.815 27.2676H118.061V42.3359L115.492 42.4629ZM112.992 36.2715C113.826 36.2715 114.464 35.9915 114.906 35.4316C115.349 34.8717 115.577 33.9863 115.59 32.7754C115.59 31.4473 115.369 30.4805 114.926 29.875C114.49 29.263 113.836 28.957 112.963 28.957C112.175 28.957 111.554 29.263 111.098 29.875C110.649 30.487 110.424 31.3984 110.424 32.6094C110.424 33.8073 110.652 34.7188 111.108 35.3438C111.563 35.9622 112.192 36.2715 112.992 36.2715ZM129.222 37.1602C128.369 37.8568 127.246 38.2051 125.853 38.2051C124.46 38.2051 123.337 37.8568 122.484 37.1602C121.637 36.4635 121.214 35.4414 121.214 34.0938V27.2676H123.783V33.9961C123.783 34.7969 123.949 35.3763 124.281 35.7344C124.619 36.0924 125.153 36.2715 125.882 36.2715C126.598 36.2715 127.119 36.0957 127.445 35.7441C127.777 35.3861 127.943 34.8034 127.943 33.9961V27.2676H130.501V34.0938C130.501 35.4349 130.075 36.457 129.222 37.1602ZM138.606 38.2051C136.881 38.2051 135.536 37.7103 134.573 36.7207C133.616 35.7246 133.137 34.3509 133.137 32.5996C133.137 30.8939 133.59 29.5365 134.495 28.5273C135.4 27.5182 136.633 27.0104 138.196 27.0039C139.674 27.0039 140.82 27.4661 141.633 28.3906C142.454 29.3151 142.864 30.5423 142.864 32.0723C142.864 32.1829 142.861 32.362 142.854 32.6094C142.854 32.8568 142.854 33.0391 142.854 33.1562H135.715C135.741 34.1589 136.015 34.9368 136.536 35.4902C137.063 36.0371 137.786 36.3105 138.704 36.3105C139.876 36.3105 141.002 36.0046 142.083 35.3926L142.444 37.209C141.37 37.873 140.09 38.2051 138.606 38.2051ZM135.764 31.5449H140.452C140.452 30.6725 140.253 30.002 139.856 29.5332C139.459 29.0645 138.909 28.8301 138.206 28.8301C137.548 28.8301 136.991 29.0579 136.536 29.5137C136.087 29.9694 135.829 30.6465 135.764 31.5449ZM151.847 42.4629V27.2676H154.044L154.317 28.7715C154.669 28.2051 155.134 27.7689 155.714 27.4629C156.3 27.1504 156.951 26.9941 157.667 26.9941C158.546 26.9941 159.317 27.2383 159.981 27.7266C160.652 28.2148 161.16 28.8822 161.505 29.7285C161.85 30.5684 162.022 31.5189 162.022 32.5801C162.022 34.2402 161.619 35.5944 160.812 36.6426C160.011 37.6842 158.924 38.2051 157.55 38.2051C156.873 38.2051 156.258 38.0716 155.704 37.8047C155.157 37.5312 154.698 37.1634 154.327 36.7012C154.379 37.6387 154.405 38.166 154.405 38.2832V42.3359L151.847 42.4629ZM157.003 36.252C157.765 36.252 158.364 35.9329 158.8 35.2949C159.243 34.6569 159.464 33.7454 159.464 32.5605C159.464 31.3561 159.243 30.4512 158.8 29.8457C158.357 29.2402 157.742 28.9375 156.954 28.9375C155.261 28.9375 154.405 30.0898 154.386 32.3945C154.386 33.7227 154.604 34.6992 155.04 35.3242C155.483 35.9427 156.137 36.252 157.003 36.252ZM167.705 38.2051C166.709 38.2051 165.902 37.9316 165.283 37.3848C164.671 36.8314 164.365 36.0371 164.365 35.002C164.365 33.8887 164.73 33.0651 165.459 32.5312C166.188 31.9909 167.289 31.6491 168.76 31.5059C168.962 31.4798 169.18 31.4538 169.414 31.4277C169.649 31.4017 169.912 31.3757 170.205 31.3496C170.498 31.3236 170.729 31.3008 170.899 31.2812V30.7148C170.899 30.0638 170.749 29.5918 170.449 29.2988C170.15 28.9993 169.694 28.8496 169.082 28.8496C168.21 28.8496 167.132 29.0938 165.85 29.582C165.843 29.5625 165.736 29.2663 165.528 28.6934C165.319 28.1204 165.212 27.8275 165.205 27.8145C166.468 27.2741 167.836 27.0039 169.307 27.0039C170.752 27.0039 171.804 27.3197 172.461 27.9512C173.119 28.5762 173.447 29.5918 173.447 30.998V38H171.553C171.546 37.974 171.475 37.7559 171.338 37.3457C171.201 36.9355 171.133 36.7174 171.133 36.6914C170.599 37.2122 170.075 37.5964 169.561 37.8438C169.053 38.0846 168.434 38.2051 167.705 38.2051ZM168.399 36.3887C168.991 36.3887 169.505 36.2487 169.942 35.9688C170.384 35.6823 170.7 35.3372 170.889 34.9336V32.8633C170.869 32.8633 170.697 32.8763 170.371 32.9023C170.052 32.9284 169.88 32.9414 169.854 32.9414C168.819 33.0326 168.06 33.2279 167.578 33.5273C167.097 33.8268 166.856 34.3086 166.856 34.9727C166.856 35.4284 166.989 35.7799 167.256 36.0273C167.523 36.2682 167.904 36.3887 168.399 36.3887ZM176.835 38V27.2676H178.984L179.316 28.9082C180.019 27.7819 181.038 27.2188 182.372 27.2188C182.652 27.2188 182.88 27.2318 183.056 27.2578L183.017 29.3965C182.757 29.3574 182.486 29.3379 182.206 29.3379C181.262 29.3379 180.556 29.5885 180.087 30.0898C179.625 30.5911 179.394 31.2878 179.394 32.1797V38H176.835ZM188.172 38.2051C187.176 38.2051 186.369 37.9316 185.751 37.3848C185.139 36.8314 184.833 36.0371 184.833 35.002C184.833 33.8887 185.197 33.0651 185.926 32.5312C186.656 31.9909 187.756 31.6491 189.227 31.5059C189.429 31.4798 189.647 31.4538 189.881 31.4277C190.116 31.4017 190.38 31.3757 190.672 31.3496C190.965 31.3236 191.197 31.3008 191.366 31.2812V30.7148C191.366 30.0638 191.216 29.5918 190.917 29.2988C190.617 28.9993 190.161 28.8496 189.549 28.8496C188.677 28.8496 187.6 29.0938 186.317 29.582C186.311 29.5625 186.203 29.2663 185.995 28.6934C185.786 28.1204 185.679 27.8275 185.672 27.8145C186.936 27.2741 188.303 27.0039 189.774 27.0039C191.219 27.0039 192.271 27.3197 192.928 27.9512C193.586 28.5762 193.915 29.5918 193.915 30.998V38H192.02C192.014 37.974 191.942 37.7559 191.805 37.3457C191.669 36.9355 191.6 36.7174 191.6 36.6914C191.066 37.2122 190.542 37.5964 190.028 37.8438C189.52 38.0846 188.902 38.2051 188.172 38.2051ZM188.866 36.3887C189.458 36.3887 189.973 36.2487 190.409 35.9688C190.852 35.6823 191.167 35.3372 191.356 34.9336V32.8633C191.337 32.8633 191.164 32.8763 190.839 32.9023C190.519 32.9284 190.347 32.9414 190.321 32.9414C189.286 33.0326 188.527 33.2279 188.046 33.5273C187.564 33.8268 187.323 34.3086 187.323 34.9727C187.323 35.4284 187.456 35.7799 187.723 36.0273C187.99 36.2682 188.371 36.3887 188.866 36.3887ZM207.146 38.1465C206.41 38.1465 205.798 38.0618 205.31 37.8926C204.828 37.7168 204.447 37.4401 204.167 37.0625C203.887 36.6849 203.692 36.2357 203.581 35.7148C203.47 35.194 203.415 34.5462 203.415 33.7715V23.3125L205.974 23.1465V33.7227C205.974 34.6862 206.088 35.3405 206.315 35.6855C206.543 36.0241 206.986 36.1934 207.644 36.1934C207.969 36.1934 208.383 36.1576 208.884 36.0859L208.952 37.9121C208.946 37.9121 208.864 37.9284 208.708 37.9609C208.558 37.9935 208.412 38.0195 208.269 38.0391C208.132 38.0651 207.956 38.0879 207.741 38.1074C207.526 38.1335 207.328 38.1465 207.146 38.1465ZM215.924 38.2051C214.199 38.2051 212.854 37.7103 211.891 36.7207C210.934 35.7246 210.455 34.3509 210.455 32.5996C210.455 30.8939 210.908 29.5365 211.813 28.5273C212.718 27.5182 213.951 27.0104 215.514 27.0039C216.992 27.0039 218.138 27.4661 218.951 28.3906C219.772 29.3151 220.182 30.5423 220.182 32.0723C220.182 32.1829 220.179 32.362 220.172 32.6094C220.172 32.8568 220.172 33.0391 220.172 33.1562H213.033C213.059 34.1589 213.333 34.9368 213.854 35.4902C214.381 36.0371 215.104 36.3105 216.022 36.3105C217.194 36.3105 218.32 36.0046 219.401 35.3926L219.762 37.209C218.688 37.873 217.408 38.2051 215.924 38.2051ZM213.082 31.5449H217.77C217.77 30.6725 217.571 30.002 217.174 29.5332C216.777 29.0645 216.227 28.8301 215.524 28.8301C214.866 28.8301 214.309 29.0579 213.854 29.5137C213.405 29.9694 213.147 30.6465 213.082 31.5449ZM223.081 38V27.2676H225.23L225.562 28.9082C226.265 27.7819 227.284 27.2188 228.619 27.2188C228.899 27.2188 229.126 27.2318 229.302 27.2578L229.263 29.3965C229.003 29.3574 228.733 29.3379 228.453 29.3379C227.509 29.3379 226.802 29.5885 226.333 30.0898C225.871 30.5911 225.64 31.2878 225.64 32.1797V38H223.081ZM240.59 38.2051C239.594 38.2051 238.786 37.9316 238.168 37.3848C237.556 36.8314 237.25 36.0371 237.25 35.002C237.25 33.8887 237.614 33.0651 238.344 32.5312C239.073 31.9909 240.173 31.6491 241.644 31.5059C241.846 31.4798 242.064 31.4538 242.299 31.4277C242.533 31.4017 242.797 31.3757 243.09 31.3496C243.383 31.3236 243.614 31.3008 243.783 31.2812V30.7148C243.783 30.0638 243.633 29.5918 243.334 29.2988C243.034 28.9993 242.579 28.8496 241.967 28.8496C241.094 28.8496 240.017 29.0938 238.734 29.582C238.728 29.5625 238.62 29.2663 238.412 28.6934C238.204 28.1204 238.096 27.8275 238.09 27.8145C239.353 27.2741 240.72 27.0039 242.191 27.0039C243.637 27.0039 244.688 27.3197 245.346 27.9512C246.003 28.5762 246.332 29.5918 246.332 30.998V38H244.437C244.431 37.974 244.359 37.7559 244.222 37.3457C244.086 36.9355 244.017 36.7174 244.017 36.6914C243.484 37.2122 242.959 37.5964 242.445 37.8438C241.937 38.0846 241.319 38.2051 240.59 38.2051ZM241.283 36.3887C241.875 36.3887 242.39 36.2487 242.826 35.9688C243.269 35.6823 243.584 35.3372 243.773 34.9336V32.8633C243.754 32.8633 243.581 32.8763 243.256 32.9023C242.937 32.9284 242.764 32.9414 242.738 32.9414C241.703 33.0326 240.944 33.2279 240.463 33.5273C239.981 33.8268 239.74 34.3086 239.74 34.9727C239.74 35.4284 239.874 35.7799 240.14 36.0273C240.407 36.2682 240.788 36.3887 241.283 36.3887ZM256.252 25.8125L257.922 22.0723H260.842L257.766 25.8125H256.252ZM255.764 38V27.2773H258.254V38H255.764ZM261.955 38V27.2676H264.015L264.298 28.625C265.392 27.5443 266.606 27.0039 267.941 27.0039C269.191 27.0039 270.125 27.3652 270.744 28.0879C271.369 28.804 271.681 29.8457 271.681 31.2129V38H269.113V31.5254C269.106 30.6595 268.966 30.0117 268.693 29.582C268.419 29.1523 267.928 28.9375 267.218 28.9375C266.665 28.9375 266.157 29.0807 265.695 29.3672C265.239 29.6471 264.907 30.002 264.699 30.4316C264.575 30.9395 264.513 31.7207 264.513 32.7754V38H261.955ZM279.288 38.1465C278.559 38.1465 277.95 38.0618 277.462 37.8926C276.98 37.7168 276.602 37.4434 276.329 37.0723C276.055 36.7012 275.86 36.265 275.743 35.7637C275.632 35.2559 275.577 34.6309 275.577 33.8887V28.8203H273.819L273.917 27.4336L275.753 27.2676L276.573 24.3574L278.135 24.3477V27.2676H280.801V28.8203H278.135V33.9375C278.135 34.7513 278.253 35.3307 278.487 35.6758C278.721 36.0208 279.154 36.1934 279.786 36.1934C280.157 36.1934 280.554 36.1608 280.977 36.0957L281.046 37.9316C281.033 37.9316 280.951 37.9479 280.801 37.9805C280.658 38.0065 280.518 38.0293 280.381 38.0488C280.251 38.0749 280.082 38.0977 279.874 38.1172C279.665 38.1367 279.47 38.1465 279.288 38.1465ZM288.515 38.2051C286.79 38.2051 285.446 37.7103 284.482 36.7207C283.525 35.7246 283.047 34.3509 283.047 32.5996C283.047 30.8939 283.499 29.5365 284.404 28.5273C285.309 27.5182 286.543 27.0104 288.105 27.0039C289.583 27.0039 290.729 27.4661 291.543 28.3906C292.363 29.3151 292.773 30.5423 292.773 32.0723C292.773 32.1829 292.77 32.362 292.764 32.6094C292.764 32.8568 292.764 33.0391 292.764 33.1562H285.625C285.651 34.1589 285.924 34.9368 286.445 35.4902C286.972 36.0371 287.695 36.3105 288.613 36.3105C289.785 36.3105 290.911 36.0046 291.992 35.3926L292.353 37.209C291.279 37.873 290 38.2051 288.515 38.2051ZM285.674 31.5449H290.361C290.361 30.6725 290.163 30.002 289.765 29.5332C289.368 29.0645 288.818 28.8301 288.115 28.8301C287.458 28.8301 286.901 29.0579 286.445 29.5137C285.996 29.9694 285.739 30.6465 285.674 31.5449ZM297.812 42.8047L297.665 40.7344H298.964C300.468 40.7344 301.519 40.5326 302.118 40.1289C302.717 39.7318 303.017 38.9993 303.017 37.9316C303.017 37.4954 302.997 37.0234 302.958 36.5156C302.789 36.75 302.626 36.9453 302.47 37.1016C302.32 37.2513 302.128 37.401 301.894 37.5508C301.666 37.7005 301.389 37.8145 301.064 37.8926C300.744 37.9642 300.38 38 299.97 38C298.55 38 297.382 37.4889 296.464 36.4668C295.552 35.4447 295.097 34.1263 295.097 32.5117C295.097 31.6523 295.224 30.8711 295.478 30.168C295.731 29.4583 296.077 28.8757 296.513 28.4199C296.949 27.9642 297.45 27.6159 298.017 27.375C298.59 27.1276 299.198 27.0039 299.843 27.0039C301.282 27.0039 302.353 27.528 303.056 28.5762L303.231 27.2676H305.517V37.2383C305.517 37.7721 305.491 38.2507 305.439 38.6738C305.386 39.1035 305.295 39.5137 305.165 39.9043C305.035 40.3014 304.862 40.6465 304.647 40.9395C304.439 41.2324 304.175 41.4993 303.856 41.7402C303.537 41.9811 303.16 42.1764 302.724 42.3262C302.294 42.4824 301.793 42.5996 301.22 42.6777C300.647 42.7624 300.002 42.8047 299.286 42.8047H297.812ZM300.38 36.2129C302.144 36.2129 303.036 35.0312 303.056 32.668V32.2969C303.043 31.2357 302.821 30.4154 302.392 29.8359C301.962 29.2565 301.334 28.9635 300.507 28.957C299.569 28.957 298.86 29.2793 298.378 29.9238C297.896 30.5618 297.655 31.4245 297.655 32.5117C297.655 33.5599 297.896 34.4388 298.378 35.1484C298.866 35.8581 299.534 36.2129 300.38 36.2129ZM308.856 38V27.2676H311.004L311.336 28.9082C312.039 27.7819 313.058 27.2188 314.393 27.2188C314.673 27.2188 314.901 27.2318 315.076 27.2578L315.037 29.3965C314.777 29.3574 314.507 29.3379 314.227 29.3379C313.283 29.3379 312.576 29.5885 312.108 30.0898C311.645 30.5911 311.414 31.2878 311.414 32.1797V38H308.856ZM320.193 38.2051C319.197 38.2051 318.389 37.9316 317.771 37.3848C317.159 36.8314 316.853 36.0371 316.853 35.002C316.853 33.8887 317.218 33.0651 317.947 32.5312C318.676 31.9909 319.776 31.6491 321.247 31.5059C321.449 31.4798 321.667 31.4538 321.902 31.4277C322.136 31.4017 322.4 31.3757 322.693 31.3496C322.986 31.3236 323.217 31.3008 323.386 31.2812V30.7148C323.386 30.0638 323.236 29.5918 322.937 29.2988C322.637 28.9993 322.182 28.8496 321.57 28.8496C320.697 28.8496 319.62 29.0938 318.337 29.582C318.331 29.5625 318.223 29.2663 318.015 28.6934C317.807 28.1204 317.699 27.8275 317.693 27.8145C318.956 27.2741 320.323 27.0039 321.794 27.0039C323.24 27.0039 324.291 27.3197 324.949 27.9512C325.606 28.5762 325.935 29.5918 325.935 30.998V38H324.04C324.034 37.974 323.962 37.7559 323.826 37.3457C323.689 36.9355 323.621 36.7174 323.621 36.6914C323.087 37.2122 322.563 37.5964 322.048 37.8438C321.54 38.0846 320.922 38.2051 320.193 38.2051ZM320.886 36.3887C321.479 36.3887 321.993 36.2487 322.429 35.9688C322.872 35.6823 323.188 35.3372 323.376 34.9336V32.8633C323.357 32.8633 323.184 32.8763 322.859 32.9023C322.54 32.9284 322.367 32.9414 322.341 32.9414C321.306 33.0326 320.548 33.2279 320.066 33.5273C319.584 33.8268 319.343 34.3086 319.343 34.9727C319.343 35.4284 319.477 35.7799 319.744 36.0273C320.011 36.2682 320.391 36.3887 320.886 36.3887ZM85.1237 68.2051C83.7239 68.2051 82.6237 67.6908 81.8229 66.6621C81.0221 65.6335 80.6217 64.2598 80.6217 62.541C80.6217 60.8743 81.0188 59.5365 81.8131 58.5273C82.6139 57.5117 83.7142 57.0039 85.1139 57.0039C86.6373 57.0039 87.7148 57.5443 88.3463 58.625C88.2812 57.987 88.2487 57.3717 88.2487 56.7793V53.3125L90.8073 53.1465V68H88.5905L88.3073 66.5352C88.1966 66.7109 88.0924 66.8639 87.9948 66.9941C87.9036 67.1178 87.7669 67.2643 87.5846 67.4336C87.4023 67.5964 87.2037 67.7298 86.9889 67.834C86.7806 67.9316 86.5136 68.0163 86.1881 68.0879C85.8691 68.166 85.5143 68.2051 85.1237 68.2051ZM85.7291 66.2617C87.4479 66.2617 88.3203 65.0931 88.3463 62.7559C88.3463 61.4342 88.125 60.4707 87.6823 59.8652C87.2395 59.2598 86.5787 58.957 85.6998 58.957C84.9316 58.957 84.3164 59.2663 83.8541 59.8848C83.3984 60.4967 83.1705 61.4017 83.1705 62.5996C83.1705 63.791 83.3984 64.6992 83.8541 65.3242C84.3164 65.9492 84.9414 66.2617 85.7291 66.2617ZM98.8924 66.2617C99.7583 66.2617 100.409 65.946 100.846 65.3145C101.282 64.6829 101.5 63.778 101.5 62.5996C101.5 61.4082 101.282 60.5 100.846 59.875C100.409 59.25 99.7518 58.9375 98.8729 58.9375C98.007 58.9375 97.3527 59.2533 96.91 59.8848C96.4738 60.5098 96.2557 61.418 96.2557 62.6094C96.2557 63.7812 96.477 64.6829 96.9198 65.3145C97.3625 65.946 98.02 66.2617 98.8924 66.2617ZM98.824 68.2051C97.2355 68.2051 95.9855 67.6908 95.074 66.6621C94.1626 65.6335 93.7069 64.2793 93.7069 62.5996C93.7069 60.8678 94.1626 59.5039 95.074 58.5078C95.9855 57.5052 97.2713 57.0039 98.9315 57.0039C100.533 57.0039 101.786 57.515 102.691 58.5371C103.603 59.5527 104.058 60.9069 104.058 62.5996C104.058 64.3118 103.599 65.6758 102.681 66.6914C101.764 67.7005 100.478 68.2051 98.824 68.2051ZM113.217 68V53.6543H118.52C119.242 53.6543 119.867 53.6868 120.395 53.752C120.929 53.8171 121.433 53.9375 121.908 54.1133C122.39 54.2826 122.778 54.5137 123.071 54.8066C123.37 55.0996 123.604 55.4837 123.774 55.959C123.949 56.4277 124.037 56.9844 124.037 57.6289C124.037 59.5299 123.175 60.7799 121.449 61.3789C121.801 61.776 122.237 62.5117 122.758 63.5859L124.887 68H121.996L120.326 64.2598C119.695 62.9186 119.304 62.1243 119.155 61.877C119.044 61.8704 118.676 61.8672 118.051 61.8672L115.834 61.8477V68H113.217ZM118.754 59.9531C119.77 59.9531 120.499 59.7741 120.942 59.416C121.384 59.0514 121.606 58.4688 121.606 57.668C121.606 56.9648 121.381 56.4473 120.932 56.1152C120.483 55.7832 119.796 55.6172 118.871 55.6172H115.834V59.9434C115.932 59.9434 116.417 59.9466 117.289 59.9531C118.162 59.9531 118.65 59.9531 118.754 59.9531ZM132.415 68.2051C130.69 68.2051 129.346 67.7103 128.382 66.7207C127.425 65.7246 126.947 64.3509 126.947 62.5996C126.947 60.8939 127.399 59.5365 128.304 58.5273C129.209 57.5182 130.443 57.0104 132.005 57.0039C133.483 57.0039 134.629 57.4661 135.443 58.3906C136.263 59.3151 136.673 60.5423 136.673 62.0723C136.673 62.1829 136.67 62.362 136.664 62.6094C136.664 62.8568 136.664 63.0391 136.664 63.1562H129.525C129.551 64.1589 129.824 64.9368 130.345 65.4902C130.872 66.0371 131.595 66.3105 132.513 66.3105C133.685 66.3105 134.811 66.0046 135.892 65.3926L136.253 67.209C135.179 67.873 133.9 68.2051 132.415 68.2051ZM129.574 61.5449H134.261C134.261 60.6725 134.063 60.002 133.665 59.5332C133.268 59.0645 132.718 58.8301 132.015 58.8301C131.358 58.8301 130.801 59.0579 130.345 59.5137C129.896 59.9694 129.639 60.6465 129.574 61.5449ZM143.323 68.1465C142.587 68.1465 141.975 68.0618 141.487 67.8926C141.005 67.7168 140.624 67.4401 140.344 67.0625C140.064 66.6849 139.869 66.2357 139.758 65.7148C139.648 65.194 139.592 64.5462 139.592 63.7715V53.3125L142.151 53.1465V63.7227C142.151 64.6862 142.265 65.3405 142.493 65.6855C142.721 66.0241 143.163 66.1934 143.821 66.1934C144.146 66.1934 144.56 66.1576 145.061 66.0859L145.13 67.9121C145.123 67.9121 145.042 67.9284 144.885 67.9609C144.736 67.9935 144.589 68.0195 144.446 68.0391C144.309 68.0651 144.133 68.0879 143.919 68.1074C143.704 68.1335 143.505 68.1465 143.323 68.1465ZM150.031 68.2051C149.035 68.2051 148.228 67.9316 147.609 67.3848C146.997 66.8314 146.691 66.0371 146.691 65.002C146.691 63.8887 147.056 63.0651 147.785 62.5312C148.514 61.9909 149.614 61.6491 151.086 61.5059C151.288 61.4798 151.506 61.4538 151.74 61.4277C151.974 61.4017 152.238 61.3757 152.531 61.3496C152.824 61.3236 153.055 61.3008 153.224 61.2812V60.7148C153.224 60.0638 153.075 59.5918 152.775 59.2988C152.476 58.9993 152.02 58.8496 151.408 58.8496C150.536 58.8496 149.458 59.0938 148.176 59.582C148.169 59.5625 148.062 59.2663 147.853 58.6934C147.645 58.1204 147.538 57.8275 147.531 57.8145C148.794 57.2741 150.161 57.0039 151.633 57.0039C153.078 57.0039 154.129 57.3197 154.787 57.9512C155.444 58.5762 155.773 59.5918 155.773 60.998V68H153.879C153.872 67.974 153.801 67.7559 153.664 67.3457C153.527 66.9355 153.459 66.7174 153.459 66.6914C152.925 67.2122 152.401 67.5964 151.887 67.8438C151.379 68.0846 150.76 68.2051 150.031 68.2051ZM150.724 66.3887C151.317 66.3887 151.831 66.2487 152.267 65.9688C152.71 65.6823 153.026 65.3372 153.215 64.9336V62.8633C153.195 62.8633 153.023 62.8763 152.697 62.9023C152.378 62.9284 152.206 62.9414 152.18 62.9414C151.144 63.0326 150.386 63.2279 149.904 63.5273C149.422 63.8268 149.181 64.3086 149.181 64.9727C149.181 65.4284 149.315 65.7799 149.582 66.0273C149.849 66.2682 150.23 66.3887 150.724 66.3887ZM163.438 68.1465C162.709 68.1465 162.101 68.0618 161.612 67.8926C161.131 67.7168 160.753 67.4434 160.48 67.0723C160.206 66.7012 160.011 66.265 159.894 65.7637C159.783 65.2559 159.728 64.6309 159.728 63.8887V58.8203H157.97L158.067 57.4336L159.903 57.2676L160.724 54.3574L162.286 54.3477V57.2676H164.952V58.8203H162.286V63.9375C162.286 64.7513 162.403 65.3307 162.638 65.6758C162.872 66.0208 163.305 66.1934 163.937 66.1934C164.308 66.1934 164.705 66.1608 165.128 66.0957L165.196 67.9316C165.183 67.9316 165.102 67.9479 164.952 67.9805C164.809 68.0065 164.669 68.0293 164.532 68.0488C164.402 68.0749 164.233 68.0977 164.024 68.1172C163.816 68.1367 163.621 68.1465 163.438 68.1465ZM171.612 55.8125L173.281 52.0723H176.201L173.125 55.8125H171.612ZM172.383 66.2617C173.249 66.2617 173.9 65.946 174.336 65.3145C174.772 64.6829 174.99 63.778 174.99 62.5996C174.99 61.4082 174.772 60.5 174.336 59.875C173.9 59.25 173.242 58.9375 172.364 58.9375C171.498 58.9375 170.843 59.2533 170.401 59.8848C169.964 60.5098 169.746 61.418 169.746 62.6094C169.746 63.7812 169.968 64.6829 170.41 65.3145C170.853 65.946 171.511 66.2617 172.383 66.2617ZM172.315 68.2051C170.726 68.2051 169.476 67.6908 168.565 66.6621C167.653 65.6335 167.197 64.2793 167.197 62.5996C167.197 60.8678 167.653 59.5039 168.565 58.5078C169.476 57.5052 170.762 57.0039 172.422 57.0039C174.024 57.0039 175.277 57.515 176.182 58.5371C177.093 59.5527 177.549 60.9069 177.549 62.5996C177.549 64.3118 177.09 65.6758 176.172 66.6914C175.254 67.7005 173.968 68.2051 172.315 68.2051ZM180.449 68V57.2676H182.597L182.929 58.9082C183.632 57.7819 184.651 57.2188 185.986 57.2188C186.266 57.2188 186.494 57.2318 186.669 57.2578L186.63 59.3965C186.37 59.3574 186.1 59.3379 185.82 59.3379C184.876 59.3379 184.169 59.5885 183.701 60.0898C183.238 60.5911 183.007 61.2878 183.007 62.1797V68H180.449ZM189.09 68V57.2676H191.649V68H189.09ZM189.09 55.7051V53.5176H191.659V55.7051H189.09ZM199.803 66.2617C200.668 66.2617 201.319 65.946 201.756 65.3145C202.192 64.6829 202.41 63.778 202.41 62.5996C202.41 61.4082 202.192 60.5 201.756 59.875C201.319 59.25 200.662 58.9375 199.783 58.9375C198.917 58.9375 198.263 59.2533 197.82 59.8848C197.384 60.5098 197.166 61.418 197.166 62.6094C197.166 63.7812 197.387 64.6829 197.83 65.3145C198.273 65.946 198.93 66.2617 199.803 66.2617ZM199.734 68.2051C198.146 68.2051 196.896 67.6908 195.984 66.6621C195.073 65.6335 194.617 64.2793 194.617 62.5996C194.617 60.8678 195.073 59.5039 195.984 58.5078C196.896 57.5052 198.181 57.0039 199.842 57.0039C201.443 57.0039 202.696 57.515 203.601 58.5371C204.513 59.5527 204.969 60.9069 204.969 62.5996C204.969 64.3118 204.51 65.6758 203.592 66.6914C202.674 67.7005 201.388 68.2051 199.734 68.2051ZM212.623 68L217.887 53.6836H220.768L225.953 68H223.238L221.822 63.957H216.813L215.387 68H212.623ZM217.477 61.9844H221.149C219.977 58.2279 219.375 56.2878 219.342 56.1641L217.477 61.9844ZM228.033 68V57.2676H230.093L230.376 58.625C231.47 57.5443 232.684 57.0039 234.019 57.0039C235.269 57.0039 236.203 57.3652 236.822 58.0879C237.447 58.804 237.759 59.8457 237.759 61.2129V68H235.191V61.5254C235.184 60.6595 235.044 60.0117 234.771 59.582C234.497 59.1523 234.006 58.9375 233.296 58.9375C232.743 58.9375 232.235 59.0807 231.773 59.3672C231.317 59.6471 230.985 60.002 230.777 60.4316C230.653 60.9395 230.591 61.7207 230.591 62.7754V68H228.033ZM248.823 67.1602C247.97 67.8568 246.847 68.2051 245.454 68.2051C244.061 68.2051 242.937 67.8568 242.085 67.1602C241.238 66.4635 240.815 65.4414 240.815 64.0938V57.2676H243.383V63.9961C243.383 64.7969 243.549 65.3763 243.881 65.7344C244.22 66.0924 244.754 66.2715 245.483 66.2715C246.199 66.2715 246.72 66.0957 247.046 65.7441C247.378 65.3861 247.544 64.8034 247.544 63.9961V57.2676H250.102V64.0938C250.102 65.4349 249.676 66.457 248.823 67.1602ZM256.078 68.2051C255.082 68.2051 254.275 67.9316 253.656 67.3848C253.044 66.8314 252.738 66.0371 252.738 65.002C252.738 63.8887 253.103 63.0651 253.832 62.5312C254.561 61.9909 255.661 61.6491 257.133 61.5059C257.334 61.4798 257.553 61.4538 257.787 61.4277C258.021 61.4017 258.285 61.3757 258.578 61.3496C258.871 61.3236 259.102 61.3008 259.271 61.2812V60.7148C259.271 60.0638 259.122 59.5918 258.822 59.2988C258.523 58.9993 258.067 58.8496 257.455 58.8496C256.583 58.8496 255.505 59.0938 254.222 59.582C254.216 59.5625 254.109 59.2663 253.9 58.6934C253.692 58.1204 253.584 57.8275 253.578 57.8145C254.841 57.2741 256.208 57.0039 257.68 57.0039C259.125 57.0039 260.176 57.3197 260.834 57.9512C261.491 58.5762 261.82 59.5918 261.82 60.998V68H259.926C259.919 67.974 259.847 67.7559 259.711 67.3457C259.574 66.9355 259.506 66.7174 259.506 66.6914C258.972 67.2122 258.448 67.5964 257.933 67.8438C257.426 68.0846 256.807 68.2051 256.078 68.2051ZM256.771 66.3887C257.364 66.3887 257.878 66.2487 258.314 65.9688C258.757 65.6823 259.073 65.3372 259.262 64.9336V62.8633C259.242 62.8633 259.069 62.8763 258.744 62.9023C258.425 62.9284 258.252 62.9414 258.226 62.9414C257.191 63.0326 256.433 63.2279 255.951 63.5273C255.469 63.8268 255.228 64.3086 255.228 64.9727C255.228 65.4284 255.362 65.7799 255.629 66.0273C255.896 66.2682 256.277 66.3887 256.771 66.3887ZM268.958 68.1465C268.222 68.1465 267.61 68.0618 267.122 67.8926C266.64 67.7168 266.259 67.4401 265.98 67.0625C265.7 66.6849 265.504 66.2357 265.394 65.7148C265.283 65.194 265.228 64.5462 265.228 63.7715V53.3125L267.786 53.1465V63.7227C267.786 64.6862 267.9 65.3405 268.128 65.6855C268.356 66.0241 268.799 66.1934 269.456 66.1934C269.782 66.1934 270.195 66.1576 270.696 66.0859L270.765 67.9121C270.758 67.9121 270.677 67.9284 270.521 67.9609C270.371 67.9935 270.224 68.0195 270.081 68.0391C269.944 68.0651 269.769 68.0879 269.554 68.1074C269.339 68.1335 269.14 68.1465 268.958 68.1465ZM278.458 68L278.4 65.8906L282.921 60.7734C283.481 60.1745 283.888 59.6243 284.142 59.123C284.402 58.6152 284.533 58.0814 284.533 57.5215C284.533 56.903 284.331 56.4115 283.927 56.0469C283.524 55.6758 282.993 55.4902 282.335 55.4902C281.73 55.4902 281.131 55.6042 280.538 55.832C279.953 56.0534 279.471 56.3333 279.093 56.6719L278.361 54.7383C279.337 53.8789 280.711 53.4492 282.482 53.4492C283.888 53.4492 285.018 53.804 285.871 54.5137C286.73 55.2168 287.16 56.2129 287.16 57.502C287.16 58.4134 286.915 59.2826 286.427 60.1094C285.945 60.9362 285.285 61.7858 284.445 62.6582L281.222 66.0762H286.994L286.818 68H278.458ZM293.721 65.7246C294.092 66.0241 294.538 66.1738 295.059 66.1738C295.58 66.1738 296.023 66.0241 296.387 65.7246C296.758 65.4251 297.038 65.0117 297.227 64.4844C297.422 63.9505 297.562 63.3841 297.647 62.7852C297.732 62.1797 297.774 61.5091 297.774 60.7734C297.774 57.2448 296.869 55.4805 295.059 55.4805C293.262 55.4805 292.351 57.2318 292.325 60.7344C292.325 61.4766 292.367 62.1504 292.452 62.7559C292.536 63.3613 292.676 63.9342 292.872 64.4746C293.067 65.0085 293.35 65.4251 293.721 65.7246ZM297.139 67.8145C296.527 68.0749 295.834 68.2051 295.059 68.2051C294.284 68.2051 293.588 68.0749 292.969 67.8145C292.351 67.5475 291.84 67.1895 291.436 66.7402C291.033 66.2845 290.694 65.7409 290.421 65.1094C290.154 64.4779 289.962 63.8105 289.844 63.1074C289.734 62.4043 289.678 61.6523 289.678 60.8516C289.678 60.0378 289.737 59.276 289.854 58.5664C289.971 57.8503 290.167 57.1764 290.44 56.5449C290.714 55.9069 291.052 55.3633 291.456 54.9141C291.866 54.4648 292.377 54.11 292.989 53.8496C293.601 53.5827 294.291 53.4492 295.059 53.4492C295.827 53.4492 296.518 53.5827 297.13 53.8496C297.741 54.11 298.249 54.4681 298.653 54.9238C299.057 55.373 299.392 55.9167 299.659 56.5547C299.932 57.1862 300.128 57.8568 300.245 58.5664C300.362 59.276 300.421 60.0378 300.421 60.8516C300.421 61.6523 300.362 62.4043 300.245 63.1074C300.134 63.8105 299.945 64.4811 299.678 65.1191C299.411 65.7507 299.076 66.291 298.672 66.7402C298.269 67.1895 297.758 67.5475 297.139 67.8145ZM303.008 68L302.949 65.8906L307.471 60.7734C308.03 60.1745 308.437 59.6243 308.691 59.123C308.952 58.6152 309.082 58.0814 309.082 57.5215C309.082 56.903 308.88 56.4115 308.476 56.0469C308.073 55.6758 307.542 55.4902 306.885 55.4902C306.279 55.4902 305.68 55.6042 305.088 55.832C304.502 56.0534 304.02 56.3333 303.642 56.6719L302.91 54.7383C303.887 53.8789 305.26 53.4492 307.031 53.4492C308.437 53.4492 309.567 53.804 310.42 54.5137C311.279 55.2168 311.709 56.2129 311.709 57.502C311.709 58.4134 311.465 59.2826 310.976 60.1094C310.495 60.9362 309.834 61.7858 308.994 62.6582L305.771 66.0762H311.543L311.367 68H303.008ZM320.624 68V64.8262H314.169V63.0879L319.96 53.7617H323.212V62.8926H324.97L324.843 64.8262H323.212V68H320.624ZM316.708 62.9023H320.624V56.2617L316.708 62.9023Z" fill="white"/>
<path d="M43 56.753L31.3719 45.1281L33.6981 42.7624L41.3571 50.4214V22H44.6429V50.4214L52.2986 42.7657L54.6281 45.1281L43 56.753ZM25.3097 68C23.7961 68 22.5333 67.494 21.5213 66.482C20.5093 65.47 20.0022 64.2061 20 62.6903V54.729H23.2857V62.6903C23.2857 63.1963 23.496 63.6607 23.9166 64.0834C24.3371 64.5062 24.8004 64.7165 25.3064 64.7143H60.6936C61.1974 64.7143 61.6607 64.504 62.0834 64.0834C62.5062 63.6629 62.7165 63.1985 62.7143 62.6903V54.729H66V62.6903C66 64.2039 65.494 65.4667 64.482 66.4787C63.47 67.4907 62.2061 67.9978 60.6903 68H25.3097Z" fill="white"/>
</svg>
