<svg width="1366" height="895" viewBox="0 0 1366 895" fill="none" xmlns="http://www.w3.org/2000/svg">
<path d="M-26 162.202C219.747 54.9149 626.26 -15.4084 1111.02 3.9468L1111.08 3.95657C1227.5 8.60472 1325.03 21.6593 1406 41.6294V895.001H-26V162.202Z" fill="#F58436"/>
<text fill="white" xml:space="preserve" style="white-space: pre" font-family="Oxygen" font-size="25" font-weight="300" letter-spacing="0.04em"><tspan x="129" y="260.888">Expans&#xe3;o de</tspan></text>
<text fill="white" xml:space="preserve" style="white-space: pre" font-family="Oxygen" font-size="25" font-weight="300" letter-spacing="0.04em"><tspan x="129" y="379.888">na principal unidade de </tspan><tspan x="129" y="411.888">neg&#xf3;cios (energia)</tspan></text>
<text fill="white" xml:space="preserve" style="white-space: pre" font-family="Oxygen" font-size="55" font-weight="bold" letter-spacing="0em"><tspan x="129" y="329.253">52%</tspan></text>
<text fill="white" xml:space="preserve" style="white-space: pre" font-family="Oxygen" font-size="25" font-weight="300" letter-spacing="0.04em"><tspan x="509" y="260.888">Frota com</tspan></text>
<text fill="white" xml:space="preserve" style="white-space: pre" font-family="Oxygen" font-size="25" font-weight="300" letter-spacing="0.04em"><tspan x="509" y="379.888">plataformas 100% el&#xe9;tricas </tspan><tspan x="509" y="411.888">para trabalho em altura</tspan></text>
<text fill="white" xml:space="preserve" style="white-space: pre" font-family="Oxygen" font-size="55" font-weight="bold" letter-spacing="0em"><tspan x="509" y="329.253">2.400</tspan></text>
<text fill="white" xml:space="preserve" style="white-space: pre" font-family="Oxygen" font-size="25" font-weight="300" letter-spacing="0.04em"><tspan x="889" y="260.888">Presen&#xe7;a nacional:</tspan></text>
<text fill="white" xml:space="preserve" style="white-space: pre" font-family="Oxygen" font-size="25" font-weight="300" letter-spacing="0.04em"><tspan x="889" y="379.888">filiais e pontos de </tspan><tspan x="889" y="411.888">atendimento ativos</tspan></text>
<text fill="white" xml:space="preserve" style="white-space: pre" font-family="Oxygen" font-size="55" font-weight="bold" letter-spacing="0em"><tspan x="889" y="329.253">25</tspan></text>
<text fill="white" xml:space="preserve" style="white-space: pre" font-family="Oxygen" font-size="25" font-weight="300" letter-spacing="0.04em"><tspan x="129" y="616.888">Consolida&#xe7;&#xe3;o do</tspan></text>
<text fill="white" xml:space="preserve" style="white-space: pre" font-family="Oxygen" font-size="35" font-weight="bold" letter-spacing="0em"><tspan x="129" y="668.843">Centro de Controle </tspan><tspan x="129" y="718.843">Operacional (CCO)</tspan></text>
<text fill="white" xml:space="preserve" style="white-space: pre" font-family="Oxygen" font-size="25" font-weight="300" letter-spacing="0.04em"><tspan x="509" y="616.888">Mais de</tspan></text>
<text fill="white" xml:space="preserve" style="white-space: pre" font-family="Oxygen" font-size="25" font-weight="300" letter-spacing="0.04em"><tspan x="509" y="735.888">horas em opera&#xe7;&#xe3;o </tspan><tspan x="509" y="767.888">registradas</tspan></text>
<text fill="white" xml:space="preserve" style="white-space: pre" font-family="Oxygen" font-size="55" font-weight="bold" letter-spacing="0em"><tspan x="509" y="685.253">8.700</tspan></text>
<path d="M157.528 147.192C157.506 144.314 154.76 142.376 152.203 142.376H150.863V139.897C150.863 139.41 150.465 139 149.978 139H141.886C141.399 139 141 139.399 141 139.897V142.376H139.616C136.694 142.376 134.579 144.402 134.557 147.192H134.325C132.31 147.192 130.727 147.878 129.742 149.173C129 150.004 129 150.878 129 151.454V197.45C129 197.45 129 197.528 129 197.572C129.332 199.974 131.923 202.255 134.314 202.255H157.472C160.306 202.255 162 199.509 162 196.863V151.454C162 148.797 160.317 147.203 157.517 147.192M160.251 196.863C160.251 198.601 159.188 200.472 157.483 200.472H134.325C132.852 200.472 131.004 198.867 130.76 197.384V151.454C130.76 150.934 130.771 150.668 131.059 150.347C131.081 150.325 131.092 150.303 131.114 150.28C131.923 149.196 133.306 148.974 134.325 148.974H135.443C135.93 148.974 136.328 148.576 136.328 148.089V147.236C136.328 145.432 137.679 144.17 139.627 144.17H141.897C142.384 144.17 142.782 143.771 142.782 143.284V140.804H149.103V143.284C149.103 143.782 149.502 144.17 149.989 144.17H152.214C153.875 144.17 155.723 145.443 155.779 147.17C155.779 147.192 155.756 147.225 155.745 147.247C155.657 147.435 155.513 147.723 155.513 148.1C155.513 148.587 155.911 148.985 156.399 148.985H157.506C159.343 148.985 160.273 149.815 160.273 151.465V196.875L160.251 196.863Z" fill="white"/>
<path d="M145.838 169.133L146.325 168.458L148.428 160.476L145.173 164.937L143.059 167.262L142.362 168.236L141.697 169.133L139.362 172.21H142.129H143.059H144.244H145.173L142.616 181.133L143.989 179.262L144.686 178.321L150.509 170.782L151.649 169.133H147.731H145.838Z" fill="white"/>
<path d="M528.13 166.134H533.197L521.545 181.113L524.838 169.964H517.346L529.038 155.31L526.314 165.278L526.084 166.12H528.13V166.134ZM567.297 171.946C567.297 172.381 566.931 172.748 566.484 172.748H541.217C540.77 172.748 540.404 172.394 540.404 171.946C540.404 171.498 540.77 171.145 541.217 171.145H566.484C566.931 171.145 567.297 171.498 567.297 171.946ZM566.484 163.35H541.217C540.77 163.35 540.404 163.703 540.404 164.151C540.404 164.599 540.77 164.952 541.217 164.952H566.484C566.931 164.952 567.297 164.599 567.297 164.151C567.297 163.703 566.931 163.35 566.484 163.35ZM567.297 156.342C567.297 156.79 566.931 157.144 566.484 157.144H541.217C540.77 157.144 540.404 156.79 540.404 156.342C540.404 155.894 540.77 155.541 541.217 155.541H566.484C566.931 155.541 567.297 155.894 567.297 156.342ZM576.388 184.454C576.388 186.953 574.762 189.126 572.337 189.859L571.958 189.968L571.903 189.587C571.212 184.047 566.389 179.877 560.699 179.877C555.009 179.877 550.037 184.169 549.468 189.845L549.441 190.131H516.424C513.227 190.131 510.612 187.577 510.612 184.44V151.888C510.612 148.751 513.213 146.198 516.424 146.198H570.562C573.759 146.198 576.374 148.751 576.374 151.888V184.44L576.388 184.454ZM560.713 200.397C555.402 200.397 551.067 196.174 551.053 190.973V190.918C551.067 185.717 555.402 181.493 560.713 181.493C566.024 181.493 570.372 185.731 570.372 190.959C570.372 196.188 566.037 200.425 560.713 200.425M522.765 200.397H518.009V191.733H524.201L522.765 200.397ZM523.632 143.278C523.632 141.798 524.865 140.589 526.369 140.589H559.642C561.146 140.589 562.379 141.798 562.379 143.278V144.609H523.618V143.278H523.632ZM570.576 144.609H564.018V143.278C564.018 140.915 562.054 139 559.642 139H526.369C523.957 139 521.993 140.915 521.993 143.278V144.609H516.438C512.333 144.609 509 147.882 509 151.901V184.454C509 188.338 512.102 191.529 516.059 191.72H516.37V201.199C516.37 201.647 516.736 202 517.183 202H523.456C523.862 202 524.201 201.715 524.255 201.321L525.84 191.733H549.441L549.468 192.018C550.037 197.709 554.874 201.986 560.699 201.986C566.525 201.986 571.47 197.518 571.944 191.815V191.584L572.201 191.529C575.616 190.796 578 187.876 578 184.44V151.888C578 147.868 574.667 144.595 570.562 144.595" fill="white"/>
<path d="M916.506 152.401C912.818 152.401 909.826 155.399 909.826 159.095C909.826 162.791 912.818 165.79 916.506 165.79C920.195 165.79 923.186 162.791 923.186 159.095C923.186 155.399 920.195 152.401 916.506 152.401ZM916.506 167.625C911.812 167.625 907.995 163.799 907.995 159.095C907.995 154.391 911.812 150.566 916.506 150.566C921.2 150.566 925.018 154.391 925.018 159.095C925.018 163.799 921.2 167.625 916.506 167.625ZM916.506 140.861C906.538 140.861 898.44 149.041 898.44 159.095C898.44 162.934 899.626 166.617 901.883 169.718L901.909 169.757L916.506 192.708L925.675 178.286C930.292 171.023 931.13 169.718 931.22 169.576L931.259 169.524C933.438 166.436 934.573 162.83 934.573 159.082C934.573 149.028 926.462 140.848 916.506 140.848M907.815 183.507C896.157 184.954 890.844 188.702 890.844 191.571C890.844 193.729 893.475 195.849 898.246 197.503C903.159 199.209 909.646 200.165 916.506 200.165C931.852 200.165 942.169 195.719 942.169 191.571C942.169 188.702 936.856 184.954 925.198 183.507L924.579 183.43L917.267 194.918C917.1 195.19 916.803 195.345 916.494 195.345C916.184 195.345 915.887 195.19 915.72 194.918L908.408 183.43L907.789 183.507H907.815ZM916.506 202C909.298 202 902.515 200.992 897.395 199.157C891.902 197.193 889 194.569 889 191.558C889 186.35 897.692 183.158 905.829 181.905L907.312 181.672L900.374 170.752V170.726C897.898 167.314 896.596 163.282 896.596 159.07C896.596 147.994 905.519 139 916.506 139C927.494 139 936.417 148.007 936.417 159.07C936.417 163.218 935.154 167.198 932.755 170.584C932.703 170.653 931.96 171.816 930.524 174.073L925.688 181.672L927.171 181.905C935.308 183.158 944 186.35 944 191.558C944 198.084 930.021 201.987 916.494 201.987" fill="white"/>
<path d="M517.274 517.07C517.125 516.796 517.125 516.456 517.283 516.192L523.402 505.813C523.56 505.549 523.839 505.388 524.145 505.388C524.451 505.388 524.73 505.549 524.888 505.813L531.007 516.192C531.165 516.466 531.174 516.796 531.016 517.07C530.868 517.344 530.58 517.514 530.264 517.514H528.064V519.752C528.064 520.234 527.674 520.631 527.2 520.631C526.726 520.631 526.336 520.234 526.336 519.752V516.636C526.336 516.154 526.726 515.758 527.2 515.758H528.741L524.136 507.957L519.539 515.758H521.081C521.554 515.758 521.944 516.154 521.944 516.636V522.869C521.944 523.35 521.554 523.747 521.081 523.747C520.607 523.747 520.217 523.35 520.217 522.869V517.514H518.016C517.71 517.514 517.422 517.344 517.264 517.07M552.726 517.514H554.927V519.752C554.927 520.234 555.317 520.631 555.791 520.631C556.264 520.631 556.654 520.234 556.654 519.752V516.636C556.654 516.154 556.274 515.758 555.791 515.758H554.249L558.855 507.957L563.461 515.758H561.919C561.446 515.758 561.056 516.154 561.056 516.636V522.869C561.056 523.35 561.446 523.747 561.919 523.747C562.393 523.747 562.783 523.35 562.783 522.869V517.514H564.984C565.29 517.514 565.578 517.344 565.736 517.07C565.884 516.796 565.884 516.456 565.726 516.192L559.607 505.813C559.449 505.549 559.171 505.388 558.864 505.388C558.558 505.388 558.279 505.549 558.121 505.813L552.002 516.192C551.844 516.466 551.835 516.796 551.993 517.07C552.141 517.344 552.429 517.514 552.745 517.514M532.586 509.799C532.437 509.525 532.437 509.185 532.604 508.911L540.766 495.416C540.924 495.151 541.203 495 541.5 495C541.797 495 542.076 495.161 542.234 495.416L550.396 508.911C550.563 509.185 550.563 509.525 550.414 509.799C550.266 510.072 549.978 510.252 549.662 510.252H546.44V516.636C546.44 517.118 546.05 517.514 545.576 517.514C545.103 517.514 544.713 517.118 544.713 516.636V509.374C544.713 508.892 545.103 508.495 545.576 508.495H548.111L541.491 497.55L534.87 508.495H537.405C537.879 508.495 538.269 508.892 538.269 509.374V516.636C538.269 517.118 537.879 517.514 537.405 517.514C536.931 517.514 536.541 517.118 536.541 516.636V510.252H533.319C533.004 510.252 532.716 510.082 532.567 509.799M522.028 543.815L520.143 543.022C519.706 542.833 519.196 543.05 519.019 543.494C518.834 543.938 519.047 544.458 519.484 544.637L521.369 545.43C521.48 545.477 521.591 545.496 521.694 545.496C522.028 545.496 522.353 545.289 522.492 544.958C522.678 544.514 522.464 543.995 522.028 543.815ZM551.278 531.246L550.498 533.163C550.359 533.503 550.043 533.701 549.699 533.701C549.588 533.701 549.476 533.682 549.374 533.635C548.938 533.446 548.724 532.936 548.91 532.492L549.69 530.575C549.876 530.131 550.377 529.914 550.814 530.103C551.25 530.292 551.464 530.802 551.278 531.246ZM563.981 543.494C563.795 543.05 563.294 542.833 562.857 543.022L560.972 543.815C560.536 544.004 560.322 544.514 560.508 544.958C560.647 545.298 560.963 545.496 561.306 545.496C561.418 545.496 561.529 545.477 561.631 545.43L563.516 544.637C563.953 544.448 564.166 543.938 563.981 543.494ZM534.099 532.492C534.285 532.936 534.071 533.455 533.635 533.635C533.524 533.682 533.412 533.701 533.31 533.701C532.976 533.701 532.651 533.493 532.511 533.163L531.731 531.246C531.546 530.802 531.759 530.282 532.196 530.103C532.632 529.914 533.143 530.131 533.319 530.575L534.099 532.492ZM525.51 535.467C525.176 535.127 524.628 535.127 524.294 535.467C523.959 535.807 523.959 536.364 524.294 536.704L525.733 538.177C525.9 538.347 526.123 538.432 526.346 538.432C526.569 538.432 526.791 538.347 526.959 538.177C527.293 537.837 527.293 537.28 526.959 536.94L525.519 535.476L525.51 535.467ZM542.364 529.092V531.17C542.364 531.652 541.974 532.048 541.5 532.048C541.026 532.048 540.636 531.652 540.636 531.17V529.092C540.636 528.611 541.026 528.214 541.5 528.214C541.974 528.214 542.364 528.601 542.364 529.092ZM563.516 531.113C568.744 536.562 572.05 543.938 572.264 552.088H569.896C569.441 536.553 556.877 524.068 541.5 524.068C526.123 524.068 513.559 536.562 513.104 552.088H510.736C511.191 535.231 524.823 521.669 541.5 521.669C550.117 521.669 557.917 525.286 563.516 531.113ZM541.5 556.243C539.726 556.243 538.278 554.77 538.278 552.966C538.278 551.163 539.726 549.689 541.5 549.689C543.274 549.689 544.722 551.153 544.722 552.957C544.722 554.77 543.274 556.234 541.5 556.234M545.549 550.086L558.706 536.704C559.041 536.364 559.041 535.807 558.706 535.467C558.372 535.127 557.824 535.127 557.49 535.467L544.332 548.849C543.534 548.273 542.559 547.942 541.5 547.942C539.067 547.942 537.043 549.737 536.634 552.098H514.831C515.286 537.535 527.07 525.825 541.5 525.825C555.93 525.825 567.714 537.535 568.169 552.098H546.366C546.236 551.361 545.957 550.681 545.549 550.095M541.5 519.913C523.579 519.913 509 534.74 509 552.966C509 553.448 509.39 553.845 509.864 553.845H536.634C537.043 556.196 539.067 558 541.5 558C543.933 558 545.957 556.206 546.366 553.845H573.136C573.61 553.845 574 553.448 574 552.966C574 534.74 559.421 519.913 541.5 519.913Z" fill="white"/>
<path d="M147.187 557.856C147.205 557.868 147.229 557.862 147.246 557.874C147.385 557.952 147.542 557.996 147.701 558C147.789 558 147.876 557.988 147.961 557.965L169.357 552.125L190.754 557.965C190.838 557.988 190.926 558 191.014 558C191.173 557.995 191.328 557.951 191.466 557.872C191.486 557.862 191.508 557.866 191.525 557.854L209.244 547.026C209.427 546.914 209.569 546.745 209.647 546.545C209.725 546.345 209.736 546.125 209.677 545.918L199.865 511.465C199.824 511.322 199.752 511.189 199.653 511.078C199.554 510.967 199.431 510.88 199.294 510.823C199.156 510.766 199.007 510.741 198.859 510.75C198.71 510.759 198.565 510.801 198.436 510.874L188.667 516.355C188.453 516.49 188.299 516.702 188.237 516.948C188.175 517.193 188.21 517.453 188.334 517.673C188.458 517.894 188.662 518.058 188.904 518.132C189.146 518.206 189.407 518.185 189.633 518.072L198.314 513.199L207.58 545.735L191.801 555.38L188.053 525.394C188.02 525.134 187.886 524.899 187.68 524.738C187.474 524.578 187.212 524.506 186.953 524.538C186.694 524.571 186.458 524.705 186.298 524.911C186.137 525.117 186.065 525.379 186.098 525.638L189.852 555.679L170.342 550.353V544.979C170.342 544.718 170.238 544.467 170.053 544.283C169.869 544.098 169.618 543.994 169.357 543.994C169.096 543.994 168.846 544.098 168.661 544.283C168.477 544.467 168.373 544.718 168.373 544.979V550.353L148.861 555.679L152.615 525.638C152.631 525.509 152.622 525.379 152.587 525.254C152.553 525.13 152.495 525.013 152.415 524.911C152.336 524.809 152.237 524.723 152.124 524.659C152.012 524.595 151.888 524.554 151.76 524.538C151.631 524.522 151.501 524.532 151.376 524.566C151.252 524.6 151.135 524.659 151.033 524.738C150.931 524.818 150.845 524.916 150.781 525.029C150.717 525.141 150.676 525.265 150.66 525.394L146.914 555.38L131.134 545.737L140.401 513.203L149.081 518.076C149.308 518.189 149.569 518.21 149.811 518.136C150.053 518.062 150.257 517.898 150.381 517.677C150.505 517.457 150.54 517.197 150.478 516.952C150.416 516.706 150.262 516.494 150.048 516.359L140.277 510.876C140.148 510.802 140.003 510.759 139.854 510.749C139.705 510.74 139.556 510.764 139.418 510.821C139.281 510.878 139.158 510.966 139.059 511.078C138.961 511.19 138.889 511.323 138.85 511.467L129.037 545.92C128.979 546.127 128.989 546.347 129.068 546.547C129.146 546.747 129.287 546.916 129.471 547.028L147.187 557.856Z" fill="white"/>
<path d="M168.69 541.006C168.871 541.172 169.107 541.266 169.353 541.267C169.599 541.268 169.837 541.177 170.019 541.012C170.674 540.415 186.092 526.268 186.092 511.734C186.092 502.349 178.742 495 169.357 495C159.972 495 152.623 502.349 152.623 511.734C152.623 526.016 168.034 540.399 168.69 541.006ZM169.357 496.969C177.774 496.969 184.123 503.316 184.123 511.734C184.123 523.738 172.324 536.023 169.363 538.917C166.408 535.989 154.592 523.543 154.592 511.734C154.592 503.316 160.941 496.969 169.357 496.969Z" fill="white"/>
<path d="M178.217 511.734C178.217 506.85 174.242 502.875 169.357 502.875C164.473 502.875 160.498 506.85 160.498 511.734C160.498 516.619 164.473 520.594 169.357 520.594C174.242 520.594 178.217 516.619 178.217 511.734ZM169.357 518.625C165.558 518.625 162.467 515.534 162.467 511.734C162.467 507.935 165.558 504.844 169.357 504.844C173.157 504.844 176.248 507.935 176.248 511.734C176.248 515.534 173.157 518.625 169.357 518.625Z" fill="white"/>
<rect x="890" y="695" width="346" height="78" rx="14" fill="white" stroke="white" stroke-width="2"/>
<text fill="#F58436" xml:space="preserve" style="white-space: pre" font-family="Oxygen" font-size="20" font-weight="bold" letter-spacing="0.04em"><tspan x="969" y="726.91">Clique para ler a &#xed;ntegra </tspan><tspan x="969" y="756.91">do Relat&#xf3;rio Anual 2024</tspan></text>
<path d="M933 745.753L921.372 734.128L923.698 731.762L931.357 739.421V711H934.643V739.421L942.299 731.766L944.628 734.128L933 745.753ZM915.31 757C913.796 757 912.533 756.494 911.521 755.482C910.509 754.47 910.002 753.206 910 751.69V743.729H913.286V751.69C913.286 752.196 913.496 752.661 913.917 753.083C914.337 753.506 914.8 753.716 915.306 753.714H950.694C951.197 753.714 951.661 753.504 952.083 753.083C952.506 752.663 952.716 752.198 952.714 751.69V743.729H956V751.69C956 753.204 955.494 754.467 954.482 755.479C953.47 756.491 952.206 756.998 950.69 757H915.31Z" fill="#F58436"/>
</svg>
