<svg width="638" height="385" viewBox="0 0 638 385" fill="none" xmlns="http://www.w3.org/2000/svg">
<rect x="70" y="222" width="568" height="163" rx="25" fill="#F58436"/>
<path d="M50.1028 219.091C65.2366 209.097 82.2973 204.936 97.7566 214.256C112.012 222.854 120.84 238.208 127.826 253.653C131.28 261.297 134.358 269.65 135.556 277.886C136.716 285.857 136.108 293.658 132.436 300.596L132.071 301.265C127.725 309.006 120.492 313.898 112.003 317.153C103.504 320.411 93.8332 321.994 84.7276 323.169C72.2762 324.768 59.8237 326.359 47.5499 324.698C35.478 323.064 23.5288 317.918 16.127 308.504L15.7782 308.053L15.2903 307.396C5.25371 293.514 6.75124 273.488 14.938 258.048L14.9564 258.027L15.0017 257.942C22.0082 244.771 34.9732 229.083 50.1028 219.091Z" fill="white" stroke="#F58436" stroke-width="2"/>
<rect x="70" y="21" width="568" height="163" rx="25" fill="#F58436"/>
<text fill="white" xml:space="preserve" style="white-space: pre" font-family="Oxygen" font-size="18" letter-spacing="0.04em"><tspan x="165" y="84.1191">A materialidade de impacto (olhar de dentro </tspan><tspan x="165" y="110.119">para fora) &#x2013; avalia como a Tecnogera pode </tspan><tspan x="165" y="136.119">impactar o meio ambiente e a sociedade</tspan></text>
<text fill="white" xml:space="preserve" style="white-space: pre" font-family="Oxygen" font-size="18" letter-spacing="0.04em"><tspan x="165" y="271.119">A materialidade financeira (olhar de fora para </tspan><tspan x="165" y="297.119">dentro) &#x2013; aborda como os aspectos </tspan><tspan x="165" y="323.119">socioambientais podem influenciar as </tspan><tspan x="165" y="349.119">atividades da empresa.&#xa0;</tspan></text>
<path d="M50.1028 17.0914C65.2366 7.09737 82.2973 2.93554 97.7566 12.2563C112.012 20.8542 120.84 36.2084 127.826 51.6527C131.28 59.2969 134.358 67.6501 135.556 75.8857C136.716 83.8575 136.108 91.658 132.436 98.5964L132.071 99.2652C127.725 107.006 120.492 111.898 112.003 115.153C103.504 118.411 93.8332 119.994 84.7276 121.169C72.2762 122.768 59.8237 124.359 47.5499 122.698C35.478 121.064 23.5288 115.918 16.127 106.504L15.7782 106.053L15.2903 105.396C5.25371 91.5144 6.75124 71.4881 14.938 56.0483L14.9564 56.0268L15.0017 55.9416C22.0082 42.7707 34.9732 27.0828 50.1028 17.0914Z" fill="white" stroke="#F58436" stroke-width="2"/>
<path d="M75.4932 38.7002C81.1648 37.7407 86.5481 37.6561 90.5117 37.8115C92.4938 37.8893 94.1223 38.0272 95.2559 38.1455C95.8225 38.2047 96.2655 38.2592 96.5674 38.2988C96.7181 38.3186 96.834 38.3345 96.9121 38.3457C96.9509 38.3513 96.9809 38.3554 97.001 38.3584L97.0303 38.3633H97.0312C97.3049 38.404 97.5241 38.597 97.6084 38.8525L97.6367 38.9668V38.9697L97.6416 38.999C97.6446 39.0191 97.6487 39.0491 97.6543 39.0879C97.6655 39.166 97.6814 39.2819 97.7012 39.4326C97.7408 39.7345 97.7953 40.1775 97.8545 40.7441C97.9728 41.8777 98.1107 43.5061 98.1885 45.4883C98.3439 49.4519 98.2593 54.8351 97.2998 60.5068C96.0155 68.1057 93.1532 76.2392 87.1943 82.1943C81.2388 88.1499 73.1053 91.012 65.5068 92.2998C59.8352 93.2593 54.4519 93.3439 50.4883 93.1885C48.5062 93.1107 46.8777 92.9728 45.7441 92.8545C45.1775 92.7953 44.7345 92.7408 44.4326 92.7012C44.2819 92.6814 44.166 92.6655 44.0879 92.6543C44.0491 92.6487 44.0191 92.6446 43.999 92.6416L43.9697 92.6367H43.9678L43.9648 92.6357C43.8179 92.6112 43.6791 92.5463 43.5664 92.4336C43.4576 92.3248 43.3835 92.1855 43.3623 92.0273C43.3622 92.0265 43.3625 92.0255 43.3623 92.0244C43.3615 92.0193 43.3599 92.011 43.3584 92.001C43.3554 91.9809 43.3513 91.9509 43.3457 91.9121C43.3345 91.834 43.3186 91.7181 43.2988 91.5674C43.2592 91.2655 43.2047 90.8225 43.1455 90.2559C43.0272 89.1223 42.8893 87.4939 42.8115 85.5117C42.6561 81.5481 42.7407 76.1649 43.7002 70.4932C44.9845 62.8942 47.8502 54.7607 53.8057 48.8057C59.7612 42.8506 67.8947 39.988 75.4932 38.7002ZM96.2734 39.7227C94.0647 39.4379 85.3104 38.5061 75.7295 40.127C68.368 41.3727 60.5341 44.1181 54.8242 49.8271C49.1148 55.5365 46.3691 63.3708 45.124 70.7324C43.6743 79.2999 44.2674 87.2017 44.6113 90.3604L55.0479 79.9229L55.4883 63.0859C55.4984 62.6858 55.8284 62.3698 56.2295 62.3799C56.6274 62.3901 56.9418 62.722 56.9316 63.1221L56.5322 78.4355L66.4717 68.4961L66.5879 51.335V51.334C66.5929 50.9359 66.9166 50.6132 67.3164 50.6182C67.7093 50.6232 68.0353 50.9446 68.0312 51.3447L67.9268 67.0381L80.0518 54.9131L80.3945 46.0918L80.415 45.9463C80.4949 45.6185 80.7954 45.3824 81.1455 45.3955C81.5418 45.4108 81.857 45.746 81.8418 46.1475L81.5605 53.4072L87.1592 47.8096C87.4397 47.5291 87.9012 47.5291 88.1816 47.8096C88.4618 48.09 88.4619 48.5507 88.1816 48.8311L82.5898 54.4209L89.8438 54.1523C90.2459 54.1373 90.5764 54.4492 90.5918 54.8477C90.6052 55.196 90.3682 55.4965 90.041 55.5762L89.8955 55.5957L81.0859 55.9248L68.9473 68.0635L84.6416 67.959H84.6426C85.0389 67.959 85.3667 68.2753 85.3682 68.6748L85.3652 68.749C85.3321 69.1162 85.023 69.4019 84.6504 69.4023L67.4893 69.5186L57.5498 79.458L72.8643 79.0557L73.0117 79.0664C73.3436 79.1257 73.5976 79.4117 73.6064 79.7617C73.6163 80.1627 73.3004 80.4928 72.9004 80.5029L56.0625 80.9424L45.6211 91.3838C48.7696 91.7278 56.6856 92.3282 65.2637 90.873L65.9561 90.752C73.1163 89.453 80.6375 86.7033 86.1689 81.1729C91.8784 75.4634 94.625 67.6293 95.8701 60.2676C97.4913 50.6821 96.5581 41.9299 96.2734 39.7227Z" fill="#F58436" stroke="#F58436" stroke-width="0.5"/>
<mask id="path-8-outside-1_339_114" maskUnits="userSpaceOnUse" x="45" y="238" width="51" height="60" fill="black">
<rect fill="white" x="45" y="238" width="51" height="60"/>
<path d="M51.1658 295.502H59.4033V274.431H51.1658V295.502ZM66.5237 295.566H74.7611V276.042H66.5237V295.566ZM81.9246 295.566H90.162V265.474H81.9246V295.566ZM46.7518 297.07C46.3329 297.07 46 296.737 46 296.318C46 295.899 46.3329 295.566 46.7518 295.566H49.673V273.743C49.673 273.324 50.0059 272.991 50.4248 272.991H60.1013C60.5202 272.991 60.8531 273.324 60.8531 273.743V295.566H65.0846V275.29C65.0846 274.871 65.4175 274.538 65.8364 274.538H75.4485C75.8673 274.538 76.2003 274.871 76.2003 275.29V295.566H80.4317V264.786C80.4317 264.367 80.7647 264.034 81.1835 264.034H90.8601C91.2789 264.034 91.6119 264.367 91.6119 264.786V295.566H94.5653C94.909 295.566 95.3171 295.899 95.3171 296.318C95.3171 296.737 94.9841 297.07 94.5653 297.07H46.7625H46.7518ZM69.8638 269.243L80.9795 260.458C81.3017 260.211 81.3554 259.771 81.0976 259.416C80.958 259.234 80.7647 259.137 80.5391 259.137C80.3673 259.137 80.2062 259.191 80.0666 259.298L69.2839 267.836L55.3973 262.037C55.2792 261.994 55.161 261.972 55.0536 261.972C54.914 261.972 54.7851 262.015 54.667 262.112L50.1456 265.312C49.8019 265.57 49.7267 266.021 49.9845 266.376C50.1026 266.569 50.3604 266.633 50.5429 266.633C50.704 266.633 50.8222 266.601 50.951 266.515L55.1503 263.508L69.0905 269.308C69.2087 269.351 69.3375 269.372 69.4557 269.372C69.6168 269.372 69.7564 269.329 69.8638 269.243ZM86.0164 240.568C81.7205 240.568 78.2301 244.058 78.2301 248.354C78.2301 252.65 81.7205 256.141 86.0164 256.141C90.3123 256.141 93.8028 252.65 93.8028 248.354C93.8028 244.058 90.3123 240.568 86.0164 240.568ZM86.0164 257.591C80.8936 257.591 76.7265 253.445 76.7265 248.354C76.7265 243.264 80.8936 239 86.0164 239C91.1393 239 95.3063 243.167 95.3063 248.29C95.3063 253.413 91.1393 257.58 86.0164 257.58M83.7718 253.101C83.5892 253.037 83.4711 252.983 83.353 252.919L83.1704 252.801V252.564L83.2885 251.426L83.353 251.007L83.7074 251.19C83.7718 251.19 83.8255 251.243 83.89 251.243C83.9544 251.243 84.0081 251.308 84.0725 251.308C84.1907 251.372 84.3732 251.426 84.4914 251.426C84.6095 251.49 84.7921 251.49 84.9102 251.544C85.0284 251.544 85.1465 251.609 85.2646 251.609C85.3828 251.609 85.5009 251.609 85.6191 251.662H86.0916C86.2097 251.662 86.3279 251.662 86.3923 251.609C86.5105 251.609 86.5749 251.544 86.693 251.49C86.8112 251.426 86.8756 251.372 86.9293 251.308C86.9938 251.243 87.0474 251.19 87.1119 251.072C87.1763 251.018 87.1763 250.889 87.23 250.835V250.535C87.23 250.416 87.23 250.352 87.1763 250.234C87.1119 250.169 87.1119 250.051 87.0582 249.998L86.8756 249.815C86.8112 249.751 86.7575 249.697 86.6393 249.632C86.5856 249.568 86.4568 249.514 86.4031 249.514C86.3386 249.45 86.2205 249.45 86.1023 249.396C85.9198 249.342 85.7479 249.278 85.5654 249.16C85.3828 249.095 85.2109 248.977 85.0284 248.924C84.8458 248.859 84.674 248.741 84.5451 248.623C84.4269 248.505 84.2444 248.44 84.1262 248.268L83.7718 247.914C83.6537 247.796 83.5892 247.613 83.4711 247.495C83.4067 247.313 83.353 247.141 83.2885 246.958C83.2348 246.776 83.2348 246.604 83.2348 246.421C83.2348 246.185 83.2348 246.002 83.2885 245.766C83.353 245.583 83.4067 245.347 83.4711 245.165C83.5355 244.982 83.6537 244.81 83.7718 244.628C83.89 244.445 84.0081 244.327 84.1907 244.144C84.3732 244.026 84.4914 243.908 84.674 243.79C84.8565 243.672 85.0284 243.607 85.2109 243.554H85.2646V242.243H86.8219V243.5H86.94C87.0582 243.5 87.1226 243.564 87.2408 243.564C87.3589 243.564 87.477 243.618 87.5415 243.618C87.6059 243.618 87.7241 243.683 87.7778 243.683C87.8315 243.683 87.8959 243.736 88.014 243.736L88.2503 243.801L88.1859 244.037L88.0677 245.111L88.0033 245.465L87.6489 245.347C87.5844 245.347 87.5307 245.283 87.4126 245.283C87.3482 245.283 87.2945 245.218 87.1763 245.218C87.0582 245.218 86.94 245.154 86.8219 245.154C86.7038 245.154 86.5856 245.089 86.4675 245.089H85.9949C85.8768 245.089 85.7587 245.089 85.6405 245.154C85.5224 245.218 85.458 245.218 85.3398 245.272C85.2754 245.336 85.1572 245.39 85.1035 245.455C85.0498 245.519 84.9854 245.637 84.9854 245.691C84.921 245.755 84.921 245.873 84.921 245.992V246.292C84.921 246.41 84.9854 246.475 84.9854 246.593C85.0498 246.647 85.0498 246.776 85.1035 246.829C85.168 246.894 85.2217 246.947 85.2861 247.012C85.3506 247.076 85.4687 247.13 85.5224 247.194C85.5868 247.248 85.705 247.248 85.7587 247.313C85.8768 247.377 85.9412 247.377 86.0594 247.431C86.242 247.495 86.4138 247.549 86.5964 247.667C86.7789 247.731 86.9508 247.85 87.1334 247.903C87.3159 247.957 87.4341 248.086 87.6167 248.204C87.7992 248.322 87.9174 248.44 88.0355 248.558C88.1536 248.677 88.2718 248.795 88.3899 248.913C88.5081 249.031 88.5725 249.214 88.6262 249.332C88.6906 249.514 88.7443 249.686 88.8088 249.815C88.8732 249.998 88.8732 250.169 88.8732 250.352C88.8732 250.588 88.8732 250.771 88.8088 251.007C88.7551 251.243 88.6906 251.426 88.6262 251.609C88.5618 251.791 88.4436 251.963 88.3255 252.145C88.2073 252.328 88.0892 252.446 87.9066 252.564C87.7241 252.682 87.5522 252.801 87.3696 252.919C87.1871 253.037 86.9508 253.101 86.7682 253.155H86.7038V254.465H85.1465V253.209H85.0284C84.8458 253.209 84.674 253.155 84.4914 253.155C84.3088 253.091 84.137 253.091 84.0081 253.037C84.0725 253.155 83.89 253.101 83.7718 253.101Z"/>
</mask>
<path d="M51.1658 295.502H59.4033V274.431H51.1658V295.502ZM66.5237 295.566H74.7611V276.042H66.5237V295.566ZM81.9246 295.566H90.162V265.474H81.9246V295.566ZM46.7518 297.07C46.3329 297.07 46 296.737 46 296.318C46 295.899 46.3329 295.566 46.7518 295.566H49.673V273.743C49.673 273.324 50.0059 272.991 50.4248 272.991H60.1013C60.5202 272.991 60.8531 273.324 60.8531 273.743V295.566H65.0846V275.29C65.0846 274.871 65.4175 274.538 65.8364 274.538H75.4485C75.8673 274.538 76.2003 274.871 76.2003 275.29V295.566H80.4317V264.786C80.4317 264.367 80.7647 264.034 81.1835 264.034H90.8601C91.2789 264.034 91.6119 264.367 91.6119 264.786V295.566H94.5653C94.909 295.566 95.3171 295.899 95.3171 296.318C95.3171 296.737 94.9841 297.07 94.5653 297.07H46.7625H46.7518ZM69.8638 269.243L80.9795 260.458C81.3017 260.211 81.3554 259.771 81.0976 259.416C80.958 259.234 80.7647 259.137 80.5391 259.137C80.3673 259.137 80.2062 259.191 80.0666 259.298L69.2839 267.836L55.3973 262.037C55.2792 261.994 55.161 261.972 55.0536 261.972C54.914 261.972 54.7851 262.015 54.667 262.112L50.1456 265.312C49.8019 265.57 49.7267 266.021 49.9845 266.376C50.1026 266.569 50.3604 266.633 50.5429 266.633C50.704 266.633 50.8222 266.601 50.951 266.515L55.1503 263.508L69.0905 269.308C69.2087 269.351 69.3375 269.372 69.4557 269.372C69.6168 269.372 69.7564 269.329 69.8638 269.243ZM86.0164 240.568C81.7205 240.568 78.2301 244.058 78.2301 248.354C78.2301 252.65 81.7205 256.141 86.0164 256.141C90.3123 256.141 93.8028 252.65 93.8028 248.354C93.8028 244.058 90.3123 240.568 86.0164 240.568ZM86.0164 257.591C80.8936 257.591 76.7265 253.445 76.7265 248.354C76.7265 243.264 80.8936 239 86.0164 239C91.1393 239 95.3063 243.167 95.3063 248.29C95.3063 253.413 91.1393 257.58 86.0164 257.58M83.7718 253.101C83.5892 253.037 83.4711 252.983 83.353 252.919L83.1704 252.801V252.564L83.2885 251.426L83.353 251.007L83.7074 251.19C83.7718 251.19 83.8255 251.243 83.89 251.243C83.9544 251.243 84.0081 251.308 84.0725 251.308C84.1907 251.372 84.3732 251.426 84.4914 251.426C84.6095 251.49 84.7921 251.49 84.9102 251.544C85.0284 251.544 85.1465 251.609 85.2646 251.609C85.3828 251.609 85.5009 251.609 85.6191 251.662H86.0916C86.2097 251.662 86.3279 251.662 86.3923 251.609C86.5105 251.609 86.5749 251.544 86.693 251.49C86.8112 251.426 86.8756 251.372 86.9293 251.308C86.9938 251.243 87.0474 251.19 87.1119 251.072C87.1763 251.018 87.1763 250.889 87.23 250.835V250.535C87.23 250.416 87.23 250.352 87.1763 250.234C87.1119 250.169 87.1119 250.051 87.0582 249.998L86.8756 249.815C86.8112 249.751 86.7575 249.697 86.6393 249.632C86.5856 249.568 86.4568 249.514 86.4031 249.514C86.3386 249.45 86.2205 249.45 86.1023 249.396C85.9198 249.342 85.7479 249.278 85.5654 249.16C85.3828 249.095 85.2109 248.977 85.0284 248.924C84.8458 248.859 84.674 248.741 84.5451 248.623C84.4269 248.505 84.2444 248.44 84.1262 248.268L83.7718 247.914C83.6537 247.796 83.5892 247.613 83.4711 247.495C83.4067 247.313 83.353 247.141 83.2885 246.958C83.2348 246.776 83.2348 246.604 83.2348 246.421C83.2348 246.185 83.2348 246.002 83.2885 245.766C83.353 245.583 83.4067 245.347 83.4711 245.165C83.5355 244.982 83.6537 244.81 83.7718 244.628C83.89 244.445 84.0081 244.327 84.1907 244.144C84.3732 244.026 84.4914 243.908 84.674 243.79C84.8565 243.672 85.0284 243.607 85.2109 243.554H85.2646V242.243H86.8219V243.5H86.94C87.0582 243.5 87.1226 243.564 87.2408 243.564C87.3589 243.564 87.477 243.618 87.5415 243.618C87.6059 243.618 87.7241 243.683 87.7778 243.683C87.8315 243.683 87.8959 243.736 88.014 243.736L88.2503 243.801L88.1859 244.037L88.0677 245.111L88.0033 245.465L87.6489 245.347C87.5844 245.347 87.5307 245.283 87.4126 245.283C87.3482 245.283 87.2945 245.218 87.1763 245.218C87.0582 245.218 86.94 245.154 86.8219 245.154C86.7038 245.154 86.5856 245.089 86.4675 245.089H85.9949C85.8768 245.089 85.7587 245.089 85.6405 245.154C85.5224 245.218 85.458 245.218 85.3398 245.272C85.2754 245.336 85.1572 245.39 85.1035 245.455C85.0498 245.519 84.9854 245.637 84.9854 245.691C84.921 245.755 84.921 245.873 84.921 245.992V246.292C84.921 246.41 84.9854 246.475 84.9854 246.593C85.0498 246.647 85.0498 246.776 85.1035 246.829C85.168 246.894 85.2217 246.947 85.2861 247.012C85.3506 247.076 85.4687 247.13 85.5224 247.194C85.5868 247.248 85.705 247.248 85.7587 247.313C85.8768 247.377 85.9412 247.377 86.0594 247.431C86.242 247.495 86.4138 247.549 86.5964 247.667C86.7789 247.731 86.9508 247.85 87.1334 247.903C87.3159 247.957 87.4341 248.086 87.6167 248.204C87.7992 248.322 87.9174 248.44 88.0355 248.558C88.1536 248.677 88.2718 248.795 88.3899 248.913C88.5081 249.031 88.5725 249.214 88.6262 249.332C88.6906 249.514 88.7443 249.686 88.8088 249.815C88.8732 249.998 88.8732 250.169 88.8732 250.352C88.8732 250.588 88.8732 250.771 88.8088 251.007C88.7551 251.243 88.6906 251.426 88.6262 251.609C88.5618 251.791 88.4436 251.963 88.3255 252.145C88.2073 252.328 88.0892 252.446 87.9066 252.564C87.7241 252.682 87.5522 252.801 87.3696 252.919C87.1871 253.037 86.9508 253.101 86.7682 253.155H86.7038V254.465H85.1465V253.209H85.0284C84.8458 253.209 84.674 253.155 84.4914 253.155C84.3088 253.091 84.137 253.091 84.0081 253.037C84.0725 253.155 83.89 253.101 83.7718 253.101Z" fill="#F58436"/>
<path d="M51.1658 295.502H50.9158V295.752H51.1658V295.502ZM59.4033 295.502V295.752H59.6533V295.502H59.4033ZM59.4033 274.431H59.6533V274.181H59.4033V274.431ZM51.1658 274.431V274.181H50.9158V274.431H51.1658ZM66.5237 295.566H66.2737V295.816H66.5237V295.566ZM74.7611 295.566V295.816H75.0111V295.566H74.7611ZM74.7611 276.042H75.0111V275.792H74.7611V276.042ZM66.5237 276.042V275.792H66.2737V276.042H66.5237ZM81.9246 295.566H81.6746V295.816H81.9246V295.566ZM90.162 295.566V295.816H90.412V295.566H90.162ZM90.162 265.474H90.412V265.224H90.162V265.474ZM81.9246 265.474V265.224H81.6746V265.474H81.9246ZM49.673 295.566V295.816H49.923V295.566H49.673ZM60.8531 295.566H60.6031V295.816H60.8531V295.566ZM65.0846 295.566V295.816H65.3346V295.566H65.0846ZM76.2003 295.566H75.9503V295.816H76.2003V295.566ZM80.4317 295.566V295.816H80.6817V295.566H80.4317ZM91.6119 295.566H91.3619V295.816H91.6119V295.566ZM69.8638 269.243L69.7088 269.047L69.7076 269.048L69.8638 269.243ZM80.9795 260.458L80.8274 260.26L80.8245 260.262L80.9795 260.458ZM81.0976 259.416L81.2999 259.269L81.2962 259.264L81.0976 259.416ZM80.0666 259.298L79.9142 259.1L79.9114 259.102L80.0666 259.298ZM69.2839 267.836L69.1875 268.067L69.3235 268.124L69.439 268.032L69.2839 267.836ZM55.3973 262.037L55.4938 261.806L55.4827 261.802L55.3973 262.037ZM54.667 262.112L54.8114 262.316L54.8186 262.311L54.8253 262.306L54.667 262.112ZM50.1456 265.312L50.0011 265.108L49.9956 265.112L50.1456 265.312ZM49.9845 266.376L50.1978 266.245L50.1925 266.237L50.1866 266.229L49.9845 266.376ZM50.951 266.515L51.0898 266.723L51.0966 266.719L50.951 266.515ZM55.1503 263.508L55.2463 263.277L55.1179 263.224L55.0047 263.305L55.1503 263.508ZM69.0905 269.308L68.9944 269.539L69.0051 269.543L69.0905 269.308ZM83.7718 253.101L83.6886 253.337L83.729 253.351H83.7718V253.101ZM83.353 252.919L83.2171 253.129L83.225 253.134L83.2332 253.138L83.353 252.919ZM83.1704 252.801H82.9204V252.937L83.0346 253.011L83.1704 252.801ZM83.1704 252.564L82.9217 252.539L82.9204 252.551V252.564H83.1704ZM83.2885 251.426L83.0411 251.388L83.0399 251.4L83.2885 251.426ZM83.353 251.007L83.4675 250.785L83.1587 250.626L83.1059 250.969L83.353 251.007ZM83.7074 251.19L83.5929 251.412L83.6468 251.44H83.7074V251.19ZM84.0725 251.308L84.1922 251.088L84.1363 251.058H84.0725V251.308ZM84.4914 251.426L84.6111 251.206L84.5551 251.176H84.4914V251.426ZM84.9102 251.544L84.8068 251.772L84.8561 251.794H84.9102V251.544ZM85.6191 251.662L85.5156 251.89L85.5649 251.912H85.6191V251.662ZM86.3923 251.609V251.359H86.3018L86.2323 251.416L86.3923 251.609ZM86.693 251.49L86.7965 251.718L86.8048 251.714L86.8128 251.71L86.693 251.49ZM86.9293 251.308L86.7525 251.131L86.7445 251.139L86.7373 251.148L86.9293 251.308ZM87.1119 251.072L86.9518 250.879L86.9152 250.91L86.8924 250.952L87.1119 251.072ZM87.23 250.835L87.4068 251.012L87.48 250.939V250.835H87.23ZM87.1763 250.234L87.4039 250.13L87.3852 250.089L87.3531 250.057L87.1763 250.234ZM87.0582 249.998L86.8814 250.174V250.174L87.0582 249.998ZM86.8756 249.815L87.0524 249.638L87.0524 249.638L86.8756 249.815ZM86.6393 249.632L86.4473 249.792L86.4778 249.829L86.5196 249.852L86.6393 249.632ZM86.4031 249.514L86.2263 249.691L86.2995 249.764H86.4031V249.514ZM86.1023 249.396L86.2058 249.169L86.1898 249.161L86.1729 249.156L86.1023 249.396ZM85.5654 249.16L85.7012 248.95L85.6764 248.934L85.6486 248.924L85.5654 249.16ZM85.0284 248.924L84.945 249.16L84.9578 249.163L85.0284 248.924ZM84.5451 248.623L84.3681 248.8L84.3761 248.807L84.5451 248.623ZM84.1262 248.268L84.3322 248.127L84.3192 248.108L84.303 248.092L84.1262 248.268ZM83.7718 247.914L83.595 248.091L83.7718 247.914ZM83.4711 247.495L83.2354 247.578L83.2542 247.632L83.2943 247.672L83.4711 247.495ZM83.2885 246.958L83.0483 247.029L83.0528 247.041L83.2885 246.958ZM83.2885 245.766L83.0528 245.683L83.048 245.697L83.0447 245.711L83.2885 245.766ZM84.1907 244.144L84.0549 243.934L84.0326 243.949L84.0139 243.968L84.1907 244.144ZM85.2109 243.554V243.304H85.1749L85.1404 243.314L85.2109 243.554ZM85.2646 243.554V243.804H85.5146V243.554H85.2646ZM85.2646 242.243V241.993H85.0146V242.243H85.2646ZM86.8219 242.243H87.0719V241.993H86.8219V242.243ZM86.8219 243.5H86.5719V243.75H86.8219V243.5ZM88.014 243.736L88.0798 243.495L88.0475 243.486H88.014V243.736ZM88.2503 243.801L88.4915 243.866L88.5573 243.625L88.3161 243.559L88.2503 243.801ZM88.1859 244.037L87.9447 243.971L87.9395 243.99L87.9374 244.01L88.1859 244.037ZM88.0677 245.111L88.3137 245.156L88.3153 245.147L88.3162 245.138L88.0677 245.111ZM88.0033 245.465L87.9242 245.703L88.1977 245.794L88.2493 245.51L88.0033 245.465ZM87.6489 245.347L87.7279 245.11L87.6894 245.097H87.6489V245.347ZM85.3398 245.272L85.2364 245.044L85.1951 245.063L85.163 245.095L85.3398 245.272ZM84.9854 245.691L85.1622 245.868L85.2354 245.794V245.691H84.9854ZM84.9854 246.593H84.7354V246.71L84.8254 246.785L84.9854 246.593ZM85.1035 246.829L84.9268 247.006L85.1035 246.829ZM85.2861 247.012L85.1093 247.189L85.2861 247.012ZM85.5224 247.194L85.3303 247.355L85.3449 247.372L85.3624 247.387L85.5224 247.194ZM85.7587 247.313L85.5666 247.473L85.5971 247.509L85.639 247.532L85.7587 247.313ZM86.0594 247.431L85.9559 247.658L85.9659 247.663L85.9762 247.666L86.0594 247.431ZM86.5964 247.667L86.4606 247.877L86.4853 247.893L86.5132 247.903L86.5964 247.667ZM88.6262 249.332L88.8619 249.248L88.8583 249.238L88.8538 249.228L88.6262 249.332ZM88.8088 249.815L89.0445 249.732L89.0393 249.717L89.0324 249.703L88.8088 249.815ZM88.8088 251.007L88.5674 250.941L88.565 250.952L88.8088 251.007ZM86.7682 253.155V253.405H86.8042L86.8388 253.395L86.7682 253.155ZM86.7038 253.155V252.905H86.4538V253.155H86.7038ZM86.7038 254.465V254.715H86.9538V254.465H86.7038ZM85.1465 254.465H84.8965V254.715H85.1465V254.465ZM85.1465 253.209H85.3965V252.959H85.1465V253.209ZM84.4914 253.155L84.4082 253.391L84.4486 253.405H84.4914V253.155ZM84.0081 253.037L84.1042 252.806L83.4484 252.533L83.7886 253.157L84.0081 253.037ZM51.1658 295.502V295.752H59.4033V295.502V295.252H51.1658V295.502ZM59.4033 295.502H59.6533V274.431H59.4033H59.1533V295.502H59.4033ZM59.4033 274.431V274.181H51.1658V274.431V274.681H59.4033V274.431ZM51.1658 274.431H50.9158V295.502H51.1658H51.4158V274.431H51.1658ZM66.5237 295.566V295.816H74.7611V295.566V295.316H66.5237V295.566ZM74.7611 295.566H75.0111V276.042H74.7611H74.5111V295.566H74.7611ZM74.7611 276.042V275.792H66.5237V276.042V276.292H74.7611V276.042ZM66.5237 276.042H66.2737V295.566H66.5237H66.7737V276.042H66.5237ZM81.9246 295.566V295.816H90.162V295.566V295.316H81.9246V295.566ZM90.162 295.566H90.412V265.474H90.162H89.912V295.566H90.162ZM90.162 265.474V265.224H81.9246V265.474V265.724H90.162V265.474ZM81.9246 265.474H81.6746V295.566H81.9246H82.1746V265.474H81.9246ZM46.7518 297.07V296.82C46.471 296.82 46.25 296.599 46.25 296.318H46H45.75C45.75 296.875 46.1949 297.32 46.7518 297.32V297.07ZM46 296.318H46.25C46.25 296.037 46.471 295.816 46.7518 295.816V295.566V295.316C46.1949 295.316 45.75 295.761 45.75 296.318H46ZM46.7518 295.566V295.816H49.673V295.566V295.316H46.7518V295.566ZM49.673 295.566H49.923V273.743H49.673H49.423V295.566H49.673ZM49.673 273.743H49.923C49.923 273.462 50.144 273.241 50.4248 273.241V272.991V272.741C49.8679 272.741 49.423 273.186 49.423 273.743H49.673ZM50.4248 272.991V273.241H60.1013V272.991V272.741H50.4248V272.991ZM60.1013 272.991V273.241C60.3821 273.241 60.6031 273.462 60.6031 273.743H60.8531H61.1031C61.1031 273.186 60.6583 272.741 60.1013 272.741V272.991ZM60.8531 273.743H60.6031V295.566H60.8531H61.1031V273.743H60.8531ZM60.8531 295.566V295.816H65.0846V295.566V295.316H60.8531V295.566ZM65.0846 295.566H65.3346V275.29H65.0846H64.8346V295.566H65.0846ZM65.0846 275.29H65.3346C65.3346 275.009 65.5556 274.788 65.8364 274.788V274.538V274.288C65.2795 274.288 64.8346 274.733 64.8346 275.29H65.0846ZM65.8364 274.538V274.788H75.4485V274.538V274.288H65.8364V274.538ZM75.4485 274.538V274.788C75.7293 274.788 75.9503 275.009 75.9503 275.29H76.2003H76.4503C76.4503 274.733 76.0054 274.288 75.4485 274.288V274.538ZM76.2003 275.29H75.9503V295.566H76.2003H76.4503V275.29H76.2003ZM76.2003 295.566V295.816H80.4317V295.566V295.316H76.2003V295.566ZM80.4317 295.566H80.6817V264.786H80.4317H80.1817V295.566H80.4317ZM80.4317 264.786H80.6817C80.6817 264.505 80.9027 264.284 81.1835 264.284V264.034V263.784C80.6266 263.784 80.1817 264.229 80.1817 264.786H80.4317ZM81.1835 264.034V264.284H90.8601V264.034V263.784H81.1835V264.034ZM90.8601 264.034V264.284C91.1409 264.284 91.3619 264.505 91.3619 264.786H91.6119H91.8619C91.8619 264.229 91.417 263.784 90.8601 263.784V264.034ZM91.6119 264.786H91.3619V295.566H91.6119H91.8619V264.786H91.6119ZM91.6119 295.566V295.816H94.5653V295.566V295.316H91.6119V295.566ZM94.5653 295.566V295.816C94.6617 295.816 94.791 295.867 94.8993 295.968C95.0053 296.067 95.0671 296.192 95.0671 296.318H95.3171H95.5671C95.5671 296.025 95.4248 295.775 95.2408 295.603C95.0592 295.433 94.8126 295.316 94.5653 295.316V295.566ZM95.3171 296.318H95.0671C95.0671 296.599 94.8461 296.82 94.5653 296.82V297.07V297.32C95.1222 297.32 95.5671 296.875 95.5671 296.318H95.3171ZM94.5653 297.07V296.82H46.7625V297.07V297.32H94.5653V297.07ZM46.7625 297.07V296.82H46.7518V297.07V297.32H46.7625V297.07ZM69.8638 269.243L70.0188 269.439L81.1345 260.654L80.9795 260.458L80.8245 260.262L69.7088 269.047L69.8638 269.243ZM80.9795 260.458L81.1316 260.656C81.5718 260.319 81.6294 259.722 81.2998 259.269L81.0976 259.416L80.8954 259.563C81.0813 259.819 81.0316 260.103 80.8274 260.26L80.9795 260.458ZM81.0976 259.416L81.2962 259.264C81.1103 259.021 80.8443 258.887 80.5391 258.887V259.137V259.387C80.6851 259.387 80.8056 259.446 80.899 259.568L81.0976 259.416ZM80.5391 259.137V258.887C80.3125 258.887 80.0978 258.959 79.9142 259.1L80.0666 259.298L80.219 259.496C80.3147 259.423 80.4221 259.387 80.5391 259.387V259.137ZM80.0666 259.298L79.9114 259.102L69.1287 267.64L69.2839 267.836L69.439 268.032L80.2218 259.494L80.0666 259.298ZM69.2839 267.836L69.3802 267.606L55.4937 261.806L55.3973 262.037L55.301 262.268L69.1875 268.067L69.2839 267.836ZM55.3973 262.037L55.4827 261.802C55.3403 261.75 55.1933 261.722 55.0536 261.722V261.972V262.222C55.1287 262.222 55.218 262.238 55.3119 262.272L55.3973 262.037ZM55.0536 261.972V261.722C54.8572 261.722 54.6722 261.785 54.5087 261.919L54.667 262.112L54.8253 262.306C54.8981 262.246 54.9709 262.222 55.0536 262.222V261.972ZM54.667 262.112L54.5226 261.908L50.0011 265.108L50.1456 265.312L50.29 265.517L54.8114 262.316L54.667 262.112ZM50.1456 265.312L49.9956 265.112C49.5446 265.451 49.4426 266.056 49.7823 266.523L49.9845 266.376L50.1866 266.229C50.0108 265.987 50.0591 265.69 50.2956 265.512L50.1456 265.312ZM49.9845 266.376L49.7711 266.506C49.8667 266.663 50.0121 266.756 50.1477 266.81C50.2834 266.863 50.4253 266.883 50.5429 266.883V266.633V266.383C50.478 266.383 50.3997 266.372 50.3313 266.345C50.2629 266.318 50.2203 266.282 50.1978 266.245L49.9845 266.376ZM50.5429 266.633V266.883C50.7478 266.883 50.9153 266.84 51.0897 266.723L50.951 266.515L50.8124 266.307C50.729 266.363 50.6603 266.383 50.5429 266.383V266.633ZM50.951 266.515L51.0966 266.719L55.2958 263.711L55.1503 263.508L55.0047 263.305L50.8055 266.312L50.951 266.515ZM55.1503 263.508L55.0543 263.739L68.9945 269.538L69.0905 269.308L69.1866 269.077L55.2463 263.277L55.1503 263.508ZM69.0905 269.308L69.0051 269.543C69.1513 269.596 69.3092 269.622 69.4557 269.622V269.372V269.122C69.3659 269.122 69.266 269.105 69.176 269.073L69.0905 269.308ZM69.4557 269.372V269.622C69.6612 269.622 69.8595 269.567 70.02 269.438L69.8638 269.243L69.7076 269.048C69.6533 269.091 69.5724 269.122 69.4557 269.122V269.372ZM86.0164 240.568V240.318C81.5824 240.318 77.9801 243.92 77.9801 248.354H78.2301H78.4801C78.4801 244.197 81.8586 240.818 86.0164 240.818V240.568ZM78.2301 248.354H77.9801C77.9801 252.788 81.5824 256.391 86.0164 256.391V256.141V255.891C81.8586 255.891 78.4801 252.512 78.4801 248.354H78.2301ZM86.0164 256.141V256.391C90.4504 256.391 94.0528 252.788 94.0528 248.354H93.8028H93.5528C93.5528 252.512 90.1743 255.891 86.0164 255.891V256.141ZM93.8028 248.354H94.0528C94.0528 243.92 90.4504 240.318 86.0164 240.318V240.568V240.818C90.1743 240.818 93.5528 244.197 93.5528 248.354H93.8028ZM86.0164 257.591V257.341C81.0303 257.341 76.9765 253.306 76.9765 248.354H76.7265H76.4765C76.4765 253.584 80.7568 257.841 86.0164 257.841V257.591ZM76.7265 248.354H76.9765C76.9765 243.399 81.0344 239.25 86.0164 239.25V239V238.75C80.7527 238.75 76.4765 243.128 76.4765 248.354H76.7265ZM86.0164 239V239.25C91.0012 239.25 95.0563 243.305 95.0563 248.29H95.3063H95.5563C95.5563 243.029 91.2774 238.75 86.0164 238.75V239ZM95.3063 248.29H95.0563C95.0563 253.275 91.0012 257.33 86.0164 257.33V257.58V257.83C91.2774 257.83 95.5563 253.551 95.5563 248.29H95.3063ZM83.7718 253.101L83.855 252.866C83.6835 252.805 83.5777 252.757 83.4727 252.699L83.353 252.919L83.2332 253.138C83.3645 253.21 83.495 253.269 83.6886 253.337L83.7718 253.101ZM83.353 252.919L83.4888 252.709L83.3062 252.591L83.1704 252.801L83.0346 253.011L83.2171 253.129L83.353 252.919ZM83.1704 252.801H83.4204V252.564H83.1704H82.9204V252.801H83.1704ZM83.1704 252.564L83.4191 252.59L83.5372 251.452L83.2885 251.426L83.0399 251.4L82.9217 252.539L83.1704 252.564ZM83.2885 251.426L83.5356 251.464L83.6001 251.045L83.353 251.007L83.1059 250.969L83.0414 251.388L83.2885 251.426ZM83.353 251.007L83.2385 251.229L83.5929 251.412L83.7074 251.19L83.8219 250.967L83.4675 250.785L83.353 251.007ZM83.7074 251.19V251.44C83.6885 251.44 83.6763 251.436 83.675 251.435C83.6743 251.435 83.6753 251.435 83.6789 251.437C83.6829 251.439 83.6873 251.441 83.6952 251.444C83.7078 251.45 83.7346 251.462 83.7642 251.472C83.7958 251.483 83.8389 251.493 83.89 251.493V251.243V250.993C83.9088 250.993 83.921 250.997 83.9224 250.998C83.923 250.998 83.922 250.998 83.9184 250.996C83.9145 250.995 83.91 250.992 83.9021 250.989C83.8895 250.983 83.8628 250.971 83.8331 250.961C83.8015 250.95 83.7585 250.94 83.7074 250.94V251.19ZM83.89 251.243V251.493C83.864 251.493 83.8469 251.487 83.8438 251.486C83.8426 251.485 83.8442 251.486 83.8615 251.495C83.8738 251.502 83.9017 251.517 83.933 251.53C83.9664 251.543 84.0144 251.558 84.0725 251.558V251.308V251.058C84.0985 251.058 84.1156 251.064 84.1187 251.066C84.1198 251.066 84.1182 251.066 84.101 251.056C84.0887 251.049 84.0608 251.034 84.0294 251.021C83.9961 251.008 83.9481 250.993 83.89 250.993V251.243ZM84.0725 251.308L83.9528 251.527C84.0985 251.607 84.3221 251.676 84.4914 251.676V251.426V251.176C84.4244 251.176 84.2828 251.138 84.1922 251.088L84.0725 251.308ZM84.4914 251.426L84.3717 251.645C84.4699 251.699 84.5834 251.721 84.6526 251.734C84.7409 251.752 84.7808 251.76 84.8068 251.772L84.9102 251.544L85.0137 251.316C84.9215 251.275 84.811 251.256 84.749 251.244C84.6679 251.228 84.631 251.217 84.6111 251.206L84.4914 251.426ZM84.9102 251.544V251.794C84.9299 251.794 84.9561 251.8 85.0217 251.817C85.0742 251.832 85.1662 251.859 85.2646 251.859V251.609V251.359C85.2449 251.359 85.2188 251.353 85.1532 251.335C85.1007 251.321 85.0087 251.294 84.9102 251.294V251.544ZM85.2646 251.609V251.859C85.3891 251.859 85.4538 251.862 85.5156 251.89L85.6191 251.662L85.7225 251.435C85.548 251.355 85.3765 251.359 85.2646 251.359V251.609ZM85.6191 251.662V251.912H86.0916V251.662V251.412H85.6191V251.662ZM86.0916 251.662V251.912C86.1467 251.912 86.2226 251.913 86.2939 251.903C86.362 251.895 86.4652 251.873 86.5524 251.801L86.3923 251.609L86.2323 251.416C86.245 251.406 86.2544 251.403 86.2535 251.403C86.2524 251.403 86.2456 251.406 86.2303 251.408C86.1968 251.412 86.1547 251.412 86.0916 251.412V251.662ZM86.3923 251.609V251.859C86.5033 251.859 86.5881 251.826 86.6545 251.793C86.6836 251.779 86.714 251.761 86.7341 251.75C86.7569 251.737 86.7761 251.727 86.7965 251.718L86.693 251.49L86.5896 251.263C86.5509 251.28 86.5178 251.298 86.4915 251.313C86.4626 251.329 86.4474 251.338 86.4309 251.346C86.406 251.358 86.3995 251.359 86.3923 251.359V251.609ZM86.693 251.49L86.8128 251.71C86.9517 251.634 87.0431 251.562 87.1214 251.468L86.9293 251.308L86.7373 251.148C86.7082 251.183 86.6707 251.218 86.5733 251.271L86.693 251.49ZM86.9293 251.308L87.1061 251.485C87.1762 251.414 87.2498 251.341 87.3314 251.191L87.1119 251.072L86.8924 250.952C86.8451 251.039 86.8113 251.072 86.7525 251.131L86.9293 251.308ZM87.1119 251.072L87.2719 251.264C87.3254 251.219 87.3565 251.167 87.375 251.128C87.3933 251.091 87.4056 251.053 87.4128 251.03C87.4221 251.002 87.4252 250.992 87.4286 250.984C87.432 250.976 87.4269 250.992 87.4068 251.012L87.23 250.835L87.0532 250.658C87.0063 250.705 86.9811 250.758 86.9673 250.791C86.9537 250.823 86.9427 250.859 86.9371 250.876C86.9296 250.9 86.9265 250.907 86.9249 250.911C86.9236 250.913 86.9306 250.897 86.9518 250.879L87.1119 251.072ZM87.23 250.835H87.48V250.535H87.23H86.98V250.835H87.23ZM87.23 250.535H87.48C87.48 250.48 87.4805 250.415 87.4706 250.348C87.4599 250.275 87.4386 250.207 87.4039 250.13L87.1763 250.234L86.9487 250.337C86.9677 250.379 86.9733 250.402 86.976 250.421C86.9795 250.445 86.98 250.471 86.98 250.535H87.23ZM87.1763 250.234L87.3531 250.057C87.3638 250.068 87.3666 250.075 87.3643 250.071C87.3615 250.065 87.3579 250.055 87.3504 250.033C87.3446 250.015 87.3335 249.981 87.3194 249.948C87.3049 249.915 87.2797 249.866 87.235 249.821L87.0582 249.998L86.8814 250.174C86.8635 250.156 86.8584 250.142 86.8611 250.148C86.8641 250.155 86.8671 250.164 86.8761 250.191C86.8833 250.212 86.8951 250.248 86.9122 250.284C86.9297 250.321 86.9566 250.368 86.9995 250.411L87.1763 250.234ZM87.0582 249.998L87.235 249.821L87.0524 249.638L86.8756 249.815L86.6988 249.992L86.8814 250.174L87.0582 249.998ZM86.8756 249.815L87.0524 249.638C86.9823 249.568 86.9086 249.494 86.759 249.413L86.6393 249.632L86.5196 249.852C86.6063 249.899 86.64 249.933 86.6988 249.992L86.8756 249.815ZM86.6393 249.632L86.8314 249.472C86.7707 249.399 86.6872 249.351 86.6276 249.323C86.5725 249.297 86.4862 249.264 86.4031 249.264V249.514V249.764C86.3903 249.764 86.3826 249.763 86.3817 249.763C86.3801 249.762 86.3809 249.762 86.3843 249.763C86.3913 249.765 86.4022 249.769 86.4147 249.775C86.4273 249.781 86.4379 249.787 86.4455 249.793C86.4492 249.795 86.4512 249.797 86.4518 249.797C86.4525 249.798 86.4506 249.796 86.4473 249.792L86.6393 249.632ZM86.4031 249.514L86.5798 249.337C86.4967 249.254 86.3916 249.225 86.3407 249.211C86.2731 249.191 86.2422 249.185 86.2058 249.169L86.1023 249.396L85.9989 249.624C86.0806 249.661 86.1679 249.681 86.205 249.692C86.2588 249.707 86.245 249.71 86.2263 249.691L86.4031 249.514ZM86.1023 249.396L86.1729 249.156C86.0031 249.106 85.8562 249.05 85.7012 248.95L85.5654 249.16L85.4295 249.37C85.6397 249.506 85.8364 249.578 86.0318 249.636L86.1023 249.396ZM85.5654 249.16L85.6486 248.924C85.5753 248.898 85.5027 248.861 85.4087 248.814C85.3213 248.77 85.2143 248.718 85.0989 248.684L85.0284 248.924L84.9578 249.163C85.025 249.183 85.0952 249.216 85.1851 249.261C85.2682 249.303 85.3728 249.357 85.4822 249.396L85.5654 249.16ZM85.0284 248.924L85.1116 248.688C84.9692 248.638 84.8256 248.541 84.714 248.439L84.5451 248.623L84.3761 248.807C84.5223 248.941 84.7224 249.081 84.9452 249.159L85.0284 248.924ZM84.5451 248.623L84.7219 248.446C84.642 248.366 84.535 248.3 84.4785 248.261C84.4104 248.213 84.3653 248.175 84.3322 248.127L84.1262 248.268L83.9202 248.41C84.0053 248.534 84.1105 248.614 84.1928 248.671C84.2866 248.736 84.33 248.761 84.3683 248.8L84.5451 248.623ZM84.1262 248.268L84.303 248.092L83.9486 247.737L83.7718 247.914L83.595 248.091L83.9495 248.445L84.1262 248.268ZM83.7718 247.914L83.9486 247.737C83.9146 247.703 83.8841 247.655 83.8352 247.575C83.7928 247.505 83.7321 247.403 83.6479 247.318L83.4711 247.495L83.2943 247.672C83.3283 247.706 83.3588 247.754 83.4078 247.834C83.4501 247.904 83.5109 248.007 83.595 248.091L83.7718 247.914ZM83.4711 247.495L83.7068 247.412C83.6755 247.323 83.6466 247.237 83.617 247.148C83.5876 247.059 83.5573 246.969 83.5243 246.875L83.2885 246.958L83.0528 247.041C83.0842 247.13 83.113 247.217 83.1426 247.306C83.1721 247.394 83.2023 247.485 83.2354 247.578L83.4711 247.495ZM83.2885 246.958L83.5284 246.888C83.4863 246.745 83.4848 246.608 83.4848 246.421H83.2348H82.9848C82.9848 246.6 82.9833 246.807 83.0487 247.029L83.2885 246.958ZM83.2348 246.421H83.4848C83.4848 246.184 83.4855 246.027 83.5323 245.821L83.2885 245.766L83.0447 245.711C82.9841 245.977 82.9848 246.186 82.9848 246.421H83.2348ZM83.2885 245.766L83.5243 245.849C83.5597 245.749 83.5914 245.636 83.6204 245.533C83.6505 245.427 83.6778 245.33 83.7068 245.248L83.4711 245.165L83.2354 245.081C83.1999 245.182 83.1682 245.295 83.1392 245.397C83.1091 245.504 83.0818 245.601 83.0528 245.683L83.2885 245.766ZM83.4711 245.165L83.7068 245.248C83.759 245.1 83.8556 244.958 83.9817 244.763L83.7718 244.628L83.5619 244.492C83.4517 244.662 83.3121 244.864 83.2354 245.081L83.4711 245.165ZM83.7718 244.628L83.9817 244.763C84.0834 244.606 84.183 244.506 84.3674 244.321L84.1907 244.144L84.0139 243.968C83.8332 244.148 83.6965 244.284 83.5619 244.492L83.7718 244.628ZM84.1907 244.144L84.3265 244.354C84.4287 244.288 84.5122 244.222 84.5868 244.164C84.6626 244.104 84.7294 244.052 84.8098 244L84.674 243.79L84.5381 243.58C84.436 243.646 84.3524 243.712 84.2779 243.771C84.202 243.83 84.1352 243.882 84.0549 243.934L84.1907 244.144ZM84.674 243.79L84.8098 244C84.9648 243.9 85.1117 243.843 85.2815 243.794L85.2109 243.554L85.1404 243.314C84.945 243.371 84.7483 243.444 84.5381 243.58L84.674 243.79ZM85.2109 243.554V243.804H85.2646V243.554V243.304H85.2109V243.554ZM85.2646 243.554H85.5146V242.243H85.2646H85.0146V243.554H85.2646ZM85.2646 242.243V242.493H86.8219V242.243V241.993H85.2646V242.243ZM86.8219 242.243H86.5719V243.5H86.8219H87.0719V242.243H86.8219ZM86.8219 243.5V243.75H86.94V243.5V243.25H86.8219V243.5ZM86.94 243.5V243.75C86.9515 243.75 86.9605 243.751 87.0072 243.768C87.0518 243.784 87.1341 243.814 87.2408 243.814V243.564V243.314C87.2293 243.314 87.2203 243.313 87.1736 243.296C87.1291 243.281 87.0467 243.25 86.94 243.25V243.5ZM87.2408 243.564V243.814C87.2658 243.814 87.2984 243.82 87.3492 243.833C87.3695 243.839 87.402 243.847 87.4281 243.853C87.4536 243.859 87.4958 243.868 87.5415 243.868V243.618V243.368C87.5549 243.368 87.5583 243.37 87.5397 243.366C87.5219 243.362 87.5054 243.357 87.4734 243.349C87.4194 243.335 87.3339 243.314 87.2408 243.314V243.564ZM87.5415 243.618V243.868C87.5219 243.868 87.5143 243.864 87.5288 243.868C87.5405 243.872 87.5554 243.877 87.5782 243.885C87.5975 243.892 87.6266 243.903 87.6537 243.911C87.6761 243.918 87.7242 243.933 87.7778 243.933V243.683V243.433C87.8045 243.433 87.8176 243.439 87.8008 243.434C87.7886 243.43 87.774 243.424 87.7491 243.415C87.7276 243.408 87.6976 243.397 87.6672 243.388C87.6398 243.38 87.5933 243.368 87.5415 243.368V243.618ZM87.7778 243.683V243.933C87.7517 243.933 87.7361 243.926 87.7432 243.929C87.756 243.933 87.7549 243.933 87.7876 243.945C87.8382 243.963 87.9144 243.986 88.014 243.986V243.736V243.486C87.9955 243.486 87.9805 243.483 87.9558 243.474C87.951 243.472 87.9163 243.459 87.8982 243.453C87.8744 243.445 87.8306 243.433 87.7778 243.433V243.683ZM88.014 243.736L87.9482 243.977L88.1845 244.042L88.2503 243.801L88.3161 243.559L88.0798 243.495L88.014 243.736ZM88.2503 243.801L88.0091 243.735L87.9447 243.971L88.1859 244.037L88.4271 244.103L88.4915 243.866L88.2503 243.801ZM88.1859 244.037L87.9374 244.01L87.8192 245.084L88.0677 245.111L88.3162 245.138L88.4344 244.064L88.1859 244.037ZM88.0677 245.111L87.8218 245.066L87.7573 245.421L88.0033 245.465L88.2493 245.51L88.3137 245.156L88.0677 245.111ZM88.0033 245.465L88.0823 245.228L87.7279 245.11L87.6489 245.347L87.5698 245.584L87.9242 245.703L88.0033 245.465ZM87.6489 245.347V245.097C87.6749 245.097 87.6914 245.104 87.69 245.103C87.6826 245.101 87.6826 245.1 87.6524 245.087C87.6022 245.064 87.5221 245.033 87.4126 245.033V245.283V245.533C87.4213 245.533 87.4271 245.534 87.4493 245.543C87.4554 245.546 87.4883 245.562 87.5128 245.571C87.5433 245.582 87.5906 245.597 87.6489 245.597V245.347ZM87.4126 245.283V245.033C87.4386 245.033 87.4551 245.039 87.4537 245.039C87.4463 245.036 87.4463 245.036 87.4161 245.022C87.3659 245 87.2858 244.968 87.1763 244.968V245.218V245.468C87.185 245.468 87.1908 245.469 87.2131 245.479C87.2191 245.482 87.252 245.497 87.2765 245.506C87.307 245.518 87.3544 245.533 87.4126 245.533V245.283ZM87.1763 245.218V244.968C87.1566 244.968 87.1305 244.963 87.0649 244.945C87.0123 244.931 86.9203 244.904 86.8219 244.904V245.154V245.404C86.8416 245.404 86.8677 245.409 86.9333 245.427C86.9859 245.442 87.0779 245.468 87.1763 245.468V245.218ZM86.8219 245.154V244.904C86.8022 244.904 86.7761 244.898 86.7105 244.88C86.6579 244.866 86.5659 244.839 86.4675 244.839V245.089V245.339C86.4872 245.339 86.5133 245.345 86.5789 245.363C86.6315 245.377 86.7235 245.404 86.8219 245.404V245.154ZM86.4675 245.089V244.839H85.9949V245.089V245.339H86.4675V245.089ZM85.9949 245.089V244.839C85.8829 244.839 85.7024 244.835 85.5208 244.934L85.6405 245.154L85.7602 245.373C85.815 245.344 85.8707 245.339 85.9949 245.339V245.089ZM85.6405 245.154L85.5208 244.934C85.4811 244.956 85.4519 244.967 85.4132 244.979C85.3724 244.992 85.3113 245.01 85.2364 245.044L85.3398 245.272L85.4433 245.5C85.4865 245.48 85.5166 245.471 85.5671 245.455C85.6197 245.438 85.6818 245.416 85.7602 245.373L85.6405 245.154ZM85.3398 245.272L85.163 245.095C85.1526 245.106 85.1326 245.12 85.079 245.155C85.0417 245.18 84.9658 245.229 84.9115 245.295L85.1035 245.455L85.2956 245.615C85.2924 245.619 85.2938 245.616 85.3065 245.606C85.3187 245.597 85.3341 245.586 85.3563 245.571C85.3913 245.548 85.4626 245.503 85.5166 245.449L85.3398 245.272ZM85.1035 245.455L84.9115 245.295C84.8708 245.343 84.8316 245.405 84.8021 245.462C84.787 245.492 84.7721 245.524 84.7604 245.558C84.7503 245.587 84.7354 245.635 84.7354 245.691H84.9854H85.2354C85.2354 245.708 85.2331 245.719 85.2325 245.722C85.2317 245.725 85.2313 245.726 85.2322 245.723C85.2343 245.717 85.2388 245.706 85.2466 245.691C85.2627 245.66 85.2825 245.63 85.2956 245.615L85.1035 245.455ZM84.9854 245.691L84.8086 245.514C84.7218 245.601 84.6934 245.708 84.6819 245.783C84.6704 245.858 84.671 245.937 84.671 245.992H84.921H85.171C85.171 245.961 85.171 245.936 85.1718 245.913C85.1726 245.889 85.1741 245.872 85.1761 245.859C85.1807 245.829 85.1846 245.845 85.1622 245.868L84.9854 245.691ZM84.921 245.992H84.671V246.292H84.921H85.171V245.992H84.921ZM84.921 246.292H84.671C84.671 246.399 84.7017 246.481 84.7174 246.526C84.7339 246.573 84.7354 246.582 84.7354 246.593H84.9854H85.2354C85.2354 246.486 85.2047 246.404 85.1889 246.359C85.1724 246.313 85.171 246.304 85.171 246.292H84.921ZM84.9854 246.593L84.8254 246.785C84.8041 246.767 84.7971 246.751 84.7984 246.754C84.8 246.757 84.8032 246.765 84.8106 246.788C84.8162 246.805 84.8272 246.841 84.8408 246.874C84.8546 246.907 84.8799 246.959 84.9268 247.006L85.1035 246.829L85.2803 246.653C85.3004 246.673 85.3055 246.689 85.3022 246.681C85.2987 246.673 85.2956 246.663 85.2864 246.634C85.2791 246.612 85.2668 246.574 85.2486 246.536C85.2301 246.498 85.1989 246.446 85.1455 246.401L84.9854 246.593ZM85.1035 246.829L84.9268 247.006C84.9546 247.034 84.9466 247.026 84.9734 247.053C84.9795 247.059 84.9787 247.058 84.9847 247.064C84.9902 247.069 84.982 247.061 84.9875 247.067C84.9949 247.074 84.9828 247.062 84.9903 247.07C84.9903 247.07 84.9917 247.071 84.9917 247.071C84.9967 247.076 84.9881 247.067 84.9931 247.072C84.9946 247.074 84.993 247.072 84.9945 247.074C84.9947 247.074 84.9949 247.074 84.9952 247.074C84.9961 247.075 84.9949 247.074 84.9959 247.075C85.0069 247.086 85.0071 247.086 85.0181 247.097C85.025 247.104 85.0222 247.102 85.0291 247.108C85.03 247.109 85.0297 247.109 85.0305 247.11C85.031 247.11 85.0314 247.111 85.0319 247.111C85.0323 247.112 85.0329 247.112 85.0333 247.113L85.0347 247.114C85.0483 247.128 85.0266 247.106 85.0402 247.12C85.041 247.12 85.0402 247.119 85.0409 247.12C85.0412 247.12 85.0414 247.121 85.0416 247.121C85.0429 247.122 85.0418 247.121 85.043 247.122C85.048 247.127 85.0409 247.12 85.0458 247.125C85.0468 247.126 85.0504 247.13 85.0514 247.131C85.0554 247.135 85.0587 247.138 85.0627 247.142C85.0726 247.152 85.0641 247.143 85.0741 247.153C85.0809 247.16 85.0788 247.158 85.0856 247.165C85.0877 247.167 85.0894 247.169 85.0915 247.171C85.0941 247.173 85.0947 247.174 85.0974 247.177C85.1106 247.19 85.096 247.175 85.1093 247.189L85.2861 247.012L85.4629 246.835C85.4552 246.827 85.423 246.795 85.4162 246.788C85.4072 246.779 85.414 246.786 85.405 246.777C85.3896 246.762 85.4091 246.781 85.3938 246.766C85.3817 246.754 85.3837 246.756 85.3716 246.744C85.353 246.725 85.3681 246.74 85.3494 246.722C85.3444 246.717 85.3433 246.715 85.3382 246.71C85.3353 246.707 85.33 246.702 85.327 246.699C85.317 246.689 85.3256 246.698 85.3156 246.688C85.3122 246.684 85.3075 246.68 85.304 246.676C85.3009 246.673 85.3013 246.674 85.2982 246.67C85.2949 246.667 85.2956 246.668 85.2923 246.664C85.2746 246.647 85.2981 246.67 85.2803 246.653L85.1035 246.829ZM85.2861 247.012L85.1093 247.189C85.1633 247.243 85.2346 247.288 85.2696 247.311C85.2918 247.326 85.3073 247.337 85.3195 247.346C85.3321 247.356 85.3335 247.358 85.3303 247.355L85.5224 247.194L85.7145 247.034C85.6601 246.969 85.5843 246.92 85.547 246.895C85.4934 246.859 85.4733 246.846 85.4629 246.835L85.2861 247.012ZM85.5224 247.194L85.3624 247.387C85.4062 247.423 85.452 247.445 85.4845 247.458C85.5154 247.471 85.5496 247.481 85.5655 247.487C85.5755 247.49 85.5824 247.492 85.5879 247.495C85.5905 247.496 85.5924 247.496 85.5937 247.497C85.595 247.497 85.5956 247.498 85.5956 247.498C85.5956 247.498 85.5948 247.497 85.5934 247.496C85.592 247.496 85.5899 247.494 85.5873 247.492C85.5819 247.488 85.5744 247.482 85.5666 247.473L85.7587 247.313L85.9507 247.153C85.9083 247.102 85.8591 247.071 85.8207 247.051C85.7834 247.032 85.7464 247.02 85.7236 247.012C85.6952 247.003 85.6845 247 85.6734 246.995C85.664 246.991 85.6708 246.993 85.6824 247.002L85.5224 247.194ZM85.7587 247.313L85.639 247.532C85.7174 247.575 85.7795 247.597 85.8321 247.614C85.8826 247.63 85.9127 247.639 85.9559 247.658L86.0594 247.431L86.1628 247.203C86.0879 247.169 86.0268 247.151 85.986 247.138C85.9473 247.125 85.9181 247.115 85.8784 247.093L85.7587 247.313ZM86.0594 247.431L85.9762 247.666C86.1682 247.734 86.3081 247.778 86.4606 247.877L86.5964 247.667L86.7322 247.457C86.5195 247.319 86.3157 247.256 86.1426 247.195L86.0594 247.431ZM86.5964 247.667L86.5132 247.903C86.5864 247.929 86.659 247.966 86.7531 248.013C86.8405 248.056 86.9475 248.109 87.0628 248.143L87.1334 247.903L87.2039 247.663C87.1367 247.644 87.0665 247.61 86.9767 247.566C86.8935 247.524 86.7889 247.47 86.6796 247.431L86.5964 247.667ZM87.1334 247.903L87.0628 248.143C87.115 248.158 87.1636 248.186 87.2297 248.233C87.285 248.272 87.3857 248.352 87.4808 248.414L87.6167 248.204L87.7525 247.994C87.665 247.938 87.6154 247.894 87.5203 247.826C87.436 247.766 87.3343 247.702 87.2039 247.663L87.1334 247.903ZM87.6167 248.204L87.4808 248.414C87.6392 248.516 87.7412 248.618 87.8587 248.735L88.0355 248.558L88.2123 248.382C88.0936 248.263 87.9593 248.128 87.7525 247.994L87.6167 248.204ZM88.0355 248.558L87.8587 248.735C87.9178 248.794 87.9769 248.853 88.0359 248.912C88.095 248.971 88.1541 249.031 88.2131 249.09L88.3899 248.913L88.5667 248.736C88.5076 248.677 88.4486 248.618 88.3895 248.559C88.3304 248.5 88.2714 248.441 88.2123 248.382L88.0355 248.558ZM88.3899 248.913L88.2131 249.09C88.2447 249.121 88.2761 249.169 88.3086 249.234C88.3446 249.306 88.3633 249.358 88.3986 249.435L88.6262 249.332L88.8538 249.228C88.8353 249.188 88.795 249.089 88.7558 249.01C88.7132 248.925 88.6533 248.823 88.5667 248.736L88.3899 248.913ZM88.6262 249.332L88.3904 249.415C88.4495 249.582 88.5115 249.779 88.5852 249.927L88.8088 249.815L89.0324 249.703C88.9772 249.593 88.9318 249.446 88.8619 249.248L88.6262 249.332ZM88.8088 249.815L88.573 249.898C88.6212 250.035 88.6232 250.165 88.6232 250.352H88.8732H89.1232C89.1232 250.174 89.1252 249.96 89.0445 249.732L88.8088 249.815ZM88.8732 250.352H88.6232C88.6232 250.589 88.6222 250.741 88.5676 250.941L88.8088 251.007L89.05 251.073C89.1242 250.801 89.1232 250.588 89.1232 250.352H88.8732ZM88.8088 251.007L88.565 250.952C88.5148 251.172 88.4549 251.343 88.3904 251.525L88.6262 251.609L88.8619 251.692C88.9264 251.509 88.9953 251.314 89.0526 251.062L88.8088 251.007ZM88.6262 251.609L88.3904 251.525C88.3383 251.673 88.2416 251.815 88.1156 252.01L88.3255 252.145L88.5354 252.281C88.6456 252.111 88.7852 251.909 88.8619 251.692L88.6262 251.609ZM88.3255 252.145L88.1156 252.01C88.0166 252.163 87.9237 252.255 87.7708 252.354L87.9066 252.564L88.0424 252.774C88.2547 252.637 88.3981 252.494 88.5354 252.281L88.3255 252.145ZM87.9066 252.564L87.7708 252.354C87.6779 252.415 87.5878 252.475 87.4995 252.534C87.4106 252.593 87.3234 252.651 87.2338 252.709L87.3696 252.919L87.5055 253.129C87.5984 253.069 87.6884 253.008 87.7768 252.95C87.8656 252.89 87.9528 252.832 88.0424 252.774L87.9066 252.564ZM87.3696 252.919L87.2338 252.709C87.0885 252.803 86.8929 252.858 86.6977 252.915L86.7682 253.155L86.8388 253.395C87.0087 253.345 87.2856 253.271 87.5055 253.129L87.3696 252.919ZM86.7682 253.155V252.905H86.7038V253.155V253.405H86.7682V253.155ZM86.7038 253.155H86.4538V254.465H86.7038H86.9538V253.155H86.7038ZM86.7038 254.465V254.215H85.1465V254.465V254.715H86.7038V254.465ZM85.1465 254.465H85.3965V253.209H85.1465H84.8965V254.465H85.1465ZM85.1465 253.209V252.959H85.0284V253.209V253.459H85.1465V253.209ZM85.0284 253.209V252.959C84.959 252.959 84.8888 252.949 84.7973 252.935C84.7116 252.922 84.6046 252.905 84.4914 252.905V253.155V253.405C84.5608 253.405 84.6309 253.415 84.7224 253.429C84.8081 253.442 84.9152 253.459 85.0284 253.459V253.209ZM84.4914 253.155L84.5746 252.919C84.4617 252.879 84.3543 252.86 84.274 252.846C84.1847 252.83 84.1386 252.82 84.1042 252.806L84.0081 253.037L83.9119 253.268C84.0064 253.307 84.1107 253.325 84.1852 253.338C84.2687 253.353 84.3384 253.366 84.4082 253.391L84.4914 253.155ZM84.0081 253.037L83.7886 253.157C83.7878 253.155 83.785 253.15 83.7819 253.141C83.7788 253.132 83.7743 253.117 83.7724 253.097C83.7681 253.052 83.7783 252.989 83.825 252.934C83.8652 252.887 83.9111 252.872 83.9271 252.868C83.9447 252.863 83.9553 252.863 83.952 252.863C83.9443 252.864 83.9288 252.863 83.8919 252.859C83.863 252.856 83.8161 252.851 83.7718 252.851V253.101V253.351C83.7866 253.351 83.8068 253.353 83.8434 253.357C83.8719 253.359 83.9202 253.364 83.9648 253.363C83.9877 253.363 84.0217 253.36 84.0585 253.35C84.0938 253.341 84.1549 253.318 84.205 253.259C84.3269 253.117 84.2493 252.957 84.2276 252.917L84.0081 253.037Z" fill="#F58436" mask="url(#path-8-outside-1_339_114)"/>
</svg>
