<svg width="1366" height="856" viewBox="0 0 1366 856" fill="none" xmlns="http://www.w3.org/2000/svg">
<path d="M1220.12 30.7919C1520.54 -2.44068 1589.82 112.17 1568.42 250.93C1533.93 474.186 1202.39 978.487 957.039 828.644C722.53 685.427 549.364 436.565 553.058 325.835C556.684 216.664 829.727 73.9721 1220.08 30.7919H1220.13H1220.12Z" fill="#F58436"/>
<path d="M536.062 238.991C640.041 227.497 702.56 241.785 737.237 269.566C771.546 297.053 779.861 338.856 772.568 386.109C766.695 424.108 748.069 474.51 720.567 527.268C693.1 579.959 656.949 634.675 616.291 681.301C575.587 727.979 530.622 766.254 485.6 786.459C440.729 806.596 396.179 808.669 355.33 783.737C274.45 734.376 204.083 666.754 154.284 601.938C129.389 569.536 109.705 537.927 96.4248 509.753C83.0877 481.458 76.4347 457.099 77.0371 439.05V439.049C77.6003 422.104 88.7409 402.882 110.747 382.804C132.624 362.844 164.565 342.67 205.111 323.803C286.169 286.084 400.855 253.935 536.038 238.991L535.524 234.339V234.127L536.062 238.991Z" fill="#F58436" stroke="white" stroke-width="10"/>
<text fill="#F58436" xml:space="preserve" style="white-space: pre" font-family="Oxygen" font-size="55" letter-spacing="0em"><tspan x="129" y="172.253">Nossa agenda ESG</tspan></text>
<rect x="130" y="262" width="346" height="228" rx="14" fill="white" stroke="#F58436" stroke-width="2"/>
<text fill="#414042" xml:space="preserve" style="white-space: pre" font-family="Oxygen" font-size="18" font-weight="bold" letter-spacing="0.04em"><tspan x="192" y="331.119">Ampliar o uso de </tspan><tspan x="192" y="357.119">solu&#xe7;&#xf5;es el&#xe9;tricas e </tspan><tspan x="192" y="383.119">h&#xed;bridas para reduzir o </tspan><tspan x="192" y="409.119">consumo de </tspan><tspan x="192" y="435.119">combust&#xed;veis f&#xf3;sseis</tspan></text>
<rect x="510" y="262" width="346" height="228" rx="14" fill="white" stroke="#F58436" stroke-width="2"/>
<text fill="#414042" xml:space="preserve" style="white-space: pre" font-family="Oxygen" font-size="18" font-weight="bold" letter-spacing="0.04em"><tspan x="572" y="331.119">Promover efici&#xea;ncia </tspan><tspan x="572" y="357.119">energ&#xe9;tica com </tspan><tspan x="572" y="383.119">tecnologias como o </tspan><tspan x="572" y="409.119">Battery Energy Storage </tspan><tspan x="572" y="435.119">System (BESS.)</tspan></text>
<rect x="890" y="262" width="346" height="228" rx="14" fill="white" stroke="#F58436" stroke-width="2"/>
<text fill="#414042" xml:space="preserve" style="white-space: pre" font-family="Oxygen" font-size="18" font-weight="bold" letter-spacing="0.04em"><tspan x="952" y="344.119">Consolidar pr&#xe1;ticas </tspan><tspan x="952" y="370.119">ambientais como reuso </tspan><tspan x="952" y="396.119">de &#xe1;gua e gest&#xe3;o &#10;</tspan><tspan x="952" y="422.119">de res&#xed;duos</tspan></text>
<rect x="130" y="514" width="346" height="228" rx="14" fill="white" stroke="#F58436" stroke-width="2"/>
<text fill="#414042" xml:space="preserve" style="white-space: pre" font-family="Oxygen" font-size="18" font-weight="bold" letter-spacing="0.04em"><tspan x="192" y="596.119">Refor&#xe7;ar o </tspan><tspan x="192" y="622.119">compromisso com a </tspan><tspan x="192" y="648.119">sa&#xfa;de e seguran&#xe7;a </tspan><tspan x="192" y="674.119">dos colaboradores</tspan></text>
<rect x="510" y="514" width="346" height="228" rx="14" fill="white" stroke="#F58436" stroke-width="2"/>
<text fill="#414042" xml:space="preserve" style="white-space: pre" font-family="Oxygen" font-size="18" font-weight="bold" letter-spacing="0.04em"><tspan x="572" y="596.119">Avan&#xe7;ar na qualifica&#xe7;&#xe3;o </tspan><tspan x="572" y="622.119">t&#xe9;cnica com foco em </tspan><tspan x="572" y="648.119">inova&#xe7;&#xe3;o e menor </tspan><tspan x="572" y="674.119">impacto operacional</tspan></text>
<rect x="890" y="514" width="346" height="228" rx="14" fill="white" stroke="#F58436" stroke-width="2"/>
<text fill="#414042" xml:space="preserve" style="white-space: pre" font-family="Oxygen" font-size="18" font-weight="bold" letter-spacing="0.04em"><tspan x="952" y="570.119">Expandir a atua&#xe7;&#xe3;o em </tspan><tspan x="952" y="596.119">setores que exigem alta </tspan><tspan x="952" y="622.119">confiabilidade </tspan><tspan x="952" y="648.119">energ&#xe9;tica, como </tspan><tspan x="952" y="674.119">minera&#xe7;&#xe3;o, sa&#xfa;de e </tspan><tspan x="952" y="700.119">&#xf3;leo e g&#xe1;s</tspan></text>
</svg>
