<svg width="217" height="37" viewBox="0 0 217 37" fill="none" xmlns="http://www.w3.org/2000/svg">
<path d="M206.2 2.4437C191.383 2.673 182.849 8.62004 180.591 10.3104C185.595 8.28785 192.957 6.14774 201.889 6.00663C214.298 5.81261 211.88 15.1197 208.963 21.3784C211.622 17.6155 221.013 2.2144 206.197 2.4437M203.204 0.2301C214.983 -1.08983 217.701 3.46085 216.859 8.96986C215.506 17.8331 202.51 37.8525 192.89 31.9055C183.697 26.2201 176.907 16.3397 177.052 11.9448C177.194 7.61171 187.9 1.94395 203.204 0.2301ZM161.458 25.3029C157.978 25.3029 155.446 22.7777 155.446 18.9737C155.446 15.1697 157.978 12.6445 161.458 12.6445C164.939 12.6445 167.313 15.2079 167.313 19.0119C167.313 22.8159 164.901 25.3029 161.458 25.3029ZM170.991 9.16094H168.103C167.749 9.16094 167.548 9.40199 167.548 9.76064L167.47 12.4034C166.123 10.1193 163.83 8.67883 160.625 8.67883C155.087 8.67883 151.29 13.1648 151.29 18.9737C151.29 24.7826 155.087 29.2685 160.625 29.2685C163.789 29.2685 166.085 27.8663 167.47 25.5851L167.548 28.1897C167.548 28.5513 167.746 28.7923 168.103 28.7923H170.991C171.348 28.7923 171.546 28.5513 171.546 28.1897V9.76358C171.546 9.40199 171.348 9.16388 170.991 9.16388M150.265 9.12272C149.949 8.88167 149.356 8.68177 148.485 8.68177C146.152 8.68177 144.886 10.2045 144.175 12.1683L144.056 9.80474C144.056 9.32263 143.858 9.16388 143.504 9.16388H140.497C140.143 9.16388 139.942 9.40493 139.942 9.76358V28.1897C139.942 28.5513 140.14 28.7923 140.497 28.7923H143.661C144.015 28.7923 144.213 28.5513 144.213 28.1897V17.6156C144.213 15.0933 145.4 12.6886 148.445 12.6886C148.959 12.6886 149.394 12.7297 149.867 12.8885C150.343 13.009 150.619 12.8885 150.619 12.4475V9.88411C150.619 9.52252 150.541 9.32262 150.265 9.12272ZM122.302 17.4539C122.737 14.2084 124.99 12.327 128.035 12.327C131.08 12.327 133.179 14.2496 133.414 17.4539H122.299H122.302ZM128.035 8.67883C122.142 8.67883 118.186 13.1266 118.186 18.8943C118.186 24.662 122.299 29.2685 128.627 29.2685C131.356 29.2685 133.847 28.469 135.548 26.7875C135.864 26.467 135.942 26.226 135.707 25.9055L134.598 24.3828C134.439 24.1417 134.204 24.1005 133.966 24.2622C132.424 25.3029 130.88 25.785 128.981 25.785C125.144 25.785 122.851 23.7008 122.337 20.5758H135.391C136.854 20.5758 137.211 19.7351 137.211 18.0124C137.211 13.1266 133.849 8.67883 128.035 8.67883ZM105.489 24.5415C102.165 24.5415 99.6338 22.2574 99.6338 18.5739C99.6338 14.8904 102.165 12.6063 105.489 12.6063C108.813 12.6063 111.222 14.9286 111.222 18.615C111.222 22.3014 108.85 24.5445 105.489 24.5445M114.903 9.16094H112.014C111.66 9.16094 111.46 9.40199 111.46 9.76064L111.382 12.1242C110.078 9.96055 107.863 8.67883 104.696 8.67883C99.239 8.67883 95.4798 12.765 95.4798 18.5739C95.4798 24.3828 99.239 28.469 104.737 28.469C107.823 28.469 110.038 27.1872 111.341 25.103V27.7458C111.341 31.9907 108.217 33.4341 105.013 33.4341C103.193 33.4341 101.335 32.9549 99.6715 31.9525C99.3174 31.7526 98.9981 31.8731 98.8007 32.1906L97.8921 33.9133C97.7324 34.2749 97.8137 34.6747 98.1708 34.9157C99.9096 36.1975 102.522 37 105.37 37C110.276 37 115.457 34.5953 115.457 27.8693V9.76358C115.457 9.40199 115.26 9.16388 114.903 9.16388M83.735 25.2617C80.3735 25.2617 77.8016 22.7395 77.8016 18.9737C77.8016 15.2079 80.3735 12.6827 83.735 12.6827C87.0965 12.6827 89.6277 15.2079 89.6277 18.9737C89.6277 22.7395 87.0558 25.2617 83.735 25.2617ZM83.735 8.67883C77.9613 8.67883 73.6883 13.1648 73.6883 18.9737C73.6883 24.7826 77.9613 29.2685 83.735 29.2685C89.5087 29.2685 93.7439 24.7826 93.7439 18.9737C93.7439 13.1648 89.471 8.67883 83.735 8.67883ZM63.9551 8.67883C60.91 8.67883 58.971 10.2016 57.865 12.2035L57.7053 9.79885C57.7053 9.31674 57.5079 9.158 57.1509 9.158H54.1465C53.7894 9.158 53.592 9.39906 53.592 9.7577V28.1838C53.592 28.5454 53.7894 28.7864 54.1465 28.7864H57.3105C57.6676 28.7864 57.865 28.5454 57.865 28.1838V17.5303C57.865 14.4436 59.7634 12.6827 62.4921 12.6827C65.2208 12.6827 66.7244 14.4436 66.7244 17.5303V28.1838C66.7244 28.5454 66.9218 28.7864 67.2759 28.7864H70.3994C70.7564 28.7864 70.9945 28.5454 70.9945 28.1838V16.7278C70.9945 11.5597 68.0655 8.67589 63.9522 8.67589M48.9243 23.3009C48.6079 22.9805 48.2131 23.0599 47.9344 23.3392C46.8255 24.5003 45.5222 25.2617 43.5424 25.2617C39.8239 25.2617 37.2955 22.5396 37.2955 18.9325C37.2955 15.3255 39.8268 12.6827 43.467 12.6827C45.4844 12.6827 46.7878 13.4441 47.9373 14.6053C48.1753 14.8875 48.5701 14.9669 48.8865 14.6464L50.666 12.9238C50.904 12.6827 50.904 12.4034 50.666 12.083C49.0055 9.99876 46.4336 8.67883 43.2696 8.67883C37.4958 8.67883 33.1851 13.0855 33.1851 18.9325C33.1851 24.7796 37.5336 29.2685 43.3508 29.2685C46.4743 29.2685 49.0462 27.9457 50.7095 25.8644C50.9446 25.5439 50.9446 25.2647 50.7095 25.0236L48.9301 23.3009H48.9243ZM16.5316 17.4539C16.967 14.2084 19.2225 12.327 22.2676 12.327C25.3127 12.327 27.4085 14.2496 27.6465 17.4539H16.5316ZM22.2647 8.67883C16.372 8.67883 12.4154 13.1266 12.4154 18.8943C12.4154 24.662 16.5287 29.2685 22.8569 29.2685C25.5855 29.2685 28.0762 28.469 29.7772 26.7875C30.0936 26.467 30.172 26.226 29.9369 25.9055L28.8309 24.3828C28.6712 24.1417 28.4361 24.1005 28.1981 24.2622C26.6538 25.3029 25.1124 25.785 23.2139 25.785C19.3793 25.785 17.0831 23.7008 16.5693 20.5758H29.6234C31.0864 20.5758 31.4434 19.7351 31.4434 18.0124C31.4434 13.1266 28.082 8.67883 22.2676 8.67883M10.4792 9.16094H7.35577V4.55441C7.35577 4.19283 7.15838 3.95177 6.80133 3.95177H3.5966C3.24246 3.95177 3.04507 4.19283 3.04507 4.55441V9.16094H0.55154C0.197395 9.16094 0 9.40199 0 9.76064V12.0036C0 12.3623 0.197395 12.6033 0.55154 12.6033H3.04507V23.98C3.04507 27.6253 5.21929 29.0275 8.1076 29.0275C9.29486 29.0275 11.0366 28.7894 11.0366 27.9868V25.8232C11.0366 25.4234 10.7985 25.2235 10.3254 25.3029C9.88994 25.3411 9.41678 25.3411 9.10037 25.3411C7.99439 25.3411 7.36157 24.7796 7.36157 23.4597V12.6033H10.485C10.8392 12.6033 11.0772 12.3623 11.0772 12.0036V9.76064C11.0772 9.39905 10.8392 9.16094 10.485 9.16094" fill="#F58436"/>
</svg>
