<svg width="260" height="31" viewBox="0 0 260 31" fill="none" xmlns="http://www.w3.org/2000/svg">
<path d="M37.4819 23L30.939 4.83594H32.6724L36.7983 16.5425C36.9611 17.0715 37.1401 17.6208 37.3354 18.1904C37.5389 18.752 37.7139 19.2606 37.8604 19.7163C38.0068 20.172 38.1574 20.7091 38.312 21.3276C38.369 21.0347 38.4504 20.7173 38.5562 20.3755C38.6701 20.0337 38.8532 19.4884 39.1055 18.7397C39.3659 17.9829 39.6182 17.2261 39.8623 16.4692C40.4564 14.5812 41.1644 12.5874 41.9863 10.4878C42.8083 8.38818 43.4878 6.50423 44.0249 4.83594H45.7827L39.1543 23H37.4819ZM53.7407 22.0845C54.7173 22.0845 55.5392 21.8281 56.2065 21.3154C56.882 20.7946 57.3703 20.111 57.6714 19.2646C57.9806 18.4183 58.1353 17.4458 58.1353 16.3472C58.1353 14.6219 57.769 13.2344 57.0366 12.1846C56.3042 11.1348 55.1893 10.6099 53.6919 10.6099C52.7153 10.6099 51.8812 10.8743 51.1895 11.4033C50.5059 11.9242 50.0054 12.6118 49.688 13.4663C49.3706 14.3127 49.2119 15.2852 49.2119 16.3838C49.2119 18.0521 49.5985 19.4193 50.3716 20.4854C51.1528 21.5514 52.2759 22.0845 53.7407 22.0845ZM53.6309 23.293C52.4183 23.293 51.3481 22.9878 50.4204 22.3774C49.5008 21.7671 48.7969 20.9411 48.3086 19.8994C47.8285 18.8496 47.5884 17.6655 47.5884 16.3472C47.5884 15.3543 47.7267 14.4347 48.0034 13.5884C48.2882 12.7339 48.6911 11.9974 49.2119 11.3789C49.7327 10.7523 50.3797 10.264 51.1528 9.91406C51.9259 9.55599 52.7845 9.37695 53.7285 9.37695C54.9818 9.37695 56.0682 9.6862 56.9878 10.3047C57.9074 10.915 58.5951 11.741 59.0508 12.7827C59.5146 13.8162 59.7466 14.9963 59.7466 16.3228C59.7466 17.6574 59.5106 18.8455 59.0386 19.8872C58.5666 20.9289 57.8626 21.759 56.9268 22.3774C55.9909 22.9878 54.8923 23.293 53.6309 23.293ZM67.0942 23.2808C65.9712 23.2808 65.1493 23.0285 64.6284 22.5239C64.1076 22.0112 63.8472 21.1812 63.8472 20.0337V4.4209L65.3364 4.29883V19.9482C65.3364 20.762 65.4829 21.3236 65.7759 21.6328C66.077 21.9421 66.5286 22.0967 67.1309 22.0967C67.6191 22.0967 68.2295 22.0031 68.9619 21.8159L69.0229 22.9878C68.2254 23.1831 67.5825 23.2808 67.0942 23.2808ZM75.6016 23.2808C74.4785 23.2808 73.6566 23.0285 73.1357 22.5239C72.6149 22.0112 72.3545 21.1812 72.3545 20.0337V10.7319H70.4624L70.5723 9.81641L72.3789 9.64551L72.7817 6.58154L73.8438 6.5083V9.62109H77.75V10.7319H73.8438V19.7163C73.8438 20.6603 73.9984 21.2951 74.3076 21.6206C74.6169 21.938 75.1621 22.0967 75.9434 22.0967C76.4479 22.0967 77.0745 22.0031 77.8232 21.8159L77.8843 22.9878C76.8996 23.1831 76.1387 23.2808 75.6016 23.2808ZM84.6582 23.293C83.3968 23.293 82.3877 22.9756 81.6309 22.3408C80.874 21.7061 80.4956 20.7987 80.4956 19.6187C80.4956 18.9188 80.6462 18.3125 80.9473 17.7998C81.2484 17.279 81.6838 16.8599 82.2534 16.5425C82.8312 16.217 83.4863 15.9647 84.2188 15.7856C84.9593 15.6066 85.8179 15.4805 86.7944 15.4072C87.8361 15.3421 88.6092 15.2892 89.1138 15.2485V13.7593C89.1138 12.7339 88.8778 11.9648 88.4058 11.4521C87.9419 10.9313 87.1932 10.6709 86.1597 10.6709C84.7437 10.6709 83.4212 11.0086 82.1924 11.6841C82.1598 11.6027 82.0825 11.4277 81.9604 11.1592C81.8465 10.8825 81.7651 10.6709 81.7163 10.5244C82.2209 10.1989 82.88 9.92627 83.6938 9.70654C84.5076 9.48682 85.3052 9.37695 86.0864 9.37695C87.6896 9.37695 88.8411 9.72282 89.541 10.4146C90.2409 11.0981 90.5908 12.3148 90.5908 14.0645V23H89.4067C89.366 22.8128 89.305 22.4425 89.2236 21.8892C89.1504 21.3358 89.1138 21.0509 89.1138 21.0347C88.064 22.5402 86.5788 23.293 84.6582 23.293ZM84.707 22.0845C85.7487 22.0845 86.6724 21.7793 87.478 21.1689C88.2918 20.5505 88.8249 19.696 89.0771 18.6055V16.3228C87.9053 16.4204 87.3153 16.4692 87.3071 16.4692C85.3215 16.6483 83.9421 16.9738 83.1689 17.4458C82.3958 17.9178 82.0093 18.6502 82.0093 19.6431C82.0093 20.4569 82.2534 21.0672 82.7417 21.4741C83.2381 21.881 83.8932 22.0845 84.707 22.0845ZM95.2651 23C95.2489 15.1468 95.2407 10.6872 95.2407 9.62109H96.4858L96.5835 12.2578C97.0636 11.4603 97.674 10.8092 98.4146 10.3047C99.1551 9.80013 99.9282 9.54785 100.734 9.54785C101.068 9.54785 101.426 9.57633 101.808 9.6333L101.698 10.8906C101.405 10.8418 101.096 10.8174 100.771 10.8174C99.6393 10.8174 98.6872 11.265 97.9141 12.1602C97.1491 13.0472 96.7666 14.1011 96.7666 15.3218V23H95.2651ZM111.645 28.957V9.62109H113L113.134 11.5254C113.761 10.8092 114.396 10.2721 115.039 9.91406C115.69 9.55599 116.446 9.37695 117.309 9.37695C119.213 9.37695 120.638 10.0117 121.582 11.2812C122.534 12.5426 123.01 14.272 123.01 16.4692C123.01 18.4712 122.509 20.111 121.508 21.3887C120.507 22.6582 119.152 23.293 117.443 23.293C116.564 23.293 115.734 23.0854 114.953 22.6704C114.172 22.2554 113.553 21.7101 113.098 21.0347C113.138 22.0356 113.159 23.0203 113.159 23.9888V28.8472L111.645 28.957ZM117.346 22.0479C118.037 22.0479 118.652 21.881 119.189 21.5474C119.726 21.2137 120.153 20.7702 120.471 20.2168C120.788 19.6634 121.024 19.0612 121.179 18.4102C121.341 17.751 121.423 17.0674 121.423 16.3594C121.423 15.6432 121.346 14.9596 121.191 14.3086C121.036 13.6576 120.8 13.0553 120.483 12.502C120.174 11.9404 119.746 11.4928 119.201 11.1592C118.656 10.8255 118.033 10.6587 117.333 10.6587C116.577 10.6587 115.922 10.797 115.368 11.0737C114.823 11.3423 114.388 11.7288 114.062 12.2334C113.745 12.738 113.513 13.3117 113.366 13.9546C113.22 14.5975 113.146 15.3218 113.146 16.1274C113.146 17.0552 113.216 17.8649 113.354 18.5566C113.492 19.2484 113.716 19.8669 114.025 20.4121C114.343 20.9492 114.778 21.3561 115.332 21.6328C115.885 21.9095 116.556 22.0479 117.346 22.0479ZM130.431 23.293C129.169 23.293 128.16 22.9756 127.403 22.3408C126.646 21.7061 126.268 20.7987 126.268 19.6187C126.268 18.9188 126.419 18.3125 126.72 17.7998C127.021 17.279 127.456 16.8599 128.026 16.5425C128.604 16.217 129.259 15.9647 129.991 15.7856C130.732 15.6066 131.59 15.4805 132.567 15.4072C133.609 15.3421 134.382 15.2892 134.886 15.2485V13.7593C134.886 12.7339 134.65 11.9648 134.178 11.4521C133.714 10.9313 132.966 10.6709 131.932 10.6709C130.516 10.6709 129.194 11.0086 127.965 11.6841C127.932 11.6027 127.855 11.4277 127.733 11.1592C127.619 10.8825 127.538 10.6709 127.489 10.5244C127.993 10.1989 128.653 9.92627 129.466 9.70654C130.28 9.48682 131.078 9.37695 131.859 9.37695C133.462 9.37695 134.614 9.72282 135.313 10.4146C136.013 11.0981 136.363 12.3148 136.363 14.0645V23H135.179C135.139 22.8128 135.077 22.4425 134.996 21.8892C134.923 21.3358 134.886 21.0509 134.886 21.0347C133.836 22.5402 132.351 23.293 130.431 23.293ZM130.479 22.0845C131.521 22.0845 132.445 21.7793 133.25 21.1689C134.064 20.5505 134.597 19.696 134.85 18.6055V16.3228C133.678 16.4204 133.088 16.4692 133.08 16.4692C131.094 16.6483 129.715 16.9738 128.941 17.4458C128.168 17.9178 127.782 18.6502 127.782 19.6431C127.782 20.4569 128.026 21.0672 128.514 21.4741C129.011 21.881 129.666 22.0845 130.479 22.0845ZM141.038 23C141.021 15.1468 141.013 10.6872 141.013 9.62109H142.258L142.356 12.2578C142.836 11.4603 143.446 10.8092 144.187 10.3047C144.928 9.80013 145.701 9.54785 146.506 9.54785C146.84 9.54785 147.198 9.57633 147.581 9.6333L147.471 10.8906C147.178 10.8418 146.868 10.8174 146.543 10.8174C145.412 10.8174 144.46 11.265 143.687 12.1602C142.922 13.0472 142.539 14.1011 142.539 15.3218V23H141.038ZM154.184 23.293C152.922 23.293 151.913 22.9756 151.156 22.3408C150.399 21.7061 150.021 20.7987 150.021 19.6187C150.021 18.9188 150.172 18.3125 150.473 17.7998C150.774 17.279 151.209 16.8599 151.779 16.5425C152.357 16.217 153.012 15.9647 153.744 15.7856C154.485 15.6066 155.343 15.4805 156.32 15.4072C157.361 15.3421 158.135 15.2892 158.639 15.2485V13.7593C158.639 12.7339 158.403 11.9648 157.931 11.4521C157.467 10.9313 156.719 10.6709 155.685 10.6709C154.269 10.6709 152.947 11.0086 151.718 11.6841C151.685 11.6027 151.608 11.4277 151.486 11.1592C151.372 10.8825 151.291 10.6709 151.242 10.5244C151.746 10.1989 152.405 9.92627 153.219 9.70654C154.033 9.48682 154.831 9.37695 155.612 9.37695C157.215 9.37695 158.367 9.72282 159.066 10.4146C159.766 11.0981 160.116 12.3148 160.116 14.0645V23H158.932C158.891 22.8128 158.83 22.4425 158.749 21.8892C158.676 21.3358 158.639 21.0509 158.639 21.0347C157.589 22.5402 156.104 23.293 154.184 23.293ZM154.232 22.0845C155.274 22.0845 156.198 21.7793 157.003 21.1689C157.817 20.5505 158.35 19.696 158.603 18.6055V16.3228C157.431 16.4204 156.841 16.4692 156.833 16.4692C154.847 16.6483 153.467 16.9738 152.694 17.4458C151.921 17.9178 151.535 18.6502 151.535 19.6431C151.535 20.4569 151.779 21.0672 152.267 21.4741C152.764 21.881 153.419 22.0845 154.232 22.0845ZM176.972 22.0845C177.949 22.0845 178.771 21.8281 179.438 21.3154C180.113 20.7946 180.602 20.111 180.903 19.2646C181.212 18.4183 181.367 17.4458 181.367 16.3472C181.367 14.6219 181 13.2344 180.268 12.1846C179.536 11.1348 178.421 10.6099 176.923 10.6099C175.947 10.6099 175.113 10.8743 174.421 11.4033C173.737 11.9242 173.237 12.6118 172.919 13.4663C172.602 14.3127 172.443 15.2852 172.443 16.3838C172.443 18.0521 172.83 19.4193 173.603 20.4854C174.384 21.5514 175.507 22.0845 176.972 22.0845ZM176.862 23.293C175.65 23.293 174.58 22.9878 173.652 22.3774C172.732 21.7671 172.028 20.9411 171.54 19.8994C171.06 18.8496 170.82 17.6655 170.82 16.3472C170.82 15.3543 170.958 14.4347 171.235 13.5884C171.52 12.7339 171.923 11.9974 172.443 11.3789C172.964 10.7523 173.611 10.264 174.384 9.91406C175.157 9.55599 176.016 9.37695 176.96 9.37695C178.213 9.37695 179.3 9.6862 180.219 10.3047C181.139 10.915 181.826 11.741 182.282 12.7827C182.746 13.8162 182.978 14.9963 182.978 16.3228C182.978 17.6574 182.742 18.8455 182.27 19.8872C181.798 20.9289 181.094 21.759 180.158 22.3774C179.222 22.9878 178.124 23.293 176.862 23.293ZM193.779 23V9.62109H195.305V23H193.779ZM193.779 6.88672V4.83594H195.293V6.88672H193.779ZM200.065 23V9.62109H201.383L201.591 11.6841C202.071 10.9679 202.714 10.4064 203.52 9.99951C204.333 9.58447 205.208 9.37695 206.144 9.37695C207.682 9.37695 208.813 9.80013 209.538 10.6465C210.262 11.4928 210.624 12.8438 210.624 14.6992V23H209.098V14.0156C209.057 12.8275 208.805 11.973 208.341 11.4521C207.877 10.9313 207.117 10.6709 206.059 10.6709C204.846 10.6709 203.853 10.9761 203.08 11.5864C202.315 12.1968 201.835 12.9862 201.64 13.9546C201.607 14.3371 201.591 14.7358 201.591 15.1509V23H200.065ZM215.323 8.13184L217.691 3.40771H219.571L216.238 8.13184H215.323ZM215.018 23V9.62109H216.543V23H215.018ZM226.296 23.293C225.002 23.293 223.879 22.9756 222.927 22.3408C221.975 21.7061 221.267 20.88 220.803 19.8628C220.339 18.8374 220.107 17.6981 220.107 16.4448C220.107 15.4845 220.245 14.5812 220.522 13.7349C220.799 12.8885 221.189 12.1398 221.694 11.4888C222.207 10.8377 222.862 10.325 223.659 9.95068C224.465 9.5682 225.36 9.37695 226.345 9.37695C226.988 9.37695 227.626 9.4624 228.261 9.6333C228.904 9.8042 229.38 10.0076 229.689 10.2437L229.213 11.3789C228.375 10.9069 227.382 10.6709 226.235 10.6709C224.843 10.6709 223.741 11.1999 222.927 12.2578C222.113 13.3076 221.706 14.7033 221.706 16.4448C221.706 18.1131 222.109 19.464 222.915 20.4976C223.728 21.5229 224.835 22.0356 226.235 22.0356C227.211 22.0356 228.261 21.7915 229.384 21.3032L229.616 22.3896C229.234 22.6745 228.737 22.8942 228.127 23.0488C227.517 23.2116 226.906 23.293 226.296 23.293ZM233.668 23V9.62109H235.194V23H233.668ZM233.668 6.88672V4.83594H235.182V6.88672H233.668ZM245.496 22.0845C246.472 22.0845 247.294 21.8281 247.961 21.3154C248.637 20.7946 249.125 20.111 249.426 19.2646C249.736 18.4183 249.89 17.4458 249.89 16.3472C249.89 14.6219 249.524 13.2344 248.792 12.1846C248.059 11.1348 246.944 10.6099 245.447 10.6099C244.47 10.6099 243.636 10.8743 242.944 11.4033C242.261 11.9242 241.76 12.6118 241.443 13.4663C241.125 14.3127 240.967 15.2852 240.967 16.3838C240.967 18.0521 241.353 19.4193 242.126 20.4854C242.908 21.5514 244.031 22.0845 245.496 22.0845ZM245.386 23.293C244.173 23.293 243.103 22.9878 242.175 22.3774C241.256 21.7671 240.552 20.9411 240.063 19.8994C239.583 18.8496 239.343 17.6655 239.343 16.3472C239.343 15.3543 239.482 14.4347 239.758 13.5884C240.043 12.7339 240.446 11.9974 240.967 11.3789C241.488 10.7523 242.135 10.264 242.908 9.91406C243.681 9.55599 244.539 9.37695 245.483 9.37695C246.737 9.37695 247.823 9.6862 248.743 10.3047C249.662 10.915 250.35 11.741 250.806 12.7827C251.27 13.8162 251.501 14.9963 251.501 16.3228C251.501 17.6574 251.265 18.8455 250.793 19.8872C250.321 20.9289 249.618 21.759 248.682 22.3774C247.746 22.9878 246.647 23.293 245.386 23.293Z" fill="#414042"/>
<path d="M8.30769 23V5.69774L1.03846 13.113L0 12.1808L9 3L18 12.1808L16.9615 13.113L9.69231 5.69774V23H8.30769Z" fill="#414042"/>
</svg>
