<svg width="141" height="130" viewBox="0 0 141 130" fill="none" xmlns="http://www.w3.org/2000/svg">
<path d="M50.1028 17.0914C65.2366 7.09737 82.2973 2.93554 97.7566 12.2563C112.012 20.8542 120.84 36.2084 127.826 51.6527C131.28 59.2969 134.358 67.6501 135.556 75.8857C136.716 83.8575 136.108 91.658 132.436 98.5964L132.071 99.2652C127.725 107.006 120.492 111.898 112.003 115.153C103.504 118.411 93.8332 119.994 84.7276 121.169C72.2762 122.768 59.8237 124.359 47.5499 122.698C35.478 121.064 23.5288 115.918 16.127 106.504L15.7782 106.053L15.2903 105.396C5.25371 91.5144 6.75124 71.4881 14.938 56.0483L14.9564 56.0268L15.0017 55.9416C22.0082 42.7707 34.9732 27.0828 50.1028 17.0914Z" fill="white" stroke="#F58436" stroke-width="2"/>
<path d="M75.4932 38.7002C81.1648 37.7407 86.5481 37.6561 90.5117 37.8115C92.4938 37.8893 94.1223 38.0272 95.2559 38.1455C95.8225 38.2047 96.2655 38.2592 96.5674 38.2988C96.7181 38.3186 96.834 38.3345 96.9121 38.3457C96.9509 38.3513 96.9809 38.3554 97.001 38.3584L97.0303 38.3633H97.0312C97.3049 38.404 97.5241 38.597 97.6084 38.8525L97.6367 38.9668V38.9697L97.6416 38.999C97.6446 39.0191 97.6487 39.0491 97.6543 39.0879C97.6655 39.166 97.6814 39.2819 97.7012 39.4326C97.7408 39.7345 97.7953 40.1775 97.8545 40.7441C97.9728 41.8777 98.1107 43.5061 98.1885 45.4883C98.3439 49.4519 98.2593 54.8351 97.2998 60.5068C96.0155 68.1057 93.1532 76.2392 87.1943 82.1943C81.2388 88.1499 73.1053 91.012 65.5068 92.2998C59.8352 93.2593 54.4519 93.3439 50.4883 93.1885C48.5062 93.1107 46.8777 92.9728 45.7441 92.8545C45.1775 92.7953 44.7345 92.7408 44.4326 92.7012C44.2819 92.6814 44.166 92.6655 44.0879 92.6543C44.0491 92.6487 44.0191 92.6446 43.999 92.6416L43.9697 92.6367H43.9678L43.9648 92.6357C43.8179 92.6112 43.6791 92.5463 43.5664 92.4336C43.4576 92.3248 43.3835 92.1855 43.3623 92.0273C43.3622 92.0265 43.3625 92.0255 43.3623 92.0244C43.3615 92.0193 43.3599 92.011 43.3584 92.001C43.3554 91.9809 43.3513 91.9509 43.3457 91.9121C43.3345 91.834 43.3186 91.7181 43.2988 91.5674C43.2592 91.2655 43.2047 90.8225 43.1455 90.2559C43.0272 89.1223 42.8893 87.4939 42.8115 85.5117C42.6561 81.5481 42.7407 76.1649 43.7002 70.4932C44.9845 62.8942 47.8502 54.7607 53.8057 48.8057C59.7612 42.8506 67.8947 39.988 75.4932 38.7002ZM96.2734 39.7227C94.0647 39.4379 85.3104 38.5061 75.7295 40.127C68.368 41.3727 60.5341 44.1181 54.8242 49.8271C49.1148 55.5365 46.3691 63.3708 45.124 70.7324C43.6743 79.2999 44.2674 87.2017 44.6113 90.3604L55.0479 79.9229L55.4883 63.0859C55.4984 62.6858 55.8284 62.3698 56.2295 62.3799C56.6274 62.3901 56.9418 62.722 56.9316 63.1221L56.5322 78.4355L66.4717 68.4961L66.5879 51.335V51.334C66.5929 50.9359 66.9166 50.6132 67.3164 50.6182C67.7093 50.6232 68.0353 50.9446 68.0312 51.3447L67.9268 67.0381L80.0518 54.9131L80.3945 46.0918L80.415 45.9463C80.4949 45.6185 80.7954 45.3824 81.1455 45.3955C81.5418 45.4108 81.857 45.746 81.8418 46.1475L81.5605 53.4072L87.1592 47.8096C87.4397 47.5291 87.9012 47.5291 88.1816 47.8096C88.4618 48.09 88.4619 48.5507 88.1816 48.8311L82.5898 54.4209L89.8438 54.1523C90.2459 54.1373 90.5764 54.4492 90.5918 54.8477C90.6052 55.196 90.3682 55.4965 90.041 55.5762L89.8955 55.5957L81.0859 55.9248L68.9473 68.0635L84.6416 67.959H84.6426C85.0389 67.959 85.3667 68.2753 85.3682 68.6748L85.3652 68.749C85.3321 69.1162 85.023 69.4019 84.6504 69.4023L67.4893 69.5186L57.5498 79.458L72.8643 79.0557L73.0117 79.0664C73.3436 79.1257 73.5976 79.4117 73.6064 79.7617C73.6163 80.1627 73.3004 80.4928 72.9004 80.5029L56.0625 80.9424L45.6211 91.3838C48.7696 91.7278 56.6856 92.3282 65.2637 90.873L65.9561 90.752C73.1163 89.453 80.6375 86.7033 86.1689 81.1729C91.8784 75.4634 94.625 67.6293 95.8701 60.2676C97.4913 50.6821 96.5581 41.9299 96.2734 39.7227Z" fill="#F58436" stroke="#F58436" stroke-width="0.5"/>
</svg>
