<svg width="33" height="64" viewBox="0 0 33 64" fill="none" xmlns="http://www.w3.org/2000/svg">
<path d="M28.5277 8.19188C28.5055 5.31365 25.7601 3.37638 23.203 3.37638H21.8635V0.896678C21.8635 0.409594 21.4649 0 20.9779 0H12.8856C12.3985 0 12 0.398523 12 0.896678V3.37638H10.6162C7.69373 3.37638 5.57934 5.40222 5.5572 8.19188H5.32473C3.30996 8.19188 1.72694 8.87823 0.741695 10.1734C-2.04547e-06 11.0037 0 11.8782 0 12.4539V58.4502C0 58.4502 0 58.5277 0 58.572C0.332103 60.9742 2.92251 63.2546 5.31365 63.2546H28.4723C31.3063 63.2546 33 60.5092 33 57.8635V12.4539C33 9.79705 31.3173 8.20295 28.5166 8.19188M31.2509 57.8635C31.2509 59.6015 30.1882 61.4723 28.4834 61.4723H5.32473C3.8524 61.4723 2.00369 59.8672 1.76015 58.3838V12.4539C1.76015 11.9336 1.77122 11.6679 2.05904 11.3469C2.08118 11.3247 2.09225 11.3026 2.11439 11.2804C2.92251 10.1956 4.30627 9.97417 5.32473 9.97417H6.4428C6.92989 9.97417 7.32841 9.57564 7.32841 9.08856V8.23616C7.32841 6.43173 8.67897 5.16974 10.6273 5.16974H12.8967C13.3838 5.16974 13.7823 4.77122 13.7823 4.28413V1.80443H20.1033V4.28413C20.1033 4.78229 20.5018 5.16974 20.9889 5.16974H23.214C24.8745 5.16974 26.7233 6.44281 26.7786 8.16974C26.7786 8.19188 26.7565 8.22509 26.7454 8.24723C26.6568 8.43542 26.5129 8.72325 26.5129 9.09963C26.5129 9.58672 26.9114 9.98524 27.3985 9.98524H28.5055C30.3432 9.98524 31.2731 10.8155 31.2731 12.4649V57.8745L31.2509 57.8635Z" fill="white"/>
<path d="M16.8376 30.1329L17.3247 29.4576L19.428 21.4761L16.1734 25.9373L14.059 28.262L13.3616 29.2362L12.6974 30.1329L10.3616 33.2104H13.1291H14.059H15.2435H16.1734L13.6162 42.1329L14.9889 40.2621L15.6863 39.3211L21.5092 31.7823L22.6494 30.1329H18.7306H16.8376Z" fill="white"/>
</svg>
