<svg width="141" height="130" viewBox="0 0 141 130" fill="none" xmlns="http://www.w3.org/2000/svg">
<path d="M50.1028 17.0914C65.2366 7.09737 82.2973 2.93554 97.7566 12.2563C112.012 20.8542 120.84 36.2084 127.826 51.6527C131.28 59.2969 134.358 67.6501 135.556 75.8857C136.716 83.8575 136.108 91.658 132.436 98.5964L132.071 99.2652C127.725 107.006 120.492 111.898 112.003 115.153C103.504 118.411 93.8332 119.994 84.7276 121.169C72.2762 122.768 59.8237 124.359 47.5499 122.698C35.478 121.064 23.5288 115.918 16.127 106.504L15.7782 106.053L15.2903 105.396C5.25371 91.5144 6.75124 71.4881 14.938 56.0483L14.9564 56.0268L15.0017 55.9416C22.0082 42.7707 34.9732 27.0828 50.1028 17.0914Z" fill="white" stroke="#F58436" stroke-width="2"/>
<mask id="path-2-outside-1_356_113" maskUnits="userSpaceOnUse" x="45" y="36" width="51" height="60" fill="black">
<rect fill="white" x="45" y="36" width="51" height="60"/>
<path d="M51.1658 93.502H59.4033V72.4305H51.1658V93.502ZM66.5237 93.5664H74.7611V74.0415H66.5237V93.5664ZM81.9246 93.5664H90.162V63.4736H81.9246V93.5664ZM46.7518 95.07C46.3329 95.07 46 94.7371 46 94.3182C46 93.8994 46.3329 93.5664 46.7518 93.5664H49.673V71.7432C49.673 71.3243 50.0059 70.9914 50.4248 70.9914H60.1013C60.5202 70.9914 60.8531 71.3243 60.8531 71.7432V93.5664H65.0846V73.2897C65.0846 72.8709 65.4175 72.5379 65.8364 72.5379H75.4485C75.8673 72.5379 76.2003 72.8709 76.2003 73.2897V93.5664H80.4317V62.7862C80.4317 62.3674 80.7647 62.0344 81.1835 62.0344H90.8601C91.2789 62.0344 91.6119 62.3674 91.6119 62.7862V93.5664H94.5653C94.909 93.5664 95.3171 93.8994 95.3171 94.3182C95.3171 94.7371 94.9841 95.07 94.5653 95.07H46.7625H46.7518ZM69.8638 67.2432L80.9795 58.4581C81.3017 58.2111 81.3554 57.7707 81.0976 57.4163C80.958 57.2338 80.7647 57.1371 80.5391 57.1371C80.3673 57.1371 80.2062 57.1908 80.0666 57.2982L69.2839 65.8363L55.3973 60.0368C55.2792 59.9939 55.161 59.9724 55.0536 59.9724C54.914 59.9724 54.7851 60.0154 54.667 60.112L50.1456 63.3125C49.8019 63.5702 49.7267 64.0213 49.9845 64.3757C50.1026 64.569 50.3604 64.6335 50.5429 64.6335C50.704 64.6335 50.8222 64.6012 50.951 64.5153L55.1503 61.5082L69.0905 67.3077C69.2087 67.3506 69.3375 67.3721 69.4557 67.3721C69.6168 67.3721 69.7564 67.3291 69.8638 67.2432ZM86.0164 38.568C81.7205 38.568 78.2301 42.0584 78.2301 46.3543C78.2301 50.6503 81.7205 54.1407 86.0164 54.1407C90.3123 54.1407 93.8028 50.6503 93.8028 46.3543C93.8028 42.0584 90.3123 38.568 86.0164 38.568ZM86.0164 55.5906C80.8936 55.5906 76.7265 51.445 76.7265 46.3543C76.7265 41.2637 80.8936 37 86.0164 37C91.1393 37 95.3063 41.167 95.3063 46.2899C95.3063 51.4128 91.1393 55.5798 86.0164 55.5798M83.7718 51.1013C83.5892 51.0369 83.4711 50.9832 83.353 50.9188L83.1704 50.8006V50.5643L83.2885 49.4259L83.353 49.0071L83.7074 49.1897C83.7718 49.1897 83.8255 49.2434 83.89 49.2434C83.9544 49.2434 84.0081 49.3078 84.0725 49.3078C84.1907 49.3722 84.3732 49.4259 84.4914 49.4259C84.6095 49.4904 84.7921 49.4904 84.9102 49.5441C85.0284 49.5441 85.1465 49.6085 85.2646 49.6085C85.3828 49.6085 85.5009 49.6085 85.6191 49.6622H86.0916C86.2097 49.6622 86.3279 49.6622 86.3923 49.6085C86.5105 49.6085 86.5749 49.5441 86.693 49.4904C86.8112 49.4259 86.8756 49.3722 86.9293 49.3078C86.9938 49.2434 87.0474 49.1897 87.1119 49.0715C87.1763 49.0178 87.1763 48.8889 87.23 48.8352V48.5345C87.23 48.4164 87.23 48.3519 87.1763 48.2338C87.1119 48.1694 87.1119 48.0512 87.0582 47.9975L86.8756 47.815C86.8112 47.7505 86.7575 47.6968 86.6393 47.6324C86.5856 47.5679 86.4568 47.5142 86.4031 47.5142C86.3386 47.4498 86.2205 47.4498 86.1023 47.3961C85.9198 47.3424 85.7479 47.278 85.5654 47.1598C85.3828 47.0954 85.2109 46.9773 85.0284 46.9236C84.8458 46.8591 84.674 46.741 84.5451 46.6228C84.4269 46.5047 84.2444 46.4403 84.1262 46.2684L83.7718 45.914C83.6537 45.7959 83.5892 45.6133 83.4711 45.4952C83.4067 45.3126 83.353 45.1408 83.2885 44.9582C83.2348 44.7756 83.2348 44.6038 83.2348 44.4212C83.2348 44.1849 83.2348 44.0023 83.2885 43.7661C83.353 43.5835 83.4067 43.3472 83.4711 43.1646C83.5355 42.9821 83.6537 42.8102 83.7718 42.6276C83.89 42.4451 84.0081 42.3269 84.1907 42.1444C84.3732 42.0262 84.4914 41.9081 84.674 41.7899C84.8565 41.6718 85.0284 41.6074 85.2109 41.5537H85.2646V40.2434H86.8219V41.5H86.94C87.0582 41.5 87.1226 41.5644 87.2408 41.5644C87.3589 41.5644 87.477 41.6181 87.5415 41.6181C87.6059 41.6181 87.7241 41.6825 87.7778 41.6825C87.8315 41.6825 87.8959 41.7362 88.014 41.7362L88.2503 41.8007L88.1859 42.037L88.0677 43.1109L88.0033 43.4653L87.6489 43.3472C87.5844 43.3472 87.5307 43.2828 87.4126 43.2828C87.3482 43.2828 87.2945 43.2183 87.1763 43.2183C87.0582 43.2183 86.94 43.1539 86.8219 43.1539C86.7038 43.1539 86.5856 43.0895 86.4675 43.0895H85.9949C85.8768 43.0895 85.7587 43.0895 85.6405 43.1539C85.5224 43.2183 85.458 43.2183 85.3398 43.272C85.2754 43.3365 85.1572 43.3902 85.1035 43.4546C85.0498 43.519 84.9854 43.6372 84.9854 43.6909C84.921 43.7553 84.921 43.8735 84.921 43.9916V44.2923C84.921 44.4105 84.9854 44.4749 84.9854 44.593C85.0498 44.6467 85.0498 44.7756 85.1035 44.8293C85.168 44.8937 85.2217 44.9474 85.2861 45.0119C85.3506 45.0763 85.4687 45.13 85.5224 45.1945C85.5868 45.2482 85.705 45.2482 85.7587 45.3126C85.8768 45.377 85.9412 45.377 86.0594 45.4307C86.242 45.4952 86.4138 45.5489 86.5964 45.667C86.7789 45.7314 86.9508 45.8496 87.1334 45.9033C87.3159 45.957 87.4341 46.0859 87.6167 46.204C87.7992 46.3221 87.9174 46.4403 88.0355 46.5584C88.1536 46.6765 88.2718 46.7947 88.3899 46.9128C88.5081 47.031 88.5725 47.2135 88.6262 47.3317C88.6906 47.5142 88.7443 47.6861 88.8088 47.815C88.8732 47.9975 88.8732 48.1694 88.8732 48.3519C88.8732 48.5882 88.8732 48.7708 88.8088 49.0071C88.7551 49.2434 88.6906 49.4259 88.6262 49.6085C88.5618 49.7911 88.4436 49.9629 88.3255 50.1455C88.2073 50.3281 88.0892 50.4462 87.9066 50.5643C87.7241 50.6825 87.5522 50.8006 87.3696 50.9188C87.1871 51.0369 86.9508 51.1013 86.7682 51.155H86.7038V52.4653H85.1465V51.2087H85.0284C84.8458 51.2087 84.674 51.155 84.4914 51.155C84.3088 51.0906 84.137 51.0906 84.0081 51.0369C84.0725 51.155 83.89 51.1013 83.7718 51.1013Z"/>
</mask>
<path d="M51.1658 93.502H59.4033V72.4305H51.1658V93.502ZM66.5237 93.5664H74.7611V74.0415H66.5237V93.5664ZM81.9246 93.5664H90.162V63.4736H81.9246V93.5664ZM46.7518 95.07C46.3329 95.07 46 94.7371 46 94.3182C46 93.8994 46.3329 93.5664 46.7518 93.5664H49.673V71.7432C49.673 71.3243 50.0059 70.9914 50.4248 70.9914H60.1013C60.5202 70.9914 60.8531 71.3243 60.8531 71.7432V93.5664H65.0846V73.2897C65.0846 72.8709 65.4175 72.5379 65.8364 72.5379H75.4485C75.8673 72.5379 76.2003 72.8709 76.2003 73.2897V93.5664H80.4317V62.7862C80.4317 62.3674 80.7647 62.0344 81.1835 62.0344H90.8601C91.2789 62.0344 91.6119 62.3674 91.6119 62.7862V93.5664H94.5653C94.909 93.5664 95.3171 93.8994 95.3171 94.3182C95.3171 94.7371 94.9841 95.07 94.5653 95.07H46.7625H46.7518ZM69.8638 67.2432L80.9795 58.4581C81.3017 58.2111 81.3554 57.7707 81.0976 57.4163C80.958 57.2338 80.7647 57.1371 80.5391 57.1371C80.3673 57.1371 80.2062 57.1908 80.0666 57.2982L69.2839 65.8363L55.3973 60.0368C55.2792 59.9939 55.161 59.9724 55.0536 59.9724C54.914 59.9724 54.7851 60.0154 54.667 60.112L50.1456 63.3125C49.8019 63.5702 49.7267 64.0213 49.9845 64.3757C50.1026 64.569 50.3604 64.6335 50.5429 64.6335C50.704 64.6335 50.8222 64.6012 50.951 64.5153L55.1503 61.5082L69.0905 67.3077C69.2087 67.3506 69.3375 67.3721 69.4557 67.3721C69.6168 67.3721 69.7564 67.3291 69.8638 67.2432ZM86.0164 38.568C81.7205 38.568 78.2301 42.0584 78.2301 46.3543C78.2301 50.6503 81.7205 54.1407 86.0164 54.1407C90.3123 54.1407 93.8028 50.6503 93.8028 46.3543C93.8028 42.0584 90.3123 38.568 86.0164 38.568ZM86.0164 55.5906C80.8936 55.5906 76.7265 51.445 76.7265 46.3543C76.7265 41.2637 80.8936 37 86.0164 37C91.1393 37 95.3063 41.167 95.3063 46.2899C95.3063 51.4128 91.1393 55.5798 86.0164 55.5798M83.7718 51.1013C83.5892 51.0369 83.4711 50.9832 83.353 50.9188L83.1704 50.8006V50.5643L83.2885 49.4259L83.353 49.0071L83.7074 49.1897C83.7718 49.1897 83.8255 49.2434 83.89 49.2434C83.9544 49.2434 84.0081 49.3078 84.0725 49.3078C84.1907 49.3722 84.3732 49.4259 84.4914 49.4259C84.6095 49.4904 84.7921 49.4904 84.9102 49.5441C85.0284 49.5441 85.1465 49.6085 85.2646 49.6085C85.3828 49.6085 85.5009 49.6085 85.6191 49.6622H86.0916C86.2097 49.6622 86.3279 49.6622 86.3923 49.6085C86.5105 49.6085 86.5749 49.5441 86.693 49.4904C86.8112 49.4259 86.8756 49.3722 86.9293 49.3078C86.9938 49.2434 87.0474 49.1897 87.1119 49.0715C87.1763 49.0178 87.1763 48.8889 87.23 48.8352V48.5345C87.23 48.4164 87.23 48.3519 87.1763 48.2338C87.1119 48.1694 87.1119 48.0512 87.0582 47.9975L86.8756 47.815C86.8112 47.7505 86.7575 47.6968 86.6393 47.6324C86.5856 47.5679 86.4568 47.5142 86.4031 47.5142C86.3386 47.4498 86.2205 47.4498 86.1023 47.3961C85.9198 47.3424 85.7479 47.278 85.5654 47.1598C85.3828 47.0954 85.2109 46.9773 85.0284 46.9236C84.8458 46.8591 84.674 46.741 84.5451 46.6228C84.4269 46.5047 84.2444 46.4403 84.1262 46.2684L83.7718 45.914C83.6537 45.7959 83.5892 45.6133 83.4711 45.4952C83.4067 45.3126 83.353 45.1408 83.2885 44.9582C83.2348 44.7756 83.2348 44.6038 83.2348 44.4212C83.2348 44.1849 83.2348 44.0023 83.2885 43.7661C83.353 43.5835 83.4067 43.3472 83.4711 43.1646C83.5355 42.9821 83.6537 42.8102 83.7718 42.6276C83.89 42.4451 84.0081 42.3269 84.1907 42.1444C84.3732 42.0262 84.4914 41.9081 84.674 41.7899C84.8565 41.6718 85.0284 41.6074 85.2109 41.5537H85.2646V40.2434H86.8219V41.5H86.94C87.0582 41.5 87.1226 41.5644 87.2408 41.5644C87.3589 41.5644 87.477 41.6181 87.5415 41.6181C87.6059 41.6181 87.7241 41.6825 87.7778 41.6825C87.8315 41.6825 87.8959 41.7362 88.014 41.7362L88.2503 41.8007L88.1859 42.037L88.0677 43.1109L88.0033 43.4653L87.6489 43.3472C87.5844 43.3472 87.5307 43.2828 87.4126 43.2828C87.3482 43.2828 87.2945 43.2183 87.1763 43.2183C87.0582 43.2183 86.94 43.1539 86.8219 43.1539C86.7038 43.1539 86.5856 43.0895 86.4675 43.0895H85.9949C85.8768 43.0895 85.7587 43.0895 85.6405 43.1539C85.5224 43.2183 85.458 43.2183 85.3398 43.272C85.2754 43.3365 85.1572 43.3902 85.1035 43.4546C85.0498 43.519 84.9854 43.6372 84.9854 43.6909C84.921 43.7553 84.921 43.8735 84.921 43.9916V44.2923C84.921 44.4105 84.9854 44.4749 84.9854 44.593C85.0498 44.6467 85.0498 44.7756 85.1035 44.8293C85.168 44.8937 85.2217 44.9474 85.2861 45.0119C85.3506 45.0763 85.4687 45.13 85.5224 45.1945C85.5868 45.2482 85.705 45.2482 85.7587 45.3126C85.8768 45.377 85.9412 45.377 86.0594 45.4307C86.242 45.4952 86.4138 45.5489 86.5964 45.667C86.7789 45.7314 86.9508 45.8496 87.1334 45.9033C87.3159 45.957 87.4341 46.0859 87.6167 46.204C87.7992 46.3221 87.9174 46.4403 88.0355 46.5584C88.1536 46.6765 88.2718 46.7947 88.3899 46.9128C88.5081 47.031 88.5725 47.2135 88.6262 47.3317C88.6906 47.5142 88.7443 47.6861 88.8088 47.815C88.8732 47.9975 88.8732 48.1694 88.8732 48.3519C88.8732 48.5882 88.8732 48.7708 88.8088 49.0071C88.7551 49.2434 88.6906 49.4259 88.6262 49.6085C88.5618 49.7911 88.4436 49.9629 88.3255 50.1455C88.2073 50.3281 88.0892 50.4462 87.9066 50.5643C87.7241 50.6825 87.5522 50.8006 87.3696 50.9188C87.1871 51.0369 86.9508 51.1013 86.7682 51.155H86.7038V52.4653H85.1465V51.2087H85.0284C84.8458 51.2087 84.674 51.155 84.4914 51.155C84.3088 51.0906 84.137 51.0906 84.0081 51.0369C84.0725 51.155 83.89 51.1013 83.7718 51.1013Z" fill="#F58436"/>
<path d="M51.1658 93.502H50.9158V93.752H51.1658V93.502ZM59.4033 93.502V93.752H59.6533V93.502H59.4033ZM59.4033 72.4305H59.6533V72.1805H59.4033V72.4305ZM51.1658 72.4305V72.1805H50.9158V72.4305H51.1658ZM66.5237 93.5664H66.2737V93.8164H66.5237V93.5664ZM74.7611 93.5664V93.8164H75.0111V93.5664H74.7611ZM74.7611 74.0415H75.0111V73.7915H74.7611V74.0415ZM66.5237 74.0415V73.7915H66.2737V74.0415H66.5237ZM81.9246 93.5664H81.6746V93.8164H81.9246V93.5664ZM90.162 93.5664V93.8164H90.412V93.5664H90.162ZM90.162 63.4736H90.412V63.2236H90.162V63.4736ZM81.9246 63.4736V63.2236H81.6746V63.4736H81.9246ZM49.673 93.5664V93.8164H49.923V93.5664H49.673ZM60.8531 93.5664H60.6031V93.8164H60.8531V93.5664ZM65.0846 93.5664V93.8164H65.3346V93.5664H65.0846ZM76.2003 93.5664H75.9503V93.8164H76.2003V93.5664ZM80.4317 93.5664V93.8164H80.6817V93.5664H80.4317ZM91.6119 93.5664H91.3619V93.8164H91.6119V93.5664ZM69.8638 67.2432L69.7088 67.0471L69.7076 67.048L69.8638 67.2432ZM80.9795 58.4581L80.8274 58.2597L80.8245 58.2619L80.9795 58.4581ZM81.0976 57.4163L81.2999 57.2692L81.2962 57.2645L81.0976 57.4163ZM80.0666 57.2982L79.9142 57.1L79.9114 57.1022L80.0666 57.2982ZM69.2839 65.8363L69.1875 66.067L69.3235 66.1238L69.439 66.0323L69.2839 65.8363ZM55.3973 60.0368L55.4938 59.8059L55.4827 59.8019L55.3973 60.0368ZM54.667 60.112L54.8114 60.3161L54.8186 60.311L54.8253 60.3055L54.667 60.112ZM50.1456 63.3125L50.0011 63.1083L49.9956 63.1125L50.1456 63.3125ZM49.9845 64.3757L50.1978 64.2453L50.1925 64.2368L50.1866 64.2287L49.9845 64.3757ZM50.951 64.5153L51.0898 64.7234L51.0966 64.7186L50.951 64.5153ZM55.1503 61.5082L55.2463 61.2774L55.1179 61.2239L55.0047 61.3049L55.1503 61.5082ZM69.0905 67.3077L68.9944 67.5387L69.0051 67.5426L69.0905 67.3077ZM83.7718 51.1013L83.6886 51.3371L83.729 51.3513H83.7718V51.1013ZM83.353 50.9188L83.2171 51.1286L83.225 51.1337L83.2332 51.1382L83.353 50.9188ZM83.1704 50.8006H82.9204V50.9366L83.0346 51.0105L83.1704 50.8006ZM83.1704 50.5643L82.9217 50.5385L82.9204 50.5514V50.5643H83.1704ZM83.2885 49.4259L83.0411 49.3879L83.0399 49.4001L83.2885 49.4259ZM83.353 49.0071L83.4675 48.7848L83.1587 48.6258L83.1059 48.9691L83.353 49.0071ZM83.7074 49.1897L83.5929 49.4119L83.6468 49.4397H83.7074V49.1897ZM84.0725 49.3078L84.1922 49.0883L84.1363 49.0578H84.0725V49.3078ZM84.4914 49.4259L84.6111 49.2065L84.5551 49.1759H84.4914V49.4259ZM84.9102 49.5441L84.8068 49.7717L84.8561 49.7941H84.9102V49.5441ZM85.6191 49.6622L85.5156 49.8898L85.5649 49.9122H85.6191V49.6622ZM86.3923 49.6085V49.3585H86.3018L86.2323 49.4165L86.3923 49.6085ZM86.693 49.4904L86.7965 49.718L86.8048 49.7142L86.8128 49.7098L86.693 49.4904ZM86.9293 49.3078L86.7525 49.131L86.7445 49.139L86.7373 49.1477L86.9293 49.3078ZM87.1119 49.0715L86.9518 48.8795L86.9152 48.91L86.8924 48.9518L87.1119 49.0715ZM87.23 48.8352L87.4068 49.012L87.48 48.9388V48.8352H87.23ZM87.1763 48.2338L87.4039 48.1304L87.3852 48.0891L87.3531 48.057L87.1763 48.2338ZM87.0582 47.9975L86.8814 48.1743V48.1743L87.0582 47.9975ZM86.8756 47.815L87.0524 47.6382L87.0524 47.6382L86.8756 47.815ZM86.6393 47.6324L86.4473 47.7924L86.4778 47.829L86.5196 47.8519L86.6393 47.6324ZM86.4031 47.5142L86.2263 47.691L86.2995 47.7642H86.4031V47.5142ZM86.1023 47.3961L86.2058 47.1685L86.1898 47.1612L86.1729 47.1563L86.1023 47.3961ZM85.5654 47.1598L85.7012 46.9499L85.6764 46.9339L85.6486 46.9241L85.5654 47.1598ZM85.0284 46.9236L84.945 47.1596L84.9578 47.1634L85.0284 46.9236ZM84.5451 46.6228L84.3681 46.7998L84.3761 46.8071L84.5451 46.6228ZM84.1262 46.2684L84.3322 46.1268L84.3192 46.1079L84.303 46.0917L84.1262 46.2684ZM83.7718 45.914L83.595 46.0908L83.7718 45.914ZM83.4711 45.4952L83.2354 45.5784L83.2542 45.6318L83.2943 45.6719L83.4711 45.4952ZM83.2885 44.9582L83.0483 45.0288L83.0528 45.0414L83.2885 44.9582ZM83.2885 43.7661L83.0528 43.6829L83.048 43.6965L83.0447 43.7107L83.2885 43.7661ZM84.1907 42.1444L84.0549 41.9345L84.0326 41.9489L84.0139 41.9676L84.1907 42.1444ZM85.2109 41.5537V41.3037H85.1749L85.1404 41.3138L85.2109 41.5537ZM85.2646 41.5537V41.8037H85.5146V41.5537H85.2646ZM85.2646 40.2434V39.9934H85.0146V40.2434H85.2646ZM86.8219 40.2434H87.0719V39.9934H86.8219V40.2434ZM86.8219 41.5H86.5719V41.75H86.8219V41.5ZM88.014 41.7362L88.0798 41.4951L88.0475 41.4862H88.014V41.7362ZM88.2503 41.8007L88.4915 41.8665L88.5573 41.6253L88.3161 41.5595L88.2503 41.8007ZM88.1859 42.037L87.9447 41.9712L87.9395 41.9901L87.9374 42.0096L88.1859 42.037ZM88.0677 43.1109L88.3137 43.1557L88.3153 43.147L88.3162 43.1383L88.0677 43.1109ZM88.0033 43.4653L87.9242 43.7025L88.1977 43.7937L88.2493 43.5101L88.0033 43.4653ZM87.6489 43.3472L87.7279 43.11L87.6894 43.0972H87.6489V43.3472ZM85.3398 43.272L85.2364 43.0444L85.1951 43.0632L85.163 43.0953L85.3398 43.272ZM84.9854 43.6909L85.1622 43.8677L85.2354 43.7944V43.6909H84.9854ZM84.9854 44.593H84.7354V44.7101L84.8254 44.7851L84.9854 44.593ZM85.1035 44.8293L84.9268 45.0061L85.1035 44.8293ZM85.2861 45.0119L85.1093 45.1887L85.2861 45.0119ZM85.5224 45.1945L85.3303 45.3545L85.3449 45.372L85.3624 45.3865L85.5224 45.1945ZM85.7587 45.3126L85.5666 45.4726L85.5971 45.5092L85.639 45.5321L85.7587 45.3126ZM86.0594 45.4307L85.9559 45.6583L85.9659 45.6628L85.9762 45.6665L86.0594 45.4307ZM86.5964 45.667L86.4606 45.8769L86.4853 45.8929L86.5132 45.9028L86.5964 45.667ZM88.6262 47.3317L88.8619 47.2485L88.8583 47.2382L88.8538 47.2282L88.6262 47.3317ZM88.8088 47.815L89.0445 47.7318L89.0393 47.7171L89.0324 47.7032L88.8088 47.815ZM88.8088 49.0071L88.5674 48.9412L88.565 48.9517L88.8088 49.0071ZM86.7682 51.155V51.405H86.8042L86.8388 51.3949L86.7682 51.155ZM86.7038 51.155V50.905H86.4538V51.155H86.7038ZM86.7038 52.4653V52.7153H86.9538V52.4653H86.7038ZM85.1465 52.4653H84.8965V52.7153H85.1465V52.4653ZM85.1465 51.2087H85.3965V50.9587H85.1465V51.2087ZM84.4914 51.155L84.4082 51.3908L84.4486 51.405H84.4914V51.155ZM84.0081 51.0369L84.1042 50.8061L83.4484 50.5329L83.7886 51.1566L84.0081 51.0369ZM51.1658 93.502V93.752H59.4033V93.502V93.252H51.1658V93.502ZM59.4033 93.502H59.6533V72.4305H59.4033H59.1533V93.502H59.4033ZM59.4033 72.4305V72.1805H51.1658V72.4305V72.6805H59.4033V72.4305ZM51.1658 72.4305H50.9158V93.502H51.1658H51.4158V72.4305H51.1658ZM66.5237 93.5664V93.8164H74.7611V93.5664V93.3164H66.5237V93.5664ZM74.7611 93.5664H75.0111V74.0415H74.7611H74.5111V93.5664H74.7611ZM74.7611 74.0415V73.7915H66.5237V74.0415V74.2915H74.7611V74.0415ZM66.5237 74.0415H66.2737V93.5664H66.5237H66.7737V74.0415H66.5237ZM81.9246 93.5664V93.8164H90.162V93.5664V93.3164H81.9246V93.5664ZM90.162 93.5664H90.412V63.4736H90.162H89.912V93.5664H90.162ZM90.162 63.4736V63.2236H81.9246V63.4736V63.7236H90.162V63.4736ZM81.9246 63.4736H81.6746V93.5664H81.9246H82.1746V63.4736H81.9246ZM46.7518 95.07V94.82C46.471 94.82 46.25 94.599 46.25 94.3182H46H45.75C45.75 94.8751 46.1949 95.32 46.7518 95.32V95.07ZM46 94.3182H46.25C46.25 94.0374 46.471 93.8164 46.7518 93.8164V93.5664V93.3164C46.1949 93.3164 45.75 93.7613 45.75 94.3182H46ZM46.7518 93.5664V93.8164H49.673V93.5664V93.3164H46.7518V93.5664ZM49.673 93.5664H49.923V71.7432H49.673H49.423V93.5664H49.673ZM49.673 71.7432H49.923C49.923 71.4624 50.144 71.2414 50.4248 71.2414V70.9914V70.7414C49.8679 70.7414 49.423 71.1863 49.423 71.7432H49.673ZM50.4248 70.9914V71.2414H60.1013V70.9914V70.7414H50.4248V70.9914ZM60.1013 70.9914V71.2414C60.3821 71.2414 60.6031 71.4624 60.6031 71.7432H60.8531H61.1031C61.1031 71.1863 60.6583 70.7414 60.1013 70.7414V70.9914ZM60.8531 71.7432H60.6031V93.5664H60.8531H61.1031V71.7432H60.8531ZM60.8531 93.5664V93.8164H65.0846V93.5664V93.3164H60.8531V93.5664ZM65.0846 93.5664H65.3346V73.2897H65.0846H64.8346V93.5664H65.0846ZM65.0846 73.2897H65.3346C65.3346 73.0089 65.5556 72.7879 65.8364 72.7879V72.5379V72.2879C65.2795 72.2879 64.8346 72.7328 64.8346 73.2897H65.0846ZM65.8364 72.5379V72.7879H75.4485V72.5379V72.2879H65.8364V72.5379ZM75.4485 72.5379V72.7879C75.7293 72.7879 75.9503 73.0089 75.9503 73.2897H76.2003H76.4503C76.4503 72.7328 76.0054 72.2879 75.4485 72.2879V72.5379ZM76.2003 73.2897H75.9503V93.5664H76.2003H76.4503V73.2897H76.2003ZM76.2003 93.5664V93.8164H80.4317V93.5664V93.3164H76.2003V93.5664ZM80.4317 93.5664H80.6817V62.7862H80.4317H80.1817V93.5664H80.4317ZM80.4317 62.7862H80.6817C80.6817 62.5054 80.9027 62.2844 81.1835 62.2844V62.0344V61.7844C80.6266 61.7844 80.1817 62.2293 80.1817 62.7862H80.4317ZM81.1835 62.0344V62.2844H90.8601V62.0344V61.7844H81.1835V62.0344ZM90.8601 62.0344V62.2844C91.1409 62.2844 91.3619 62.5054 91.3619 62.7862H91.6119H91.8619C91.8619 62.2293 91.417 61.7844 90.8601 61.7844V62.0344ZM91.6119 62.7862H91.3619V93.5664H91.6119H91.8619V62.7862H91.6119ZM91.6119 93.5664V93.8164H94.5653V93.5664V93.3164H91.6119V93.5664ZM94.5653 93.5664V93.8164C94.6617 93.8164 94.791 93.8666 94.8993 93.9678C95.0053 94.0669 95.0671 94.1923 95.0671 94.3182H95.3171H95.5671C95.5671 94.0252 95.4248 93.7747 95.2408 93.6027C95.0592 93.4328 94.8126 93.3164 94.5653 93.3164V93.5664ZM95.3171 94.3182H95.0671C95.0671 94.599 94.8461 94.82 94.5653 94.82V95.07V95.32C95.1222 95.32 95.5671 94.8751 95.5671 94.3182H95.3171ZM94.5653 95.07V94.82H46.7625V95.07V95.32H94.5653V95.07ZM46.7625 95.07V94.82H46.7518V95.07V95.32H46.7625V95.07ZM69.8638 67.2432L70.0188 67.4394L81.1345 58.6542L80.9795 58.4581L80.8245 58.2619L69.7088 67.0471L69.8638 67.2432ZM80.9795 58.4581L81.1316 58.6565C81.5718 58.319 81.6294 57.7225 81.2998 57.2693L81.0976 57.4163L80.8954 57.5634C81.0813 57.819 81.0316 58.1031 80.8274 58.2597L80.9795 58.4581ZM81.0976 57.4163L81.2962 57.2645C81.1103 57.0214 80.8443 56.8871 80.5391 56.8871V57.1371V57.3871C80.6851 57.3871 80.8056 57.4461 80.899 57.5682L81.0976 57.4163ZM80.5391 57.1371V56.8871C80.3125 56.8871 80.0978 56.9588 79.9142 57.1L80.0666 57.2982L80.219 57.4963C80.3147 57.4228 80.4221 57.3871 80.5391 57.3871V57.1371ZM80.0666 57.2982L79.9114 57.1022L69.1287 65.6403L69.2839 65.8363L69.439 66.0323L80.2218 57.4942L80.0666 57.2982ZM69.2839 65.8363L69.3802 65.6056L55.4937 59.8061L55.3973 60.0368L55.301 60.2675L69.1875 66.067L69.2839 65.8363ZM55.3973 60.0368L55.4827 59.8019C55.3403 59.7501 55.1933 59.7224 55.0536 59.7224V59.9724V60.2224C55.1287 60.2224 55.218 60.2376 55.3119 60.2718L55.3973 60.0368ZM55.0536 59.9724V59.7224C54.8572 59.7224 54.6722 59.7848 54.5087 59.9185L54.667 60.112L54.8253 60.3055C54.8981 60.2459 54.9709 60.2224 55.0536 60.2224V59.9724ZM54.667 60.112L54.5226 59.908L50.0011 63.1084L50.1456 63.3125L50.29 63.5165L54.8114 60.3161L54.667 60.112ZM50.1456 63.3125L49.9956 63.1125C49.5446 63.4506 49.4426 64.0557 49.7823 64.5227L49.9845 64.3757L50.1866 64.2287C50.0108 63.9868 50.0591 63.6898 50.2956 63.5125L50.1456 63.3125ZM49.9845 64.3757L49.7711 64.5061C49.8667 64.6625 50.0121 64.7561 50.1477 64.8096C50.2834 64.8632 50.4253 64.8835 50.5429 64.8835V64.6335V64.3835C50.478 64.3835 50.3997 64.3715 50.3313 64.3445C50.2629 64.3175 50.2203 64.2822 50.1978 64.2453L49.9845 64.3757ZM50.5429 64.6335V64.8835C50.7478 64.8835 50.9153 64.8396 51.0897 64.7233L50.951 64.5153L50.8124 64.3073C50.729 64.3629 50.6603 64.3835 50.5429 64.3835V64.6335ZM50.951 64.5153L51.0966 64.7186L55.2958 61.7114L55.1503 61.5082L55.0047 61.3049L50.8055 64.3121L50.951 64.5153ZM55.1503 61.5082L55.0543 61.739L68.9945 67.5385L69.0905 67.3077L69.1866 67.0768L55.2463 61.2774L55.1503 61.5082ZM69.0905 67.3077L69.0051 67.5426C69.1513 67.5958 69.3092 67.6221 69.4557 67.6221V67.3721V67.1221C69.3659 67.1221 69.266 67.1055 69.176 67.0727L69.0905 67.3077ZM69.4557 67.3721V67.6221C69.6612 67.6221 69.8595 67.5668 70.02 67.4384L69.8638 67.2432L69.7076 67.048C69.6533 67.0914 69.5724 67.1221 69.4557 67.1221V67.3721ZM86.0164 38.568V38.318C81.5824 38.318 77.9801 41.9204 77.9801 46.3543H78.2301H78.4801C78.4801 42.1965 81.8586 38.818 86.0164 38.818V38.568ZM78.2301 46.3543H77.9801C77.9801 50.7883 81.5824 54.3907 86.0164 54.3907V54.1407V53.8907C81.8586 53.8907 78.4801 50.5122 78.4801 46.3543H78.2301ZM86.0164 54.1407V54.3907C90.4504 54.3907 94.0528 50.7883 94.0528 46.3543H93.8028H93.5528C93.5528 50.5122 90.1743 53.8907 86.0164 53.8907V54.1407ZM93.8028 46.3543H94.0528C94.0528 41.9204 90.4504 38.318 86.0164 38.318V38.568V38.818C90.1743 38.818 93.5528 42.1965 93.5528 46.3543H93.8028ZM86.0164 55.5906V55.3406C81.0303 55.3406 76.9765 51.3056 76.9765 46.3543H76.7265H76.4765C76.4765 51.5844 80.7568 55.8406 86.0164 55.8406V55.5906ZM76.7265 46.3543H76.9765C76.9765 41.399 81.0344 37.25 86.0164 37.25V37V36.75C80.7527 36.75 76.4765 41.1284 76.4765 46.3543H76.7265ZM86.0164 37V37.25C91.0012 37.25 95.0563 41.3051 95.0563 46.2899H95.3063H95.5563C95.5563 41.029 91.2774 36.75 86.0164 36.75V37ZM95.3063 46.2899H95.0563C95.0563 51.2747 91.0012 55.3298 86.0164 55.3298V55.5798V55.8298C91.2774 55.8298 95.5563 51.5509 95.5563 46.2899H95.3063ZM83.7718 51.1013L83.855 50.8656C83.6835 50.805 83.5777 50.7566 83.4727 50.6993L83.353 50.9188L83.2332 51.1382C83.3645 51.2098 83.495 51.2688 83.6886 51.3371L83.7718 51.1013ZM83.353 50.9188L83.4888 50.7089L83.3062 50.5907L83.1704 50.8006L83.0346 51.0105L83.2171 51.1286L83.353 50.9188ZM83.1704 50.8006H83.4204V50.5643H83.1704H82.9204V50.8006H83.1704ZM83.1704 50.5643L83.4191 50.5902L83.5372 49.4517L83.2885 49.4259L83.0399 49.4001L82.9217 50.5385L83.1704 50.5643ZM83.2885 49.4259L83.5356 49.4639L83.6001 49.0451L83.353 49.0071L83.1059 48.9691L83.0414 49.3879L83.2885 49.4259ZM83.353 49.0071L83.2385 49.2293L83.5929 49.4119L83.7074 49.1897L83.8219 48.9674L83.4675 48.7848L83.353 49.0071ZM83.7074 49.1897V49.4397C83.6885 49.4397 83.6763 49.4357 83.675 49.4352C83.6743 49.435 83.6753 49.4353 83.6789 49.4368C83.6829 49.4385 83.6873 49.4405 83.6952 49.4441C83.7078 49.4498 83.7346 49.4622 83.7642 49.4721C83.7958 49.4827 83.8389 49.4934 83.89 49.4934V49.2434V48.9934C83.9088 48.9934 83.921 48.9973 83.9224 48.9978C83.923 48.998 83.922 48.9977 83.9184 48.9962C83.9145 48.9945 83.91 48.9925 83.9021 48.9889C83.8895 48.9832 83.8628 48.9708 83.8331 48.9609C83.8015 48.9504 83.7585 48.9397 83.7074 48.9397V49.1897ZM83.89 49.2434V49.4934C83.864 49.4934 83.8469 49.4868 83.8438 49.4855C83.8426 49.4851 83.8442 49.4856 83.8615 49.495C83.8738 49.5017 83.9017 49.5173 83.933 49.5298C83.9664 49.5432 84.0144 49.5578 84.0725 49.5578V49.3078V49.0578C84.0985 49.0578 84.1156 49.0643 84.1187 49.0656C84.1198 49.066 84.1182 49.0655 84.101 49.0561C84.0887 49.0494 84.0608 49.0338 84.0294 49.0213C83.9961 49.008 83.9481 48.9934 83.89 48.9934V49.2434ZM84.0725 49.3078L83.9528 49.5273C84.0985 49.6068 84.3221 49.6759 84.4914 49.6759V49.4259V49.1759C84.4244 49.1759 84.2828 49.1377 84.1922 49.0883L84.0725 49.3078ZM84.4914 49.4259L84.3717 49.6454C84.4699 49.699 84.5834 49.7207 84.6526 49.7343C84.7409 49.7517 84.7808 49.7599 84.8068 49.7717L84.9102 49.5441L85.0137 49.3165C84.9215 49.2746 84.811 49.2559 84.749 49.2437C84.6679 49.2278 84.631 49.2173 84.6111 49.2065L84.4914 49.4259ZM84.9102 49.5441V49.7941C84.9299 49.7941 84.9561 49.7996 85.0217 49.8175C85.0742 49.8318 85.1662 49.8585 85.2646 49.8585V49.6085V49.3585C85.2449 49.3585 85.2188 49.353 85.1532 49.3351C85.1007 49.3208 85.0087 49.2941 84.9102 49.2941V49.5441ZM85.2646 49.6085V49.8585C85.3891 49.8585 85.4538 49.8617 85.5156 49.8898L85.6191 49.6622L85.7225 49.4346C85.548 49.3553 85.3765 49.3585 85.2646 49.3585V49.6085ZM85.6191 49.6622V49.9122H86.0916V49.6622V49.4122H85.6191V49.6622ZM86.0916 49.6622V49.9122C86.1467 49.9122 86.2226 49.9126 86.2939 49.9035C86.362 49.8947 86.4652 49.8732 86.5524 49.8006L86.3923 49.6085L86.2323 49.4165C86.245 49.4058 86.2544 49.4028 86.2535 49.4031C86.2524 49.4035 86.2456 49.4056 86.2303 49.4075C86.1968 49.4118 86.1547 49.4122 86.0916 49.4122V49.6622ZM86.3923 49.6085V49.8585C86.5033 49.8585 86.5881 49.8264 86.6545 49.7932C86.6836 49.7786 86.714 49.7612 86.7341 49.7501C86.7569 49.7375 86.7761 49.7272 86.7965 49.718L86.693 49.4904L86.5896 49.2628C86.5509 49.2804 86.5178 49.2983 86.4915 49.3129C86.4626 49.3289 86.4474 49.3377 86.4309 49.346C86.406 49.3584 86.3995 49.3585 86.3923 49.3585V49.6085ZM86.693 49.4904L86.8128 49.7098C86.9517 49.6341 87.0431 49.5618 87.1214 49.4678L86.9293 49.3078L86.7373 49.1477C86.7082 49.1827 86.6707 49.2178 86.5733 49.2709L86.693 49.4904ZM86.9293 49.3078L87.1061 49.4846C87.1762 49.4145 87.2498 49.3408 87.3314 49.1912L87.1119 49.0715L86.8924 48.9518C86.8451 49.0385 86.8113 49.0722 86.7525 49.131L86.9293 49.3078ZM87.1119 49.0715L87.2719 49.2636C87.3254 49.219 87.3565 49.1666 87.375 49.1283C87.3933 49.0906 87.4056 49.0529 87.4128 49.0303C87.4221 49.0018 87.4252 48.992 87.4286 48.9837C87.432 48.9756 87.4269 48.992 87.4068 49.012L87.23 48.8352L87.0532 48.6585C87.0063 48.7054 86.9811 48.7579 86.9673 48.7908C86.9537 48.8235 86.9427 48.8593 86.9371 48.8764C86.9296 48.8995 86.9265 48.9074 86.9249 48.9107C86.9236 48.9133 86.9306 48.8972 86.9518 48.8795L87.1119 49.0715ZM87.23 48.8352H87.48V48.5345H87.23H86.98V48.8352H87.23ZM87.23 48.5345H87.48C87.48 48.4797 87.4805 48.4149 87.4706 48.3478C87.4599 48.2749 87.4386 48.2067 87.4039 48.1304L87.1763 48.2338L86.9487 48.3373C86.9677 48.3791 86.9733 48.4021 86.976 48.4205C86.9795 48.4447 86.98 48.4712 86.98 48.5345H87.23ZM87.1763 48.2338L87.3531 48.057C87.3638 48.0678 87.3666 48.0754 87.3643 48.0705C87.3615 48.0647 87.3579 48.0552 87.3504 48.0326C87.3446 48.0151 87.3335 47.9805 87.3194 47.9482C87.3049 47.9149 87.2797 47.8655 87.235 47.8208L87.0582 47.9975L86.8814 48.1743C86.8635 48.1564 86.8584 48.1419 86.8611 48.1479C86.8641 48.1548 86.8671 48.1639 86.8761 48.1907C86.8833 48.2124 86.8951 48.2479 86.9122 48.284C86.9297 48.3211 86.9566 48.3676 86.9995 48.4106L87.1763 48.2338ZM87.0582 47.9975L87.235 47.8208L87.0524 47.6382L86.8756 47.815L86.6988 47.9917L86.8814 48.1743L87.0582 47.9975ZM86.8756 47.815L87.0524 47.6382C86.9823 47.5681 86.9086 47.4945 86.759 47.4129L86.6393 47.6324L86.5196 47.8519C86.6063 47.8992 86.64 47.9329 86.6988 47.9917L86.8756 47.815ZM86.6393 47.6324L86.8314 47.4723C86.7707 47.3995 86.6872 47.351 86.6276 47.3229C86.5725 47.297 86.4862 47.2642 86.4031 47.2642V47.5142V47.7642C86.3903 47.7642 86.3826 47.7628 86.3817 47.7626C86.3801 47.7624 86.3809 47.7624 86.3843 47.7634C86.3913 47.7655 86.4022 47.7695 86.4147 47.7754C86.4273 47.7812 86.4379 47.7874 86.4455 47.7927C86.4492 47.7952 86.4512 47.7968 86.4518 47.7973C86.4525 47.798 86.4506 47.7964 86.4473 47.7924L86.6393 47.6324ZM86.4031 47.5142L86.5798 47.3375C86.4967 47.2543 86.3916 47.2249 86.3407 47.2105C86.2731 47.1915 86.2422 47.1851 86.2058 47.1685L86.1023 47.3961L85.9989 47.6237C86.0806 47.6608 86.1679 47.6813 86.205 47.6918C86.2588 47.707 86.245 47.7097 86.2263 47.691L86.4031 47.5142ZM86.1023 47.3961L86.1729 47.1563C86.0031 47.1063 85.8562 47.0502 85.7012 46.9499L85.5654 47.1598L85.4295 47.3697C85.6397 47.5057 85.8364 47.5785 86.0318 47.636L86.1023 47.3961ZM85.5654 47.1598L85.6486 46.9241C85.5753 46.8982 85.5027 46.8611 85.4087 46.8141C85.3213 46.7704 85.2143 46.7177 85.0989 46.6837L85.0284 46.9236L84.9578 47.1634C85.025 47.1832 85.0952 47.2164 85.1851 47.2613C85.2682 47.3028 85.3728 47.357 85.4822 47.3956L85.5654 47.1598ZM85.0284 46.9236L85.1116 46.6878C84.9692 46.6376 84.8256 46.5409 84.714 46.4386L84.5451 46.6228L84.3761 46.8071C84.5223 46.9411 84.7224 47.0807 84.9452 47.1593L85.0284 46.9236ZM84.5451 46.6228L84.7219 46.4461C84.642 46.3662 84.535 46.3 84.4785 46.2606C84.4104 46.2132 84.3653 46.1749 84.3322 46.1268L84.1262 46.2684L83.9202 46.4101C84.0053 46.5338 84.1105 46.6136 84.1928 46.6709C84.2866 46.7363 84.33 46.7613 84.3683 46.7996L84.5451 46.6228ZM84.1262 46.2684L84.303 46.0917L83.9486 45.7372L83.7718 45.914L83.595 46.0908L83.9495 46.4452L84.1262 46.2684ZM83.7718 45.914L83.9486 45.7372C83.9146 45.7033 83.8841 45.6555 83.8352 45.5748C83.7928 45.5051 83.7321 45.4026 83.6479 45.3184L83.4711 45.4952L83.2943 45.6719C83.3283 45.7059 83.3588 45.7537 83.4078 45.8343C83.4501 45.9041 83.5109 46.0066 83.595 46.0908L83.7718 45.914ZM83.4711 45.4952L83.7068 45.412C83.6755 45.3231 83.6466 45.2365 83.617 45.1476C83.5876 45.0593 83.5573 44.9687 83.5243 44.875L83.2885 44.9582L83.0528 45.0414C83.0842 45.1303 83.113 45.2168 83.1426 45.3057C83.1721 45.394 83.2023 45.4847 83.2354 45.5784L83.4711 45.4952ZM83.2885 44.9582L83.5284 44.8876C83.4863 44.7446 83.4848 44.6079 83.4848 44.4212H83.2348H82.9848C82.9848 44.5997 82.9833 44.8066 83.0487 45.0287L83.2885 44.9582ZM83.2348 44.4212H83.4848C83.4848 44.1842 83.4855 44.0273 83.5323 43.8215L83.2885 43.7661L83.0447 43.7107C82.9841 43.9774 82.9848 44.1857 82.9848 44.4212H83.2348ZM83.2885 43.7661L83.5243 43.8493C83.5597 43.7489 83.5914 43.636 83.6204 43.5332C83.6505 43.4265 83.6778 43.3301 83.7068 43.2478L83.4711 43.1646L83.2354 43.0814C83.1999 43.1818 83.1682 43.2947 83.1392 43.3975C83.1091 43.5042 83.0818 43.6006 83.0528 43.6829L83.2885 43.7661ZM83.4711 43.1646L83.7068 43.2478C83.759 43.1001 83.8556 42.9583 83.9817 42.7635L83.7718 42.6276L83.5619 42.4918C83.4517 42.6622 83.3121 42.864 83.2354 43.0814L83.4711 43.1646ZM83.7718 42.6276L83.9817 42.7635C84.0834 42.6063 84.183 42.5056 84.3674 42.3211L84.1907 42.1444L84.0139 41.9676C83.8332 42.1483 83.6965 42.2839 83.5619 42.4918L83.7718 42.6276ZM84.1907 42.1444L84.3265 42.3542C84.4287 42.2881 84.5122 42.2223 84.5868 42.1637C84.6626 42.1042 84.7294 42.0519 84.8098 41.9998L84.674 41.7899L84.5381 41.58C84.436 41.6462 84.3524 41.712 84.2779 41.7706C84.202 41.8301 84.1352 41.8824 84.0549 41.9345L84.1907 42.1444ZM84.674 41.7899L84.8098 41.9998C84.9648 41.8995 85.1117 41.8434 85.2815 41.7935L85.2109 41.5537L85.1404 41.3138C84.945 41.3713 84.7483 41.4441 84.5381 41.58L84.674 41.7899ZM85.2109 41.5537V41.8037H85.2646V41.5537V41.3037H85.2109V41.5537ZM85.2646 41.5537H85.5146V40.2434H85.2646H85.0146V41.5537H85.2646ZM85.2646 40.2434V40.4934H86.8219V40.2434V39.9934H85.2646V40.2434ZM86.8219 40.2434H86.5719V41.5H86.8219H87.0719V40.2434H86.8219ZM86.8219 41.5V41.75H86.94V41.5V41.25H86.8219V41.5ZM86.94 41.5V41.75C86.9515 41.75 86.9605 41.7514 87.0072 41.7679C87.0518 41.7837 87.1341 41.8144 87.2408 41.8144V41.5644V41.3144C87.2293 41.3144 87.2203 41.3129 87.1736 41.2964C87.1291 41.2807 87.0467 41.25 86.94 41.25V41.5ZM87.2408 41.5644V41.8144C87.2658 41.8144 87.2984 41.8204 87.3492 41.8334C87.3695 41.8386 87.402 41.8474 87.4281 41.8534C87.4536 41.8592 87.4958 41.8681 87.5415 41.8681V41.6181V41.3681C87.5549 41.3681 87.5583 41.3703 87.5397 41.366C87.5219 41.3619 87.5054 41.3573 87.4734 41.3491C87.4194 41.3352 87.3339 41.3144 87.2408 41.3144V41.5644ZM87.5415 41.6181V41.8681C87.5219 41.8681 87.5143 41.8642 87.5288 41.8684C87.5405 41.8718 87.5554 41.877 87.5782 41.8853C87.5975 41.8923 87.6266 41.9031 87.6537 41.9114C87.6761 41.9183 87.7242 41.9325 87.7778 41.9325V41.6825V41.4325C87.8045 41.4325 87.8176 41.4387 87.8008 41.4335C87.7886 41.4298 87.774 41.4245 87.7491 41.4154C87.7276 41.4076 87.6976 41.3967 87.6672 41.3879C87.6398 41.3801 87.5933 41.3681 87.5415 41.3681V41.6181ZM87.7778 41.6825V41.9325C87.7517 41.9325 87.7361 41.9263 87.7432 41.9286C87.756 41.9328 87.7549 41.9331 87.7876 41.9448C87.8382 41.9629 87.9144 41.9862 88.014 41.9862V41.7362V41.4862C87.9955 41.4862 87.9805 41.4828 87.9558 41.474C87.951 41.4722 87.9163 41.4591 87.8982 41.4533C87.8744 41.4455 87.8306 41.4325 87.7778 41.4325V41.6825ZM88.014 41.7362L87.9482 41.9774L88.1845 42.0419L88.2503 41.8007L88.3161 41.5595L88.0798 41.4951L88.014 41.7362ZM88.2503 41.8007L88.0091 41.7349L87.9447 41.9712L88.1859 42.037L88.4271 42.1027L88.4915 41.8665L88.2503 41.8007ZM88.1859 42.037L87.9374 42.0096L87.8192 43.0836L88.0677 43.1109L88.3162 43.1383L88.4344 42.0643L88.1859 42.037ZM88.0677 43.1109L87.8218 43.0662L87.7573 43.4206L88.0033 43.4653L88.2493 43.5101L88.3137 43.1557L88.0677 43.1109ZM88.0033 43.4653L88.0823 43.2282L87.7279 43.11L87.6489 43.3472L87.5698 43.5844L87.9242 43.7025L88.0033 43.4653ZM87.6489 43.3472V43.0972C87.6749 43.0972 87.6914 43.1039 87.69 43.1034C87.6826 43.1006 87.6826 43.1 87.6524 43.0865C87.6022 43.0642 87.5221 43.0328 87.4126 43.0328V43.2828V43.5328C87.4213 43.5328 87.4271 43.5336 87.4493 43.5434C87.4554 43.5461 87.4883 43.5616 87.5128 43.5709C87.5433 43.5825 87.5906 43.5972 87.6489 43.5972V43.3472ZM87.4126 43.2828V43.0328C87.4386 43.0328 87.4551 43.0395 87.4537 43.0389C87.4463 43.0361 87.4463 43.0355 87.4161 43.0221C87.3659 42.9998 87.2858 42.9683 87.1763 42.9683V43.2183V43.4683C87.185 43.4683 87.1908 43.4691 87.2131 43.479C87.2191 43.4817 87.252 43.4972 87.2765 43.5065C87.307 43.518 87.3544 43.5328 87.4126 43.5328V43.2828ZM87.1763 43.2183V42.9683C87.1566 42.9683 87.1305 42.9628 87.0649 42.9449C87.0123 42.9306 86.9203 42.9039 86.8219 42.9039V43.1539V43.4039C86.8416 43.4039 86.8677 43.4094 86.9333 43.4273C86.9859 43.4416 87.0779 43.4683 87.1763 43.4683V43.2183ZM86.8219 43.1539V42.9039C86.8022 42.9039 86.7761 42.8984 86.7105 42.8805C86.6579 42.8662 86.5659 42.8395 86.4675 42.8395V43.0895V43.3395C86.4872 43.3395 86.5133 43.345 86.5789 43.3629C86.6315 43.3772 86.7235 43.4039 86.8219 43.4039V43.1539ZM86.4675 43.0895V42.8395H85.9949V43.0895V43.3395H86.4675V43.0895ZM85.9949 43.0895V42.8395C85.8829 42.8395 85.7024 42.8354 85.5208 42.9344L85.6405 43.1539L85.7602 43.3734C85.815 43.3435 85.8707 43.3395 85.9949 43.3395V43.0895ZM85.6405 43.1539L85.5208 42.9344C85.4811 42.9561 85.4519 42.9666 85.4132 42.9791C85.3724 42.9923 85.3113 43.0104 85.2364 43.0444L85.3398 43.272L85.4433 43.4996C85.4865 43.48 85.5166 43.4712 85.5671 43.4549C85.6197 43.4378 85.6818 43.4162 85.7602 43.3734L85.6405 43.1539ZM85.3398 43.272L85.163 43.0953C85.1526 43.1057 85.1326 43.1196 85.079 43.1553C85.0417 43.1802 84.9658 43.2293 84.9115 43.2946L85.1035 43.4546L85.2956 43.6147C85.2924 43.6185 85.2938 43.6159 85.3065 43.6061C85.3187 43.5967 85.3341 43.5861 85.3563 43.5713C85.3913 43.548 85.4626 43.5028 85.5166 43.4488L85.3398 43.272ZM85.1035 43.4546L84.9115 43.2946C84.8708 43.3433 84.8316 43.4049 84.8021 43.4623C84.787 43.4916 84.7721 43.5243 84.7604 43.5577C84.7503 43.5865 84.7354 43.6354 84.7354 43.6909H84.9854H85.2354C85.2354 43.7077 85.2331 43.7188 85.2325 43.7216C85.2317 43.7252 85.2313 43.7258 85.2322 43.7231C85.2343 43.7172 85.2388 43.7063 85.2466 43.6913C85.2627 43.66 85.2825 43.6303 85.2956 43.6147L85.1035 43.4546ZM84.9854 43.6909L84.8086 43.5141C84.7218 43.601 84.6934 43.7084 84.6819 43.7831C84.6704 43.858 84.671 43.9373 84.671 43.9916H84.921H85.171C85.171 43.9612 85.171 43.9362 85.1718 43.9126C85.1726 43.8892 85.1741 43.872 85.1761 43.8591C85.1807 43.8291 85.1846 43.8453 85.1622 43.8677L84.9854 43.6909ZM84.921 43.9916H84.671V44.2923H84.921H85.171V43.9916H84.921ZM84.921 44.2923H84.671C84.671 44.399 84.7017 44.4813 84.7174 44.5259C84.7339 44.5726 84.7354 44.5815 84.7354 44.593H84.9854H85.2354C85.2354 44.4864 85.2047 44.404 85.1889 44.3595C85.1724 44.3127 85.171 44.3038 85.171 44.2923H84.921ZM84.9854 44.593L84.8254 44.7851C84.8041 44.7674 84.7971 44.7512 84.7984 44.7539C84.8 44.7571 84.8032 44.765 84.8106 44.7881C84.8162 44.8053 84.8272 44.8411 84.8408 44.8737C84.8546 44.9066 84.8799 44.9592 84.9268 45.0061L85.1035 44.8293L85.2803 44.6525C85.3004 44.6726 85.3055 44.6889 85.3022 44.6809C85.2987 44.6726 85.2956 44.6627 85.2864 44.6342C85.2791 44.6117 85.2668 44.5739 85.2486 44.5362C85.2301 44.4979 85.1989 44.4455 85.1455 44.401L84.9854 44.593ZM85.1035 44.8293L84.9268 45.0061C84.9546 45.0339 84.9466 45.0259 84.9734 45.0527C84.9795 45.0588 84.9787 45.058 84.9847 45.064C84.9902 45.0695 84.982 45.0613 84.9875 45.0668C84.9949 45.0743 84.9828 45.0621 84.9903 45.0696C84.9903 45.0696 84.9917 45.071 84.9917 45.071C84.9967 45.076 84.9881 45.0674 84.9931 45.0724C84.9946 45.0739 84.993 45.0723 84.9945 45.0738C84.9947 45.074 84.9949 45.0742 84.9952 45.0745C84.9961 45.0754 84.9949 45.0742 84.9959 45.0752C85.0069 45.0862 85.0071 45.0864 85.0181 45.0974C85.025 45.1043 85.0222 45.1015 85.0291 45.1084C85.03 45.1093 85.0297 45.109 85.0305 45.1098C85.031 45.1103 85.0314 45.1107 85.0319 45.1112C85.0323 45.1116 85.0329 45.1123 85.0333 45.1126L85.0347 45.114C85.0483 45.1276 85.0266 45.1059 85.0402 45.1196C85.041 45.1203 85.0402 45.1195 85.0409 45.1203C85.0412 45.1205 85.0414 45.1207 85.0416 45.121C85.0429 45.1222 85.0418 45.1211 85.043 45.1223C85.048 45.1273 85.0409 45.1202 85.0458 45.1251C85.0468 45.1261 85.0504 45.1297 85.0514 45.1307C85.0554 45.1347 85.0587 45.138 85.0627 45.142C85.0726 45.152 85.0641 45.1434 85.0741 45.1534C85.0809 45.1602 85.0788 45.1581 85.0856 45.165C85.0877 45.167 85.0894 45.1687 85.0915 45.1708C85.0941 45.1734 85.0947 45.1741 85.0974 45.1767C85.1106 45.1899 85.096 45.1753 85.1093 45.1887L85.2861 45.0119L85.4629 44.8351C85.4552 44.8274 85.423 44.7952 85.4162 44.7884C85.4072 44.7794 85.414 44.7862 85.405 44.7772C85.3896 44.7618 85.4091 44.7813 85.3938 44.766C85.3817 44.7539 85.3837 44.7559 85.3716 44.7438C85.353 44.7252 85.3681 44.7403 85.3494 44.7216C85.3444 44.7166 85.3433 44.7155 85.3382 44.7104C85.3353 44.7075 85.33 44.7022 85.327 44.6992C85.317 44.6892 85.3256 44.6978 85.3156 44.6878C85.3122 44.6844 85.3075 44.6797 85.304 44.6762C85.3009 44.6731 85.3013 44.6735 85.2982 44.6704C85.2949 44.6671 85.2956 44.6678 85.2923 44.6645C85.2746 44.6468 85.2981 44.6703 85.2803 44.6525L85.1035 44.8293ZM85.2861 45.0119L85.1093 45.1887C85.1633 45.2427 85.2346 45.2878 85.2696 45.3112C85.2918 45.326 85.3073 45.3366 85.3195 45.346C85.3321 45.3557 85.3335 45.3583 85.3303 45.3545L85.5224 45.1945L85.7145 45.0344C85.6601 44.9692 85.5843 44.92 85.547 44.8952C85.4934 44.8594 85.4733 44.8455 85.4629 44.8351L85.2861 45.0119ZM85.5224 45.1945L85.3624 45.3865C85.4062 45.4231 85.452 45.4447 85.4845 45.458C85.5154 45.4706 85.5496 45.4814 85.5655 45.4867C85.5755 45.49 85.5824 45.4924 85.5879 45.4945C85.5905 45.4955 85.5924 45.4963 85.5937 45.4969C85.595 45.4974 85.5956 45.4977 85.5956 45.4977C85.5956 45.4977 85.5948 45.4973 85.5934 45.4965C85.592 45.4956 85.5899 45.4943 85.5873 45.4923C85.5819 45.4884 85.5744 45.482 85.5666 45.4726L85.7587 45.3126L85.9507 45.1525C85.9083 45.1017 85.8591 45.0707 85.8207 45.0513C85.7834 45.0325 85.7464 45.0199 85.7236 45.0123C85.6952 45.0028 85.6845 44.9995 85.6734 44.995C85.664 44.9912 85.6708 44.9927 85.6824 45.0024L85.5224 45.1945ZM85.7587 45.3126L85.639 45.5321C85.7174 45.5749 85.7795 45.5965 85.8321 45.6136C85.8826 45.6299 85.9127 45.6387 85.9559 45.6583L86.0594 45.4307L86.1628 45.2031C86.0879 45.1691 86.0268 45.151 85.986 45.1378C85.9473 45.1253 85.9181 45.1148 85.8784 45.0931L85.7587 45.3126ZM86.0594 45.4307L85.9762 45.6665C86.1682 45.7342 86.3081 45.7783 86.4606 45.8769L86.5964 45.667L86.7322 45.4571C86.5195 45.3195 86.3157 45.2561 86.1426 45.195L86.0594 45.4307ZM86.5964 45.667L86.5132 45.9028C86.5864 45.9286 86.659 45.9657 86.7531 46.0128C86.8405 46.0565 86.9475 46.1092 87.0628 46.1431L87.1334 45.9033L87.2039 45.6634C87.1367 45.6437 87.0665 45.6105 86.9767 45.5656C86.8935 45.524 86.7889 45.4699 86.6796 45.4313L86.5964 45.667ZM87.1334 45.9033L87.0628 46.1431C87.115 46.1585 87.1636 46.1857 87.2297 46.2329C87.285 46.2724 87.3857 46.3523 87.4808 46.4139L87.6167 46.204L87.7525 45.9941C87.665 45.9375 87.6154 45.8939 87.5203 45.826C87.436 45.7658 87.3343 45.7018 87.2039 45.6634L87.1334 45.9033ZM87.6167 46.204L87.4808 46.4139C87.6392 46.5163 87.7412 46.6176 87.8587 46.7352L88.0355 46.5584L88.2123 46.3816C88.0936 46.2629 87.9593 46.1279 87.7525 45.9941L87.6167 46.204ZM88.0355 46.5584L87.8587 46.7352C87.9178 46.7943 87.9769 46.8533 88.0359 46.9124C88.095 46.9715 88.1541 47.0305 88.2131 47.0896L88.3899 46.9128L88.5667 46.736C88.5076 46.677 88.4486 46.6179 88.3895 46.5588C88.3304 46.4998 88.2714 46.4407 88.2123 46.3816L88.0355 46.5584ZM88.3899 46.9128L88.2131 47.0896C88.2447 47.1211 88.2761 47.169 88.3086 47.234C88.3446 47.3061 88.3633 47.3576 88.3986 47.4351L88.6262 47.3317L88.8538 47.2282C88.8353 47.1876 88.795 47.0888 88.7558 47.0104C88.7132 46.9251 88.6533 46.8226 88.5667 46.736L88.3899 46.9128ZM88.6262 47.3317L88.3904 47.4149C88.4495 47.5821 88.5115 47.7794 88.5852 47.9268L88.8088 47.815L89.0324 47.7032C88.9772 47.5927 88.9318 47.4464 88.8619 47.2485L88.6262 47.3317ZM88.8088 47.815L88.573 47.8982C88.6212 48.0347 88.6232 48.1649 88.6232 48.3519H88.8732H89.1232C89.1232 48.1739 89.1252 47.9604 89.0445 47.7318L88.8088 47.815ZM88.8732 48.3519H88.6232C88.6232 48.5889 88.6222 48.7409 88.5676 48.9413L88.8088 49.0071L89.05 49.0729C89.1242 48.8007 89.1232 48.5875 89.1232 48.3519H88.8732ZM88.8088 49.0071L88.565 48.9517C88.5148 49.1724 88.4549 49.3428 88.3904 49.5253L88.6262 49.6085L88.8619 49.6917C88.9264 49.5091 88.9953 49.3143 89.0526 49.0625L88.8088 49.0071ZM88.6262 49.6085L88.3904 49.5253C88.3383 49.673 88.2416 49.8149 88.1156 50.0097L88.3255 50.1455L88.5354 50.2813C88.6456 50.111 88.7852 49.9092 88.8619 49.6917L88.6262 49.6085ZM88.3255 50.1455L88.1156 50.0097C88.0166 50.1626 87.9237 50.2555 87.7708 50.3545L87.9066 50.5643L88.0424 50.7742C88.2547 50.6369 88.3981 50.4935 88.5354 50.2813L88.3255 50.1455ZM87.9066 50.5643L87.7708 50.3545C87.6779 50.4146 87.5878 50.4746 87.4995 50.5335C87.4106 50.5927 87.3234 50.6509 87.2338 50.7089L87.3696 50.9188L87.5055 51.1286C87.5984 51.0685 87.6884 51.0085 87.7768 50.9496C87.8656 50.8904 87.9528 50.8322 88.0424 50.7742L87.9066 50.5643ZM87.3696 50.9188L87.2338 50.7089C87.0885 50.8029 86.8929 50.8578 86.6977 50.9152L86.7682 51.155L86.8388 51.3949C87.0087 51.3449 87.2856 51.2709 87.5055 51.1286L87.3696 50.9188ZM86.7682 51.155V50.905H86.7038V51.155V51.405H86.7682V51.155ZM86.7038 51.155H86.4538V52.4653H86.7038H86.9538V51.155H86.7038ZM86.7038 52.4653V52.2153H85.1465V52.4653V52.7153H86.7038V52.4653ZM85.1465 52.4653H85.3965V51.2087H85.1465H84.8965V52.4653H85.1465ZM85.1465 51.2087V50.9587H85.0284V51.2087V51.4587H85.1465V51.2087ZM85.0284 51.2087V50.9587C84.959 50.9587 84.8888 50.9486 84.7973 50.9347C84.7116 50.9217 84.6046 50.905 84.4914 50.905V51.155V51.405C84.5608 51.405 84.6309 51.4152 84.7224 51.4291C84.8081 51.442 84.9152 51.4587 85.0284 51.4587V51.2087ZM84.4914 51.155L84.5746 50.9193C84.4617 50.8795 84.3543 50.8604 84.274 50.8459C84.1847 50.8298 84.1386 50.8204 84.1042 50.8061L84.0081 51.0369L83.9119 51.2677C84.0064 51.307 84.1107 51.3245 84.1852 51.338C84.2687 51.353 84.3384 51.3662 84.4082 51.3908L84.4914 51.155ZM84.0081 51.0369L83.7886 51.1566C83.7878 51.1552 83.785 51.1499 83.7819 51.141C83.7788 51.1324 83.7743 51.1174 83.7724 51.0975C83.7681 51.0522 83.7783 50.9888 83.825 50.9343C83.8652 50.8873 83.9111 50.8724 83.9271 50.868C83.9447 50.8632 83.9553 50.8634 83.952 50.8635C83.9443 50.8637 83.9288 50.8627 83.8919 50.8591C83.863 50.8562 83.8161 50.8513 83.7718 50.8513V51.1013V51.3513C83.7866 51.3513 83.8068 51.3531 83.8434 51.3567C83.8719 51.3595 83.9202 51.3645 83.9648 51.3633C83.9877 51.3627 84.0217 51.3604 84.0585 51.3504C84.0938 51.3408 84.1549 51.3179 84.205 51.2593C84.3269 51.1167 84.2493 50.957 84.2276 50.9172L84.0081 51.0369Z" fill="#F58436" mask="url(#path-2-outside-1_356_113)"/>
</svg>
