<svg width="81" height="63" viewBox="0 0 81 63" fill="none" xmlns="http://www.w3.org/2000/svg">
<path d="M18.1873 62.8563C18.205 62.8681 18.2286 62.8622 18.2463 62.874C18.3855 62.9523 18.5415 62.9955 18.7011 63C18.7889 62.9999 18.8763 62.9879 18.961 62.9646L40.3573 57.1253L61.7536 62.9646C61.8383 62.9879 61.9257 62.9999 62.0135 63C62.1726 62.9946 62.3279 62.9507 62.4663 62.8721C62.486 62.8622 62.5077 62.8662 62.5254 62.8543L80.2441 52.0262C80.4273 51.9141 80.5689 51.745 80.6471 51.5449C80.7253 51.3448 80.7359 51.1245 80.6772 50.9178L70.865 16.4648C70.8245 16.3215 70.752 16.1893 70.6531 16.0781C70.5541 15.9669 70.4312 15.8796 70.2936 15.8227C70.156 15.7658 70.0073 15.7409 69.8587 15.7499C69.7101 15.7588 69.5655 15.8013 69.4357 15.8742L59.6668 21.3552C59.4528 21.4902 59.299 21.7023 59.237 21.9476C59.175 22.193 59.2097 22.4527 59.3338 22.6731C59.458 22.8936 59.6621 23.0579 59.904 23.1322C60.1458 23.2064 60.407 23.1848 60.6334 23.0719L69.3136 18.1993L78.5805 50.7348L62.801 60.3796L59.0525 30.3937C59.0201 30.1344 58.8861 29.8987 58.6799 29.7382C58.4737 29.5778 58.2122 29.5059 57.953 29.5383C57.6937 29.5706 57.458 29.7047 57.2975 29.9109C57.1371 30.1171 57.0652 30.3786 57.0975 30.6378L60.8519 60.6789L41.3417 55.3534V49.9788C41.3417 49.7177 41.238 49.4673 41.0534 49.2827C40.8688 49.0981 40.6184 48.9944 40.3573 48.9944C40.0962 48.9944 39.8459 49.0981 39.6612 49.2827C39.4766 49.4673 39.3729 49.7177 39.3729 49.9788V55.3534L19.8607 60.6789L23.6151 30.6378C23.6311 30.5094 23.6217 30.3792 23.5874 30.2544C23.5531 30.1297 23.4945 30.013 23.4151 29.9109C23.3357 29.8088 23.2369 29.7233 23.1245 29.6594C23.012 29.5954 22.888 29.5543 22.7597 29.5383C22.6313 29.5222 22.501 29.5316 22.3763 29.566C22.2516 29.6003 22.1348 29.6588 22.0327 29.7382C21.9306 29.8177 21.8452 29.9164 21.7812 30.0289C21.7173 30.1414 21.6762 30.2653 21.6601 30.3937L17.9136 60.3796L2.13412 50.7367L11.401 18.2032L20.0812 23.0759C20.3076 23.1887 20.5688 23.2103 20.8106 23.1361C21.0525 23.0619 21.2566 22.8975 21.3808 22.6771C21.5049 22.4566 21.5396 22.1969 21.4776 21.9516C21.4156 21.7063 21.2618 21.4942 21.0479 21.3591L11.277 15.8762C11.1476 15.802 11.0029 15.7586 10.8541 15.7491C10.7052 15.7395 10.5562 15.7642 10.4184 15.8213C10.2806 15.8783 10.1577 15.9661 10.0591 16.078C9.9605 16.1899 9.88885 16.3229 9.84963 16.4668L0.0374076 50.9198C-0.0212634 51.1265 -0.0106897 51.3467 0.0675148 51.5469C0.145719 51.747 0.287259 51.9161 0.470531 52.0282L18.1873 62.8563Z" fill="white"/>
<path d="M39.6899 46.0056C39.8707 46.1725 40.1073 46.2656 40.3532 46.2667C40.5992 46.2678 40.8366 46.1768 41.0188 46.0115C41.6744 45.415 57.0917 31.2676 57.0917 16.7343C57.0917 7.34932 49.7424 0 40.3573 0C30.9723 0 23.623 7.34932 23.623 16.7343C23.623 31.0156 39.0344 45.3993 39.6899 46.0056ZM40.3573 1.96874C48.7737 1.96874 55.1229 8.31598 55.1229 16.7343C55.1229 28.7378 43.3242 41.0227 40.3633 43.9168C37.4082 40.9893 25.5918 28.5429 25.5918 16.7343C25.5918 8.31598 31.941 1.96874 40.3573 1.96874Z" fill="white"/>
<path d="M49.2167 16.7344C49.2167 11.8499 45.2418 7.875 40.3574 7.875C35.4729 7.875 31.498 11.8499 31.498 16.7344C31.498 21.6188 35.4729 25.5937 40.3574 25.5937C45.2418 25.5937 49.2167 21.6188 49.2167 16.7344ZM40.3574 23.625C36.5577 23.625 33.4667 20.534 33.4667 16.7344C33.4667 12.9347 36.5577 9.84374 40.3574 9.84374C44.157 9.84374 47.248 12.9347 47.248 16.7344C47.248 20.534 44.157 23.625 40.3574 23.625Z" fill="white"/>
</svg>
