<svg width="65" height="63" viewBox="0 0 65 63" fill="none" xmlns="http://www.w3.org/2000/svg">
<path d="M8.27357 22.0703C8.125 21.7964 8.125 21.4565 8.28286 21.192L14.4021 10.8132C14.56 10.5488 14.8386 10.3882 15.145 10.3882C15.4514 10.3882 15.73 10.5488 15.8878 10.8132L22.0071 21.192C22.165 21.4659 22.1743 21.7964 22.0164 22.0703C21.8679 22.3442 21.58 22.5142 21.2643 22.5142H19.0636V24.7524C19.0636 25.234 18.6736 25.6306 18.2 25.6306C17.7264 25.6306 17.3364 25.234 17.3364 24.7524V21.6359C17.3364 21.1543 17.7264 20.7576 18.2 20.7576H19.7414L15.1357 12.957L10.5393 20.7576H12.0807C12.5543 20.7576 12.9443 21.1543 12.9443 21.6359V27.8688C12.9443 28.3505 12.5543 28.7471 12.0807 28.7471C11.6071 28.7471 11.2171 28.3505 11.2171 27.8688V22.5142H9.01643C8.71 22.5142 8.42214 22.3442 8.26428 22.0703M43.7264 22.5142H45.9271V24.7524C45.9271 25.234 46.3171 25.6306 46.7907 25.6306C47.2643 25.6306 47.6543 25.234 47.6543 24.7524V21.6359C47.6543 21.1543 47.2736 20.7576 46.7907 20.7576H45.2493L49.855 12.957L54.4607 20.7576H52.9193C52.4457 20.7576 52.0557 21.1543 52.0557 21.6359V27.8688C52.0557 28.3505 52.4457 28.7471 52.9193 28.7471C53.3928 28.7471 53.7829 28.3505 53.7829 27.8688V22.5142H55.9836C56.29 22.5142 56.5778 22.3442 56.7357 22.0703C56.8843 21.7964 56.8843 21.4565 56.7264 21.192L50.6071 10.8132C50.4493 10.5488 50.1707 10.3882 49.8643 10.3882C49.5579 10.3882 49.2793 10.5488 49.1214 10.8132L43.0021 21.192C42.8443 21.4659 42.835 21.7964 42.9929 22.0703C43.1414 22.3442 43.4293 22.5142 43.745 22.5142M23.5857 14.7985C23.4371 14.5247 23.4371 14.1847 23.6043 13.9108L31.7664 0.415532C31.9243 0.151104 32.2029 0 32.5 0C32.7971 0 33.0757 0.160548 33.2336 0.415532L41.3957 13.9108C41.5629 14.1847 41.5628 14.5247 41.4143 14.7985C41.2657 15.0724 40.9778 15.2518 40.6621 15.2518H37.44V21.6359C37.44 22.1175 37.05 22.5142 36.5764 22.5142C36.1029 22.5142 35.7128 22.1175 35.7128 21.6359V14.3736C35.7128 13.8919 36.1029 13.4953 36.5764 13.4953H39.1114L32.4907 2.54985L25.87 13.4953H28.405C28.8786 13.4953 29.2686 13.8919 29.2686 14.3736V21.6359C29.2686 22.1175 28.8786 22.5142 28.405 22.5142C27.9314 22.5142 27.5414 22.1175 27.5414 21.6359V15.2518H24.3193C24.0036 15.2518 23.7157 15.0819 23.5671 14.7985M13.0279 48.8153L11.1429 48.022C10.7064 47.8332 10.1957 48.0504 10.0193 48.4942C9.83356 48.9381 10.0471 49.4575 10.4836 49.6369L12.3686 50.4302C12.48 50.4774 12.5914 50.4963 12.6936 50.4963C13.0279 50.4963 13.3529 50.2886 13.4921 49.958C13.6779 49.5142 13.4643 48.9948 13.0279 48.8153ZM42.2779 36.2455L41.4979 38.1626C41.3586 38.5026 41.0429 38.701 40.6993 38.701C40.5879 38.701 40.4764 38.6821 40.3743 38.6348C39.9379 38.446 39.7243 37.936 39.91 37.4921L40.69 35.575C40.8757 35.1312 41.3771 34.914 41.8136 35.1028C42.25 35.2917 42.4636 35.8017 42.2779 36.2455ZM54.9807 48.4942C54.795 48.0504 54.2936 47.8332 53.8571 48.022L51.9721 48.8153C51.5357 49.0042 51.3221 49.5142 51.5079 49.958C51.6471 50.298 51.9629 50.4963 52.3064 50.4963C52.4179 50.4963 52.5293 50.4774 52.6314 50.4302L54.5164 49.6369C54.9528 49.4481 55.1664 48.9381 54.9807 48.4942ZM25.0993 37.4921C25.285 37.936 25.0714 38.4554 24.635 38.6348C24.5236 38.6821 24.4121 38.701 24.31 38.701C23.9757 38.701 23.6507 38.4932 23.5114 38.1626L22.7314 36.2455C22.5457 35.8017 22.7593 35.2823 23.1957 35.1028C23.6321 34.914 24.1429 35.1312 24.3193 35.575L25.0993 37.4921ZM16.51 40.4669C16.1757 40.127 15.6279 40.127 15.2936 40.4669C14.9593 40.8069 14.9593 41.3641 15.2936 41.7041L16.7329 43.1773C16.9 43.3473 17.1229 43.4323 17.3457 43.4323C17.5686 43.4323 17.7914 43.3473 17.9586 43.1773C18.2929 42.8374 18.2929 42.2802 17.9586 41.9402L16.5193 40.4764L16.51 40.4669ZM33.3636 34.0923V36.17C33.3636 36.6516 32.9736 37.0483 32.5 37.0483C32.0264 37.0483 31.6364 36.6516 31.6364 36.17V34.0923C31.6364 33.6107 32.0264 33.2141 32.5 33.2141C32.9736 33.2141 33.3636 33.6013 33.3636 34.0923ZM54.5164 36.1133C59.7443 41.5624 63.05 48.9381 63.2636 57.0882H60.8957C60.4407 41.553 47.8771 29.0682 32.5 29.0682C17.1229 29.0682 4.55928 41.5624 4.10428 57.0882H1.73642C2.19142 40.2309 15.8229 26.6695 32.5 26.6695C41.1171 26.6695 48.9171 30.2865 54.5164 36.1133ZM32.5 61.2434C30.7264 61.2434 29.2779 59.7702 29.2779 57.9664C29.2779 56.1626 30.7264 54.6894 32.5 54.6894C34.2736 54.6894 35.7221 56.1532 35.7221 57.957C35.7221 59.7702 34.2736 61.234 32.5 61.234M36.5486 55.0861L49.7064 41.7041C50.0407 41.3641 50.0407 40.8069 49.7064 40.4669C49.3721 40.127 48.8243 40.127 48.49 40.4669L35.3321 53.8489C34.5336 53.2728 33.5586 52.9423 32.5 52.9423C30.0671 52.9423 28.0429 54.7366 27.6343 57.0976H5.83143C6.28643 42.5352 18.07 30.8248 32.5 30.8248C46.93 30.8248 58.7136 42.5352 59.1686 57.0976H37.3657C37.2357 56.361 36.9571 55.681 36.5486 55.0955M32.5 24.9129C14.5786 24.9129 0 39.7398 0 57.9664C0 58.4481 0.389993 58.8447 0.863565 58.8447H27.6343C28.0429 61.1962 30.0671 63 32.5 63C34.9329 63 36.9571 61.2057 37.3657 58.8447H64.1364C64.61 58.8447 65 58.4481 65 57.9664C65 39.7398 50.4214 24.9129 32.5 24.9129Z" fill="white"/>
</svg>
