<svg width="69" height="63" viewBox="0 0 69 63" fill="none" xmlns="http://www.w3.org/2000/svg">
<path d="M19.1298 27.1339H24.1967L12.5454 42.1132L15.8376 30.9636H8.34557L20.0375 16.3102L17.3144 26.2783L17.084 27.1203H19.1298V27.1339ZM58.2971 32.9463C58.2971 33.3809 57.9313 33.7476 57.4842 33.7476H32.2172C31.7701 33.7476 31.4043 33.3945 31.4043 32.9463C31.4043 32.4982 31.7701 32.1451 32.2172 32.1451H57.4842C57.9313 32.1451 58.2971 32.4982 58.2971 32.9463ZM57.4842 24.3499H32.2172C31.7701 24.3499 31.4043 24.703 31.4043 25.1511C31.4043 25.5993 31.7701 25.9524 32.2172 25.9524H57.4842C57.9313 25.9524 58.2971 25.5993 58.2971 25.1511C58.2971 24.703 57.9313 24.3499 57.4842 24.3499ZM58.2971 17.3423C58.2971 17.7905 57.9313 18.1436 57.4842 18.1436H32.2172C31.7701 18.1436 31.4043 17.7905 31.4043 17.3423C31.4043 16.8942 31.7701 16.5411 32.2172 16.5411H57.4842C57.9313 16.5411 58.2971 16.8942 58.2971 17.3423ZM67.3878 45.454C67.3878 47.9528 65.762 50.1257 63.3369 50.859L62.9576 50.9677L62.9034 50.5874C62.2124 45.0466 57.3894 40.8773 51.6992 40.8773C46.009 40.8773 41.0369 45.1688 40.4679 50.8454L40.4408 51.1306H7.4243C4.22697 51.1306 1.61221 48.5775 1.61221 45.4404V12.8879C1.61221 9.75081 4.21343 7.19767 7.4243 7.19767H61.5622C64.7595 7.19767 67.3742 9.75081 67.3742 12.8879V45.4404L67.3878 45.454ZM51.7127 61.3975C46.4019 61.3975 42.0666 57.174 42.053 51.9726V51.9183C42.0666 46.717 46.4019 42.4934 51.7127 42.4934C57.0236 42.4934 61.3725 46.7305 61.3725 51.959C61.3725 57.1875 57.0371 61.4247 51.7127 61.4247M13.7648 61.3975H9.00942V52.7331H15.2009L13.7648 61.3975ZM14.6318 4.27786C14.6318 2.79758 15.8647 1.58892 17.3685 1.58892H50.6425C52.1463 1.58892 53.3792 2.79758 53.3792 4.27786V5.60875H14.6183V4.27786H14.6318ZM61.5757 5.60875H55.0185V4.27786C55.0185 1.91485 53.054 0 50.6425 0H17.3685C14.957 0 12.9925 1.91485 12.9925 4.27786V5.60875H7.43785C3.33281 5.60875 0 8.88166 0 12.9015V45.454C0 49.338 3.10249 52.5294 7.05851 52.7196H7.37011V62.1987C7.37011 62.6469 7.73591 63 8.183 63H14.4557C14.8622 63 15.2009 62.7148 15.2551 62.321L16.8402 52.7331H40.4408L40.4679 53.0183C41.0369 58.7086 45.8736 62.9864 51.6992 62.9864C57.5249 62.9864 62.4699 58.5184 62.944 52.8146V52.5837L63.2015 52.5294C66.6156 51.7961 69 48.8763 69 45.4404V12.8879C69 8.86807 65.6672 5.59517 61.5622 5.59517" fill="white"/>
</svg>
