<svg width="55" height="63" viewBox="0 0 55 63" fill="none" xmlns="http://www.w3.org/2000/svg">
<path d="M27.5065 13.4012C23.8183 13.4012 20.8265 16.3994 20.8265 20.0954C20.8265 23.7914 23.8183 26.7895 27.5065 26.7895C31.1946 26.7895 34.1864 23.7914 34.1864 20.0954C34.1864 16.3994 31.1946 13.4012 27.5065 13.4012ZM27.5065 28.6246C22.8124 28.6246 18.9953 24.7994 18.9953 20.0954C18.9953 15.3914 22.8124 11.5662 27.5065 11.5662C32.2005 11.5662 36.0176 15.3914 36.0176 20.0954C36.0176 24.7994 32.2005 28.6246 27.5065 28.6246ZM27.5065 1.86093C17.5381 1.86093 9.43962 10.0412 9.43962 20.0954C9.43962 23.9335 10.626 27.6166 12.8828 30.7182L12.9086 30.7569L27.5065 53.7083L36.6753 39.2862C41.2919 32.0234 42.1301 30.7182 42.2204 30.576L42.2591 30.5243C44.4385 27.4357 45.5733 23.8302 45.5733 20.0825C45.5733 10.0283 37.4619 1.848 27.5065 1.848M18.8148 44.5071C7.15709 45.9545 1.84407 49.7022 1.84407 52.5711C1.84407 54.7292 4.47479 56.8486 9.24619 58.5028C14.1594 60.2086 20.646 61.1649 27.5065 61.1649C42.8523 61.1649 53.1688 56.7194 53.1688 52.5711C53.1688 49.7022 47.8558 45.9545 36.1981 44.5071L35.5791 44.4295L28.2673 55.9182C28.0996 56.1895 27.803 56.3446 27.4935 56.3446C27.184 56.3446 26.8875 56.1895 26.7198 55.9182L19.408 44.4295L18.789 44.5071H18.8148ZM27.5065 63C20.2978 63 13.5146 61.992 8.39507 60.1569C2.90152 58.1926 0 55.5692 0 52.5582C0 47.3502 8.69168 44.1582 16.8288 42.9046L18.3118 42.672L11.374 31.752V31.7262C8.898 28.3145 7.59555 24.2825 7.59555 20.0695C7.59555 8.99447 16.5193 0 27.5065 0C38.4936 0 47.4174 9.00739 47.4174 20.0695C47.4174 24.2178 46.1536 28.1982 43.755 31.584C43.7034 31.6529 42.9598 32.816 41.524 35.0732L36.6882 42.672L38.1712 42.9046C46.3083 44.1582 55 47.3502 55 52.5582C55 59.0843 41.0211 62.9871 27.4935 62.9871" fill="white"/>
</svg>
